%TF.GenerationSoftware,KiCad,Pcbnew,(5.99.0-10506-gb986797469)*%
%TF.CreationDate,2021-06-08T23:03:07+02:00*%
%TF.ProjectId,Navi_2_0,4e617669-5f32-45f3-902e-6b696361645f,rev?*%
%TF.SameCoordinates,Original*%
%TF.FileFunction,Copper,L3,Inr*%
%TF.FilePolarity,Positive*%
%FSLAX46Y46*%
G04 Gerber Fmt 4.6, Leading zero omitted, Abs format (unit mm)*
G04 Created by KiCad (PCBNEW (5.99.0-10506-gb986797469)) date 2021-06-08 23:03:07*
%MOMM*%
%LPD*%
G01*
G04 APERTURE LIST*
%TA.AperFunction,ViaPad*%
%ADD10C,0.800000*%
%TD*%
G04 APERTURE END LIST*
D10*
%TO.N,GND*%
X65400000Y-126000000D03*
X67999926Y-110724020D03*
X43400000Y-125200000D03*
X34450000Y-75000000D03*
X115000000Y-47775000D03*
X61900000Y-104900000D03*
X101600000Y-50800000D03*
X50800000Y-63500000D03*
X42000000Y-153600000D03*
X34450000Y-160000000D03*
X101600000Y-63500000D03*
X88900000Y-63500000D03*
X66375693Y-108426208D03*
X34450000Y-125000000D03*
X91500000Y-62700000D03*
X49800000Y-118000000D03*
X127000000Y-76200000D03*
X101600000Y-76200000D03*
X49600000Y-174600000D03*
X139700000Y-76200000D03*
X61400000Y-158200000D03*
X34450000Y-115000000D03*
X38100000Y-63500000D03*
X51500000Y-165170498D03*
X63500000Y-88900000D03*
X49200000Y-102300000D03*
X144625000Y-55000000D03*
X144625000Y-70000000D03*
X42200000Y-150800000D03*
X144625000Y-50000000D03*
X67400000Y-112300000D03*
X40000000Y-47775000D03*
X53400000Y-124400000D03*
X56900000Y-104900000D03*
X45000000Y-47775000D03*
X35600000Y-174100000D03*
X71700000Y-177600000D03*
X34450000Y-100000000D03*
X100000000Y-47775000D03*
X114300000Y-50800000D03*
X60425500Y-134800000D03*
X72000000Y-152600000D03*
X75000000Y-47775000D03*
X130000000Y-47775000D03*
X34450000Y-60000000D03*
X34450000Y-120000000D03*
X34450000Y-105000000D03*
X53400000Y-126000000D03*
X34450000Y-175000000D03*
X49800000Y-114800000D03*
X60000000Y-47775000D03*
X45700000Y-130200000D03*
X56900000Y-102300000D03*
X144625000Y-60000000D03*
X144625000Y-65000000D03*
X61400000Y-160200000D03*
X70000000Y-47775000D03*
X53400000Y-169600000D03*
X135000000Y-47775000D03*
X63500000Y-76200000D03*
X56900000Y-103600000D03*
X39800000Y-182000000D03*
X98500000Y-60500000D03*
X60400000Y-177900000D03*
X65300000Y-124000000D03*
X45600000Y-137000000D03*
X62400000Y-149300000D03*
X76200000Y-76200000D03*
X92400000Y-59000000D03*
X64600000Y-178000000D03*
X127000000Y-50800000D03*
X110000000Y-47775000D03*
X59400000Y-160200000D03*
X97400000Y-68200000D03*
X96000000Y-56200000D03*
X34450000Y-165000000D03*
X86600000Y-52600000D03*
X67400000Y-117600000D03*
X49800000Y-121200000D03*
X63500000Y-63500000D03*
X144625000Y-75000000D03*
X68400000Y-178200000D03*
X86600000Y-59000000D03*
X60198000Y-148082000D03*
X34450000Y-65000000D03*
X114300000Y-76200000D03*
X39800000Y-179600000D03*
X139700000Y-50800000D03*
X55500000Y-180400000D03*
X57400000Y-113400000D03*
X92400000Y-52600000D03*
X96100000Y-48100000D03*
X49200000Y-104800000D03*
X71800000Y-171700000D03*
X69700000Y-167200000D03*
X38100000Y-76200000D03*
X50800000Y-88900000D03*
X38100000Y-88900000D03*
X34450000Y-155000000D03*
X34450000Y-180000000D03*
X50800000Y-50800000D03*
X49800000Y-122800000D03*
X38100000Y-50800000D03*
X52200000Y-174600000D03*
X49800000Y-119600000D03*
X34450000Y-95000000D03*
X68200000Y-114100000D03*
X139700000Y-63500000D03*
X34450000Y-110000000D03*
X63500000Y-50800000D03*
X34450000Y-50000000D03*
X39800000Y-176000000D03*
X140000000Y-47775000D03*
X65000000Y-47775000D03*
X49900000Y-160200000D03*
X51800000Y-136600000D03*
X99200000Y-76200000D03*
X35000000Y-183300000D03*
X60900000Y-99500000D03*
X48000000Y-174600000D03*
X37112678Y-181770893D03*
X68900000Y-117850498D03*
X34450000Y-90000000D03*
X43300000Y-178900000D03*
X51200000Y-182000000D03*
X48639021Y-125277805D03*
X59400000Y-158200000D03*
X89400000Y-56600000D03*
X34450000Y-170000000D03*
X50800000Y-76200000D03*
X62300000Y-150700000D03*
X105000000Y-47775000D03*
X81100000Y-59900000D03*
X50000000Y-47775000D03*
X41900000Y-126300000D03*
X34450000Y-80000000D03*
X127000000Y-63500000D03*
X80000000Y-47775000D03*
X114300000Y-63500000D03*
X60300000Y-172100000D03*
X35000000Y-47775000D03*
X44200000Y-180700000D03*
X34450000Y-70000000D03*
X49800000Y-116400000D03*
X57600000Y-168700000D03*
X34450000Y-55000000D03*
X55000000Y-47775000D03*
X71900000Y-106800000D03*
X87500000Y-62800000D03*
X63800000Y-167400000D03*
X144625000Y-80000000D03*
X96100000Y-52200000D03*
X67300000Y-168800000D03*
X46026944Y-142373056D03*
X34450000Y-85000000D03*
X51800000Y-142400000D03*
X120000000Y-47775000D03*
X78300000Y-52400000D03*
X51200000Y-179600000D03*
X125000000Y-47775000D03*
X88900000Y-76200000D03*
X62500000Y-117225500D03*
%TO.N,+BATT*%
X61500000Y-164700000D03*
X59300000Y-164700000D03*
X57200000Y-174200000D03*
X43651000Y-152100000D03*
X53700000Y-167800000D03*
X44775000Y-123125000D03*
%TO.N,+3V3*%
X49900000Y-158600000D03*
X50500000Y-129200000D03*
X50500000Y-128100000D03*
X43400000Y-126300000D03*
X74700000Y-67500000D03*
X56625000Y-164775000D03*
X69800000Y-102300000D03*
X45400000Y-152800000D03*
X56000000Y-109700000D03*
X70400000Y-156300000D03*
%TO.N,EINK_VCC*%
X66000000Y-107500000D03*
X66400000Y-112300000D03*
%TO.N,I2C_DAT*%
X50038000Y-151638000D03*
X48100000Y-157400000D03*
%TO.N,EINK_SPI_MOSI*%
X56000000Y-116700000D03*
X56000000Y-135600000D03*
%TO.N,EINK_SPI_CLK*%
X53400000Y-114500000D03*
X53000000Y-135700000D03*
%TO.N,EINK_~CS*%
X54800000Y-115200000D03*
X54500000Y-135700000D03*
%TO.N,EINK_DC*%
X60100000Y-114200000D03*
X56900000Y-128700000D03*
%TO.N,EINK_STATE*%
X47100000Y-113500000D03*
X47100000Y-130200000D03*
%TO.N,SD_DAT0*%
X68005969Y-166100000D03*
X68000000Y-146400000D03*
%TO.N,SD_DAT1*%
X69700000Y-147400000D03*
X69562500Y-166062500D03*
%TO.N,SD_DAT2*%
X62900000Y-161800000D03*
X61900000Y-132000000D03*
%TO.N,EINK_VCC_~EN*%
X72100000Y-101400000D03*
X72100000Y-129700000D03*
%TO.N,SD_VCC_nEN*%
X59800000Y-150900000D03*
X57100000Y-150900000D03*
%TO.N,GPS_VCC_nEN*%
X52700000Y-100100000D03*
X50300000Y-133800000D03*
%TO.N,UART1_RX*%
X44600000Y-165000000D03*
X45200000Y-147200000D03*
%TO.N,UART1_TX*%
X42600000Y-147100000D03*
X42900000Y-165000000D03*
%TO.N,Net-(SW2-Pad1)*%
X45774500Y-135225500D03*
%TO.N,G_INT1*%
X46600000Y-154400000D03*
X47700000Y-146900000D03*
%TO.N,SD_nDET*%
X61100000Y-133800000D03*
X61100000Y-156200000D03*
X48500000Y-135100000D03*
X48600000Y-128400000D03*
%TO.N,+5V*%
X41970498Y-177000000D03*
X54600000Y-177000000D03*
X49800000Y-178300000D03*
X41474500Y-168424744D03*
X47800000Y-123400000D03*
%TO.N,ESP_~RST*%
X51000000Y-145300000D03*
X48000000Y-164900000D03*
%TO.N,SD_nCS*%
X65100000Y-167300000D03*
X65500000Y-145100000D03*
%TO.N,GPS_SUPPLY*%
X76700000Y-60400000D03*
X76700000Y-62600000D03*
X97400000Y-55100000D03*
X81000000Y-55200000D03*
%TO.N,Net-(R18-Pad2)*%
X72100000Y-148700000D03*
X72500000Y-182600000D03*
%TO.N,SD_CLK*%
X66700000Y-130700000D03*
X67300000Y-167300000D03*
%TO.N,SD_DAT3*%
X64500000Y-136100000D03*
X63950000Y-166050000D03*
%TO.N,Net-(J2-Pad19)*%
X65100000Y-112300000D03*
X65135000Y-102365000D03*
%TO.N,Net-(J2-Pad18)*%
X65000000Y-101095000D03*
X61637701Y-112537701D03*
%TO.N,Net-(Q5-Pad2)*%
X40000000Y-161800000D03*
X40000000Y-173600000D03*
%TO.N,Net-(Q4-Pad2)*%
X41150989Y-165425000D03*
X46200000Y-165100000D03*
%TO.N,I2C_CLK*%
X48100000Y-154300000D03*
X44300000Y-145900000D03*
%TO.N,UART_GPS_RX*%
X59800000Y-149700000D03*
X52325500Y-145700000D03*
%TO.N,UART_GPS_TX*%
X54300000Y-151100000D03*
X54200000Y-152600000D03*
%TD*%
%TA.AperFunction,Conductor*%
%TO.N,GND*%
G36*
X145109191Y-47218907D02*
G01*
X145145155Y-47268407D01*
X145150000Y-47299000D01*
X145150000Y-183651000D01*
X145131093Y-183709191D01*
X145081593Y-183745155D01*
X145051000Y-183750000D01*
X33949000Y-183750000D01*
X33890809Y-183731093D01*
X33854845Y-183681593D01*
X33850000Y-183651000D01*
X33850000Y-182600000D01*
X71894500Y-182600000D01*
X71915132Y-182756715D01*
X71975622Y-182902750D01*
X72071847Y-183028153D01*
X72197250Y-183124378D01*
X72343285Y-183184868D01*
X72500000Y-183205500D01*
X72656715Y-183184868D01*
X72802750Y-183124378D01*
X72928153Y-183028153D01*
X73024378Y-182902750D01*
X73084868Y-182756715D01*
X73105500Y-182600000D01*
X73084868Y-182443285D01*
X73024378Y-182297250D01*
X72928153Y-182171847D01*
X72802750Y-182075622D01*
X72656715Y-182015132D01*
X72500000Y-181994500D01*
X72343285Y-182015132D01*
X72197250Y-182075622D01*
X72071847Y-182171847D01*
X71975622Y-182297250D01*
X71915132Y-182443285D01*
X71894500Y-182600000D01*
X33850000Y-182600000D01*
X33850000Y-179914181D01*
X43049044Y-179914181D01*
X43087851Y-180043942D01*
X43163098Y-180156557D01*
X43168839Y-180161231D01*
X43262395Y-180237398D01*
X43262398Y-180237400D01*
X43268132Y-180242068D01*
X43393666Y-180292914D01*
X43528601Y-180304601D01*
X43595785Y-180290137D01*
X43653769Y-180277654D01*
X43653772Y-180277653D01*
X43661008Y-180276095D01*
X43730107Y-180237398D01*
X43772724Y-180213531D01*
X43779179Y-180209916D01*
X43872667Y-180111915D01*
X43933206Y-179990757D01*
X43945952Y-179914181D01*
X47049044Y-179914181D01*
X47087851Y-180043942D01*
X47163098Y-180156557D01*
X47168839Y-180161231D01*
X47262395Y-180237398D01*
X47262398Y-180237400D01*
X47268132Y-180242068D01*
X47393666Y-180292914D01*
X47528601Y-180304601D01*
X47595785Y-180290137D01*
X47653769Y-180277654D01*
X47653772Y-180277653D01*
X47661008Y-180276095D01*
X47730107Y-180237398D01*
X47772724Y-180213531D01*
X47779179Y-180209916D01*
X47872667Y-180111915D01*
X47933206Y-179990757D01*
X47955444Y-179857155D01*
X47955500Y-179850000D01*
X47944788Y-179778744D01*
X47936465Y-179723386D01*
X47936464Y-179723384D01*
X47935364Y-179716065D01*
X47876735Y-179593971D01*
X47784798Y-179494514D01*
X47667681Y-179426487D01*
X47660475Y-179424817D01*
X47660473Y-179424816D01*
X47623345Y-179416210D01*
X47535738Y-179395904D01*
X47400636Y-179405470D01*
X47356345Y-179422605D01*
X47281222Y-179451667D01*
X47281220Y-179451668D01*
X47274319Y-179454338D01*
X47167955Y-179538189D01*
X47090948Y-179649608D01*
X47050108Y-179778744D01*
X47049044Y-179914181D01*
X43945952Y-179914181D01*
X43955444Y-179857155D01*
X43955500Y-179850000D01*
X43944788Y-179778744D01*
X43936465Y-179723386D01*
X43936464Y-179723384D01*
X43935364Y-179716065D01*
X43876735Y-179593971D01*
X43784798Y-179494514D01*
X43667681Y-179426487D01*
X43660475Y-179424817D01*
X43660473Y-179424816D01*
X43623345Y-179416210D01*
X43535738Y-179395904D01*
X43400636Y-179405470D01*
X43356345Y-179422605D01*
X43281222Y-179451667D01*
X43281220Y-179451668D01*
X43274319Y-179454338D01*
X43167955Y-179538189D01*
X43090948Y-179649608D01*
X43050108Y-179778744D01*
X43049044Y-179914181D01*
X33850000Y-179914181D01*
X33850000Y-178300000D01*
X49194500Y-178300000D01*
X49215132Y-178456715D01*
X49275622Y-178602750D01*
X49371847Y-178728153D01*
X49497250Y-178824378D01*
X49643285Y-178884868D01*
X49800000Y-178905500D01*
X49956715Y-178884868D01*
X50102750Y-178824378D01*
X50228153Y-178728153D01*
X50324378Y-178602750D01*
X50384868Y-178456715D01*
X50405500Y-178300000D01*
X50384868Y-178143285D01*
X50324378Y-177997250D01*
X50228153Y-177871847D01*
X50102750Y-177775622D01*
X49956715Y-177715132D01*
X49800000Y-177694500D01*
X49643285Y-177715132D01*
X49497250Y-177775622D01*
X49371847Y-177871847D01*
X49275622Y-177997250D01*
X49215132Y-178143285D01*
X49194500Y-178300000D01*
X33850000Y-178300000D01*
X33850000Y-177000000D01*
X41364998Y-177000000D01*
X41385630Y-177156715D01*
X41446120Y-177302750D01*
X41542345Y-177428153D01*
X41667748Y-177524378D01*
X41813783Y-177584868D01*
X41970498Y-177605500D01*
X42127213Y-177584868D01*
X42273248Y-177524378D01*
X42398651Y-177428153D01*
X42494876Y-177302750D01*
X42555366Y-177156715D01*
X42575998Y-177000000D01*
X53994500Y-177000000D01*
X54015132Y-177156715D01*
X54075622Y-177302750D01*
X54171847Y-177428153D01*
X54297250Y-177524378D01*
X54443285Y-177584868D01*
X54600000Y-177605500D01*
X54756715Y-177584868D01*
X54902750Y-177524378D01*
X55028153Y-177428153D01*
X55124378Y-177302750D01*
X55184868Y-177156715D01*
X55205500Y-177000000D01*
X55184868Y-176843285D01*
X55124378Y-176697250D01*
X55028153Y-176571847D01*
X54902750Y-176475622D01*
X54756715Y-176415132D01*
X54600000Y-176394500D01*
X54443285Y-176415132D01*
X54297250Y-176475622D01*
X54171847Y-176571847D01*
X54075622Y-176697250D01*
X54015132Y-176843285D01*
X53994500Y-177000000D01*
X42575998Y-177000000D01*
X42555366Y-176843285D01*
X42494876Y-176697250D01*
X42398651Y-176571847D01*
X42273248Y-176475622D01*
X42127213Y-176415132D01*
X41970498Y-176394500D01*
X41813783Y-176415132D01*
X41667748Y-176475622D01*
X41542345Y-176571847D01*
X41446120Y-176697250D01*
X41385630Y-176843285D01*
X41364998Y-177000000D01*
X33850000Y-177000000D01*
X33850000Y-173600000D01*
X39394500Y-173600000D01*
X39415132Y-173756715D01*
X39475622Y-173902750D01*
X39571847Y-174028153D01*
X39697250Y-174124378D01*
X39843285Y-174184868D01*
X40000000Y-174205500D01*
X40041776Y-174200000D01*
X56594500Y-174200000D01*
X56615132Y-174356715D01*
X56675622Y-174502750D01*
X56771847Y-174628153D01*
X56897250Y-174724378D01*
X57043285Y-174784868D01*
X57200000Y-174805500D01*
X57356715Y-174784868D01*
X57502750Y-174724378D01*
X57628153Y-174628153D01*
X57724378Y-174502750D01*
X57784868Y-174356715D01*
X57805500Y-174200000D01*
X57784868Y-174043285D01*
X57724378Y-173897250D01*
X57628153Y-173771847D01*
X57502750Y-173675622D01*
X57356715Y-173615132D01*
X57200000Y-173594500D01*
X57043285Y-173615132D01*
X56897250Y-173675622D01*
X56771847Y-173771847D01*
X56675622Y-173897250D01*
X56615132Y-174043285D01*
X56594500Y-174200000D01*
X40041776Y-174200000D01*
X40156715Y-174184868D01*
X40302750Y-174124378D01*
X40428153Y-174028153D01*
X40524378Y-173902750D01*
X40584868Y-173756715D01*
X40605500Y-173600000D01*
X40584868Y-173443285D01*
X40524378Y-173297250D01*
X40428153Y-173171847D01*
X40302750Y-173075622D01*
X40156715Y-173015132D01*
X40000000Y-172994500D01*
X39843285Y-173015132D01*
X39697250Y-173075622D01*
X39571847Y-173171847D01*
X39475622Y-173297250D01*
X39415132Y-173443285D01*
X39394500Y-173600000D01*
X33850000Y-173600000D01*
X33850000Y-169400000D01*
X54000000Y-169400000D01*
X54000000Y-173000000D01*
X58900000Y-173000000D01*
X58900000Y-169400000D01*
X54000000Y-169400000D01*
X33850000Y-169400000D01*
X33850000Y-168424744D01*
X40869000Y-168424744D01*
X40889632Y-168581459D01*
X40950122Y-168727494D01*
X41046347Y-168852897D01*
X41171750Y-168949122D01*
X41317785Y-169009612D01*
X41474500Y-169030244D01*
X41631215Y-169009612D01*
X41777250Y-168949122D01*
X41902653Y-168852897D01*
X41998878Y-168727494D01*
X42059368Y-168581459D01*
X42080000Y-168424744D01*
X42059368Y-168268029D01*
X41998878Y-168121994D01*
X41902653Y-167996591D01*
X41777250Y-167900366D01*
X41631215Y-167839876D01*
X41474500Y-167819244D01*
X41317785Y-167839876D01*
X41171750Y-167900366D01*
X41046347Y-167996591D01*
X40950122Y-168121994D01*
X40889632Y-168268029D01*
X40869000Y-168424744D01*
X33850000Y-168424744D01*
X33850000Y-167800000D01*
X53094500Y-167800000D01*
X53115132Y-167956715D01*
X53175622Y-168102750D01*
X53271847Y-168228153D01*
X53397250Y-168324378D01*
X53543285Y-168384868D01*
X53700000Y-168405500D01*
X53856715Y-168384868D01*
X54002750Y-168324378D01*
X54128153Y-168228153D01*
X54224378Y-168102750D01*
X54284868Y-167956715D01*
X54305500Y-167800000D01*
X54284868Y-167643285D01*
X54224378Y-167497250D01*
X54128153Y-167371847D01*
X54034520Y-167300000D01*
X64494500Y-167300000D01*
X64515132Y-167456715D01*
X64575622Y-167602750D01*
X64671847Y-167728153D01*
X64797250Y-167824378D01*
X64943285Y-167884868D01*
X65100000Y-167905500D01*
X65256715Y-167884868D01*
X65402750Y-167824378D01*
X65528153Y-167728153D01*
X65624378Y-167602750D01*
X65684868Y-167456715D01*
X65705500Y-167300000D01*
X66694500Y-167300000D01*
X66715132Y-167456715D01*
X66775622Y-167602750D01*
X66871847Y-167728153D01*
X66997250Y-167824378D01*
X67143285Y-167884868D01*
X67300000Y-167905500D01*
X67456715Y-167884868D01*
X67602750Y-167824378D01*
X67728153Y-167728153D01*
X67824378Y-167602750D01*
X67884868Y-167456715D01*
X67905500Y-167300000D01*
X67884868Y-167143285D01*
X67824378Y-166997250D01*
X67728153Y-166871847D01*
X67653165Y-166814307D01*
X67618511Y-166763883D01*
X67618752Y-166754667D01*
X67589943Y-166763200D01*
X67554649Y-166755698D01*
X67462712Y-166717616D01*
X67456715Y-166715132D01*
X67300000Y-166694500D01*
X67143285Y-166715132D01*
X66997250Y-166775622D01*
X66871847Y-166871847D01*
X66775622Y-166997250D01*
X66715132Y-167143285D01*
X66694500Y-167300000D01*
X65705500Y-167300000D01*
X65684868Y-167143285D01*
X65624378Y-166997250D01*
X65528153Y-166871847D01*
X65402750Y-166775622D01*
X65256715Y-166715132D01*
X65100000Y-166694500D01*
X64943285Y-166715132D01*
X64797250Y-166775622D01*
X64671847Y-166871847D01*
X64575622Y-166997250D01*
X64515132Y-167143285D01*
X64494500Y-167300000D01*
X54034520Y-167300000D01*
X54002750Y-167275622D01*
X53856715Y-167215132D01*
X53700000Y-167194500D01*
X53543285Y-167215132D01*
X53397250Y-167275622D01*
X53271847Y-167371847D01*
X53175622Y-167497250D01*
X53115132Y-167643285D01*
X53094500Y-167800000D01*
X33850000Y-167800000D01*
X33850000Y-166050000D01*
X63344500Y-166050000D01*
X63365132Y-166206715D01*
X63425622Y-166352750D01*
X63521847Y-166478153D01*
X63647250Y-166574378D01*
X63793285Y-166634868D01*
X63950000Y-166655500D01*
X64106715Y-166634868D01*
X64252750Y-166574378D01*
X64378153Y-166478153D01*
X64474378Y-166352750D01*
X64534868Y-166206715D01*
X64548917Y-166100000D01*
X67400469Y-166100000D01*
X67421101Y-166256715D01*
X67481591Y-166402750D01*
X67577816Y-166528153D01*
X67652804Y-166585693D01*
X67687458Y-166636117D01*
X67687217Y-166645333D01*
X67716026Y-166636800D01*
X67751319Y-166644302D01*
X67849254Y-166684868D01*
X68005969Y-166705500D01*
X68162684Y-166684868D01*
X68308719Y-166624378D01*
X68434122Y-166528153D01*
X68530347Y-166402750D01*
X68590837Y-166256715D01*
X68611469Y-166100000D01*
X68606532Y-166062500D01*
X68957000Y-166062500D01*
X68977632Y-166219215D01*
X69038122Y-166365250D01*
X69134347Y-166490653D01*
X69259750Y-166586878D01*
X69405785Y-166647368D01*
X69562500Y-166668000D01*
X69719215Y-166647368D01*
X69865250Y-166586878D01*
X69990653Y-166490653D01*
X70086878Y-166365250D01*
X70147368Y-166219215D01*
X70168000Y-166062500D01*
X70147368Y-165905785D01*
X70086878Y-165759750D01*
X69990653Y-165634347D01*
X69865250Y-165538122D01*
X69719215Y-165477632D01*
X69562500Y-165457000D01*
X69405785Y-165477632D01*
X69259750Y-165538122D01*
X69134347Y-165634347D01*
X69038122Y-165759750D01*
X68977632Y-165905785D01*
X68957000Y-166062500D01*
X68606532Y-166062500D01*
X68590837Y-165943285D01*
X68530347Y-165797250D01*
X68434122Y-165671847D01*
X68308719Y-165575622D01*
X68162684Y-165515132D01*
X68005969Y-165494500D01*
X67849254Y-165515132D01*
X67703219Y-165575622D01*
X67577816Y-165671847D01*
X67481591Y-165797250D01*
X67421101Y-165943285D01*
X67400469Y-166100000D01*
X64548917Y-166100000D01*
X64555500Y-166050000D01*
X64534868Y-165893285D01*
X64474378Y-165747250D01*
X64378153Y-165621847D01*
X64252750Y-165525622D01*
X64106715Y-165465132D01*
X63950000Y-165444500D01*
X63793285Y-165465132D01*
X63647250Y-165525622D01*
X63521847Y-165621847D01*
X63425622Y-165747250D01*
X63365132Y-165893285D01*
X63344500Y-166050000D01*
X33850000Y-166050000D01*
X33850000Y-165425000D01*
X40545489Y-165425000D01*
X40566121Y-165581715D01*
X40626611Y-165727750D01*
X40722836Y-165853153D01*
X40848239Y-165949378D01*
X40994274Y-166009868D01*
X41150989Y-166030500D01*
X41307704Y-166009868D01*
X41453739Y-165949378D01*
X41579142Y-165853153D01*
X41675367Y-165727750D01*
X41735857Y-165581715D01*
X41756489Y-165425000D01*
X41735857Y-165268285D01*
X41675367Y-165122250D01*
X41581561Y-165000000D01*
X42294500Y-165000000D01*
X42315132Y-165156715D01*
X42375622Y-165302750D01*
X42471847Y-165428153D01*
X42597250Y-165524378D01*
X42743285Y-165584868D01*
X42900000Y-165605500D01*
X43056715Y-165584868D01*
X43202750Y-165524378D01*
X43328153Y-165428153D01*
X43424378Y-165302750D01*
X43484868Y-165156715D01*
X43505500Y-165000000D01*
X43994500Y-165000000D01*
X44015132Y-165156715D01*
X44075622Y-165302750D01*
X44171847Y-165428153D01*
X44297250Y-165524378D01*
X44443285Y-165584868D01*
X44600000Y-165605500D01*
X44756715Y-165584868D01*
X44902750Y-165524378D01*
X45028153Y-165428153D01*
X45124378Y-165302750D01*
X45184868Y-165156715D01*
X45192335Y-165100000D01*
X45594500Y-165100000D01*
X45615132Y-165256715D01*
X45617616Y-165262712D01*
X45626793Y-165284868D01*
X45675622Y-165402750D01*
X45771847Y-165528153D01*
X45897250Y-165624378D01*
X46043285Y-165684868D01*
X46200000Y-165705500D01*
X46356715Y-165684868D01*
X46502750Y-165624378D01*
X46628153Y-165528153D01*
X46724378Y-165402750D01*
X46773207Y-165284868D01*
X46782384Y-165262712D01*
X46784868Y-165256715D01*
X46805500Y-165100000D01*
X46784868Y-164943285D01*
X46766939Y-164900000D01*
X47394500Y-164900000D01*
X47415132Y-165056715D01*
X47475622Y-165202750D01*
X47571847Y-165328153D01*
X47697250Y-165424378D01*
X47843285Y-165484868D01*
X48000000Y-165505500D01*
X48156715Y-165484868D01*
X48302750Y-165424378D01*
X48428153Y-165328153D01*
X48524378Y-165202750D01*
X48584868Y-165056715D01*
X48605500Y-164900000D01*
X48584868Y-164743285D01*
X48524378Y-164597250D01*
X48428153Y-164471847D01*
X48302750Y-164375622D01*
X48156715Y-164315132D01*
X48000000Y-164294500D01*
X47843285Y-164315132D01*
X47697250Y-164375622D01*
X47571847Y-164471847D01*
X47475622Y-164597250D01*
X47415132Y-164743285D01*
X47394500Y-164900000D01*
X46766939Y-164900000D01*
X46724378Y-164797250D01*
X46628153Y-164671847D01*
X46502750Y-164575622D01*
X46356715Y-164515132D01*
X46200000Y-164494500D01*
X46043285Y-164515132D01*
X45897250Y-164575622D01*
X45771847Y-164671847D01*
X45675622Y-164797250D01*
X45615132Y-164943285D01*
X45594500Y-165100000D01*
X45192335Y-165100000D01*
X45205500Y-165000000D01*
X45184868Y-164843285D01*
X45124378Y-164697250D01*
X45028153Y-164571847D01*
X44902750Y-164475622D01*
X44756715Y-164415132D01*
X44600000Y-164394500D01*
X44443285Y-164415132D01*
X44297250Y-164475622D01*
X44171847Y-164571847D01*
X44075622Y-164697250D01*
X44015132Y-164843285D01*
X43994500Y-165000000D01*
X43505500Y-165000000D01*
X43484868Y-164843285D01*
X43424378Y-164697250D01*
X43328153Y-164571847D01*
X43202750Y-164475622D01*
X43056715Y-164415132D01*
X42900000Y-164394500D01*
X42743285Y-164415132D01*
X42597250Y-164475622D01*
X42471847Y-164571847D01*
X42375622Y-164697250D01*
X42315132Y-164843285D01*
X42294500Y-165000000D01*
X41581561Y-165000000D01*
X41579142Y-164996847D01*
X41453739Y-164900622D01*
X41307704Y-164840132D01*
X41150989Y-164819500D01*
X40994274Y-164840132D01*
X40848239Y-164900622D01*
X40722836Y-164996847D01*
X40626611Y-165122250D01*
X40566121Y-165268285D01*
X40545489Y-165425000D01*
X33850000Y-165425000D01*
X33850000Y-161800000D01*
X39394500Y-161800000D01*
X39415132Y-161956715D01*
X39475622Y-162102750D01*
X39571847Y-162228153D01*
X39697250Y-162324378D01*
X39843285Y-162384868D01*
X40000000Y-162405500D01*
X40156715Y-162384868D01*
X40302750Y-162324378D01*
X40428153Y-162228153D01*
X40524378Y-162102750D01*
X40584868Y-161956715D01*
X40605500Y-161800000D01*
X40584868Y-161643285D01*
X40524378Y-161497250D01*
X40428153Y-161371847D01*
X40302750Y-161275622D01*
X40156715Y-161215132D01*
X40000000Y-161194500D01*
X39843285Y-161215132D01*
X39697250Y-161275622D01*
X39571847Y-161371847D01*
X39475622Y-161497250D01*
X39415132Y-161643285D01*
X39394500Y-161800000D01*
X33850000Y-161800000D01*
X33850000Y-159900000D01*
X53400000Y-159900000D01*
X53400000Y-164000000D01*
X56429597Y-164000000D01*
X56487788Y-164018907D01*
X56523752Y-164068407D01*
X56523752Y-164129593D01*
X56487788Y-164179093D01*
X56467483Y-164190464D01*
X56322250Y-164250622D01*
X56196847Y-164346847D01*
X56100622Y-164472250D01*
X56040132Y-164618285D01*
X56019500Y-164775000D01*
X56040132Y-164931715D01*
X56100622Y-165077750D01*
X56196847Y-165203153D01*
X56322250Y-165299378D01*
X56468285Y-165359868D01*
X56625000Y-165380500D01*
X56781715Y-165359868D01*
X56927750Y-165299378D01*
X57053153Y-165203153D01*
X57149378Y-165077750D01*
X57209868Y-164931715D01*
X57230500Y-164775000D01*
X57220626Y-164700000D01*
X58694500Y-164700000D01*
X58715132Y-164856715D01*
X58775622Y-165002750D01*
X58871847Y-165128153D01*
X58997250Y-165224378D01*
X59143285Y-165284868D01*
X59300000Y-165305500D01*
X59456715Y-165284868D01*
X59602750Y-165224378D01*
X59728153Y-165128153D01*
X59824378Y-165002750D01*
X59884868Y-164856715D01*
X59905500Y-164700000D01*
X60894500Y-164700000D01*
X60915132Y-164856715D01*
X60975622Y-165002750D01*
X61071847Y-165128153D01*
X61197250Y-165224378D01*
X61343285Y-165284868D01*
X61500000Y-165305500D01*
X61656715Y-165284868D01*
X61802750Y-165224378D01*
X61928153Y-165128153D01*
X62024378Y-165002750D01*
X62084868Y-164856715D01*
X62105500Y-164700000D01*
X62084868Y-164543285D01*
X62074236Y-164517616D01*
X62026861Y-164403245D01*
X62024378Y-164397250D01*
X61928153Y-164271847D01*
X61802750Y-164175622D01*
X61656715Y-164115132D01*
X61500000Y-164094500D01*
X61343285Y-164115132D01*
X61197250Y-164175622D01*
X61071847Y-164271847D01*
X60975622Y-164397250D01*
X60973139Y-164403245D01*
X60925765Y-164517616D01*
X60915132Y-164543285D01*
X60894500Y-164700000D01*
X59905500Y-164700000D01*
X59884868Y-164543285D01*
X59874236Y-164517616D01*
X59826861Y-164403245D01*
X59824378Y-164397250D01*
X59728153Y-164271847D01*
X59602750Y-164175622D01*
X59456715Y-164115132D01*
X59300000Y-164094500D01*
X59143285Y-164115132D01*
X58997250Y-164175622D01*
X58871847Y-164271847D01*
X58775622Y-164397250D01*
X58773139Y-164403245D01*
X58725765Y-164517616D01*
X58715132Y-164543285D01*
X58694500Y-164700000D01*
X57220626Y-164700000D01*
X57209868Y-164618285D01*
X57149378Y-164472250D01*
X57053153Y-164346847D01*
X56927750Y-164250622D01*
X56782517Y-164190464D01*
X56735991Y-164150727D01*
X56721708Y-164091232D01*
X56745123Y-164034704D01*
X56797292Y-164002735D01*
X56820403Y-164000000D01*
X58300000Y-164000000D01*
X58300000Y-161800000D01*
X62294500Y-161800000D01*
X62315132Y-161956715D01*
X62375622Y-162102750D01*
X62471847Y-162228153D01*
X62597250Y-162324378D01*
X62743285Y-162384868D01*
X62900000Y-162405500D01*
X63056715Y-162384868D01*
X63202750Y-162324378D01*
X63328153Y-162228153D01*
X63424378Y-162102750D01*
X63484868Y-161956715D01*
X63505500Y-161800000D01*
X63484868Y-161643285D01*
X63424378Y-161497250D01*
X63328153Y-161371847D01*
X63202750Y-161275622D01*
X63056715Y-161215132D01*
X62900000Y-161194500D01*
X62743285Y-161215132D01*
X62597250Y-161275622D01*
X62471847Y-161371847D01*
X62375622Y-161497250D01*
X62315132Y-161643285D01*
X62294500Y-161800000D01*
X58300000Y-161800000D01*
X58300000Y-159900000D01*
X53400000Y-159900000D01*
X33850000Y-159900000D01*
X33850000Y-158600000D01*
X49294500Y-158600000D01*
X49315132Y-158756715D01*
X49375622Y-158902750D01*
X49471847Y-159028153D01*
X49597250Y-159124378D01*
X49743285Y-159184868D01*
X49900000Y-159205500D01*
X50056715Y-159184868D01*
X50202750Y-159124378D01*
X50328153Y-159028153D01*
X50424378Y-158902750D01*
X50484868Y-158756715D01*
X50505500Y-158600000D01*
X50484868Y-158443285D01*
X50424378Y-158297250D01*
X50328153Y-158171847D01*
X50202750Y-158075622D01*
X50056715Y-158015132D01*
X49900000Y-157994500D01*
X49743285Y-158015132D01*
X49597250Y-158075622D01*
X49471847Y-158171847D01*
X49375622Y-158297250D01*
X49315132Y-158443285D01*
X49294500Y-158600000D01*
X33850000Y-158600000D01*
X33850000Y-157400000D01*
X47494500Y-157400000D01*
X47515132Y-157556715D01*
X47575622Y-157702750D01*
X47671847Y-157828153D01*
X47797250Y-157924378D01*
X47943285Y-157984868D01*
X48100000Y-158005500D01*
X48256715Y-157984868D01*
X48402750Y-157924378D01*
X48528153Y-157828153D01*
X48624378Y-157702750D01*
X48684868Y-157556715D01*
X48705500Y-157400000D01*
X48684868Y-157243285D01*
X48624378Y-157097250D01*
X48528153Y-156971847D01*
X48402750Y-156875622D01*
X48256715Y-156815132D01*
X48100000Y-156794500D01*
X47943285Y-156815132D01*
X47797250Y-156875622D01*
X47671847Y-156971847D01*
X47575622Y-157097250D01*
X47515132Y-157243285D01*
X47494500Y-157400000D01*
X33850000Y-157400000D01*
X33850000Y-156200000D01*
X60494500Y-156200000D01*
X60515132Y-156356715D01*
X60575622Y-156502750D01*
X60671847Y-156628153D01*
X60797250Y-156724378D01*
X60943285Y-156784868D01*
X61100000Y-156805500D01*
X61256715Y-156784868D01*
X61402750Y-156724378D01*
X61528153Y-156628153D01*
X61624378Y-156502750D01*
X61684868Y-156356715D01*
X61692335Y-156300000D01*
X69794500Y-156300000D01*
X69815132Y-156456715D01*
X69875622Y-156602750D01*
X69971847Y-156728153D01*
X70097250Y-156824378D01*
X70243285Y-156884868D01*
X70400000Y-156905500D01*
X70556715Y-156884868D01*
X70702750Y-156824378D01*
X70828153Y-156728153D01*
X70924378Y-156602750D01*
X70984868Y-156456715D01*
X71005500Y-156300000D01*
X70984868Y-156143285D01*
X70924378Y-155997250D01*
X70828153Y-155871847D01*
X70702750Y-155775622D01*
X70556715Y-155715132D01*
X70400000Y-155694500D01*
X70243285Y-155715132D01*
X70097250Y-155775622D01*
X69971847Y-155871847D01*
X69875622Y-155997250D01*
X69815132Y-156143285D01*
X69794500Y-156300000D01*
X61692335Y-156300000D01*
X61705500Y-156200000D01*
X61684868Y-156043285D01*
X61624378Y-155897250D01*
X61528153Y-155771847D01*
X61402750Y-155675622D01*
X61256715Y-155615132D01*
X61100000Y-155594500D01*
X60943285Y-155615132D01*
X60797250Y-155675622D01*
X60671847Y-155771847D01*
X60575622Y-155897250D01*
X60515132Y-156043285D01*
X60494500Y-156200000D01*
X33850000Y-156200000D01*
X33850000Y-154699000D01*
X33868907Y-154640809D01*
X33918407Y-154604845D01*
X33949000Y-154600000D01*
X40800000Y-154600000D01*
X40800000Y-154400000D01*
X45994500Y-154400000D01*
X46015132Y-154556715D01*
X46075622Y-154702750D01*
X46171847Y-154828153D01*
X46297250Y-154924378D01*
X46443285Y-154984868D01*
X46600000Y-155005500D01*
X46756715Y-154984868D01*
X46902750Y-154924378D01*
X47028153Y-154828153D01*
X47124378Y-154702750D01*
X47184868Y-154556715D01*
X47205500Y-154400000D01*
X47192335Y-154300000D01*
X47494500Y-154300000D01*
X47515132Y-154456715D01*
X47575622Y-154602750D01*
X47671847Y-154728153D01*
X47797250Y-154824378D01*
X47943285Y-154884868D01*
X48100000Y-154905500D01*
X48256715Y-154884868D01*
X48402750Y-154824378D01*
X48528153Y-154728153D01*
X48624378Y-154602750D01*
X48684868Y-154456715D01*
X48705500Y-154300000D01*
X48684868Y-154143285D01*
X48624378Y-153997250D01*
X48528153Y-153871847D01*
X48402750Y-153775622D01*
X48256715Y-153715132D01*
X48100000Y-153694500D01*
X47943285Y-153715132D01*
X47797250Y-153775622D01*
X47671847Y-153871847D01*
X47575622Y-153997250D01*
X47515132Y-154143285D01*
X47494500Y-154300000D01*
X47192335Y-154300000D01*
X47184868Y-154243285D01*
X47124378Y-154097250D01*
X47028153Y-153971847D01*
X46902750Y-153875622D01*
X46756715Y-153815132D01*
X46600000Y-153794500D01*
X46443285Y-153815132D01*
X46297250Y-153875622D01*
X46171847Y-153971847D01*
X46075622Y-154097250D01*
X46015132Y-154243285D01*
X45994500Y-154400000D01*
X40800000Y-154400000D01*
X40800000Y-152800000D01*
X44794500Y-152800000D01*
X44815132Y-152956715D01*
X44875622Y-153102750D01*
X44971847Y-153228153D01*
X45097250Y-153324378D01*
X45243285Y-153384868D01*
X45400000Y-153405500D01*
X45556715Y-153384868D01*
X45702750Y-153324378D01*
X45828153Y-153228153D01*
X45924378Y-153102750D01*
X45984868Y-152956715D01*
X46005500Y-152800000D01*
X45984868Y-152643285D01*
X45966939Y-152600000D01*
X53594500Y-152600000D01*
X53615132Y-152756715D01*
X53675622Y-152902750D01*
X53771847Y-153028153D01*
X53897250Y-153124378D01*
X54043285Y-153184868D01*
X54200000Y-153205500D01*
X54356715Y-153184868D01*
X54502750Y-153124378D01*
X54628153Y-153028153D01*
X54724378Y-152902750D01*
X54784868Y-152756715D01*
X54805500Y-152600000D01*
X54784868Y-152443285D01*
X54724378Y-152297250D01*
X54628153Y-152171847D01*
X54502750Y-152075622D01*
X54356715Y-152015132D01*
X54200000Y-151994500D01*
X54043285Y-152015132D01*
X53897250Y-152075622D01*
X53771847Y-152171847D01*
X53675622Y-152297250D01*
X53615132Y-152443285D01*
X53594500Y-152600000D01*
X45966939Y-152600000D01*
X45924378Y-152497250D01*
X45828153Y-152371847D01*
X45702750Y-152275622D01*
X45556715Y-152215132D01*
X45400000Y-152194500D01*
X45243285Y-152215132D01*
X45097250Y-152275622D01*
X44971847Y-152371847D01*
X44875622Y-152497250D01*
X44815132Y-152643285D01*
X44794500Y-152800000D01*
X40800000Y-152800000D01*
X40800000Y-152100000D01*
X43045500Y-152100000D01*
X43066132Y-152256715D01*
X43126622Y-152402750D01*
X43222847Y-152528153D01*
X43348250Y-152624378D01*
X43494285Y-152684868D01*
X43651000Y-152705500D01*
X43807715Y-152684868D01*
X43953750Y-152624378D01*
X44079153Y-152528153D01*
X44175378Y-152402750D01*
X44235868Y-152256715D01*
X44256500Y-152100000D01*
X44235868Y-151943285D01*
X44175378Y-151797250D01*
X44079153Y-151671847D01*
X44035043Y-151638000D01*
X49432500Y-151638000D01*
X49453132Y-151794715D01*
X49513622Y-151940750D01*
X49609847Y-152066153D01*
X49735250Y-152162378D01*
X49881285Y-152222868D01*
X50038000Y-152243500D01*
X50194715Y-152222868D01*
X50340750Y-152162378D01*
X50466153Y-152066153D01*
X50562378Y-151940750D01*
X50622868Y-151794715D01*
X50643500Y-151638000D01*
X50622868Y-151481285D01*
X50562378Y-151335250D01*
X50466153Y-151209847D01*
X50340750Y-151113622D01*
X50307864Y-151100000D01*
X53694500Y-151100000D01*
X53715132Y-151256715D01*
X53775622Y-151402750D01*
X53871847Y-151528153D01*
X53997250Y-151624378D01*
X54143285Y-151684868D01*
X54300000Y-151705500D01*
X54456715Y-151684868D01*
X54602750Y-151624378D01*
X54728153Y-151528153D01*
X54824378Y-151402750D01*
X54884868Y-151256715D01*
X54905500Y-151100000D01*
X54884868Y-150943285D01*
X54866939Y-150900000D01*
X56494500Y-150900000D01*
X56515132Y-151056715D01*
X56575622Y-151202750D01*
X56671847Y-151328153D01*
X56797250Y-151424378D01*
X56943285Y-151484868D01*
X57100000Y-151505500D01*
X57256715Y-151484868D01*
X57402750Y-151424378D01*
X57528153Y-151328153D01*
X57624378Y-151202750D01*
X57684868Y-151056715D01*
X57705500Y-150900000D01*
X57684868Y-150743285D01*
X57624378Y-150597250D01*
X57528153Y-150471847D01*
X57402750Y-150375622D01*
X57256715Y-150315132D01*
X57100000Y-150294500D01*
X56943285Y-150315132D01*
X56797250Y-150375622D01*
X56671847Y-150471847D01*
X56575622Y-150597250D01*
X56515132Y-150743285D01*
X56494500Y-150900000D01*
X54866939Y-150900000D01*
X54824378Y-150797250D01*
X54728153Y-150671847D01*
X54602750Y-150575622D01*
X54456715Y-150515132D01*
X54300000Y-150494500D01*
X54143285Y-150515132D01*
X53997250Y-150575622D01*
X53871847Y-150671847D01*
X53775622Y-150797250D01*
X53715132Y-150943285D01*
X53694500Y-151100000D01*
X50307864Y-151100000D01*
X50194715Y-151053132D01*
X50038000Y-151032500D01*
X49881285Y-151053132D01*
X49735250Y-151113622D01*
X49609847Y-151209847D01*
X49513622Y-151335250D01*
X49453132Y-151481285D01*
X49432500Y-151638000D01*
X44035043Y-151638000D01*
X43953750Y-151575622D01*
X43807715Y-151515132D01*
X43651000Y-151494500D01*
X43494285Y-151515132D01*
X43348250Y-151575622D01*
X43222847Y-151671847D01*
X43126622Y-151797250D01*
X43066132Y-151943285D01*
X43045500Y-152100000D01*
X40800000Y-152100000D01*
X40800000Y-149700000D01*
X59194500Y-149700000D01*
X59215132Y-149856715D01*
X59275622Y-150002750D01*
X59371847Y-150128153D01*
X59377000Y-150132107D01*
X59493445Y-150221458D01*
X59528101Y-150271882D01*
X59526500Y-150333047D01*
X59493446Y-150378541D01*
X59371847Y-150471847D01*
X59275622Y-150597250D01*
X59215132Y-150743285D01*
X59194500Y-150900000D01*
X59215132Y-151056715D01*
X59275622Y-151202750D01*
X59371847Y-151328153D01*
X59497250Y-151424378D01*
X59643285Y-151484868D01*
X59800000Y-151505500D01*
X59956715Y-151484868D01*
X60102750Y-151424378D01*
X60228153Y-151328153D01*
X60324378Y-151202750D01*
X60384868Y-151056715D01*
X60405500Y-150900000D01*
X60384868Y-150743285D01*
X60324378Y-150597250D01*
X60228153Y-150471847D01*
X60106555Y-150378541D01*
X60071899Y-150328118D01*
X60073500Y-150266953D01*
X60106555Y-150221458D01*
X60223000Y-150132107D01*
X60228153Y-150128153D01*
X60324378Y-150002750D01*
X60384868Y-149856715D01*
X60405500Y-149700000D01*
X60384868Y-149543285D01*
X60324378Y-149397250D01*
X60228153Y-149271847D01*
X60102750Y-149175622D01*
X59956715Y-149115132D01*
X59800000Y-149094500D01*
X59643285Y-149115132D01*
X59497250Y-149175622D01*
X59371847Y-149271847D01*
X59275622Y-149397250D01*
X59215132Y-149543285D01*
X59194500Y-149700000D01*
X40800000Y-149700000D01*
X40800000Y-148700000D01*
X71494500Y-148700000D01*
X71515132Y-148856715D01*
X71575622Y-149002750D01*
X71671847Y-149128153D01*
X71797250Y-149224378D01*
X71943285Y-149284868D01*
X72100000Y-149305500D01*
X72256715Y-149284868D01*
X72402750Y-149224378D01*
X72528153Y-149128153D01*
X72624378Y-149002750D01*
X72684868Y-148856715D01*
X72705500Y-148700000D01*
X72684868Y-148543285D01*
X72624378Y-148397250D01*
X72528153Y-148271847D01*
X72402750Y-148175622D01*
X72256715Y-148115132D01*
X72100000Y-148094500D01*
X71943285Y-148115132D01*
X71797250Y-148175622D01*
X71671847Y-148271847D01*
X71575622Y-148397250D01*
X71515132Y-148543285D01*
X71494500Y-148700000D01*
X40800000Y-148700000D01*
X40800000Y-147100000D01*
X41994500Y-147100000D01*
X42015132Y-147256715D01*
X42075622Y-147402750D01*
X42171847Y-147528153D01*
X42297250Y-147624378D01*
X42443285Y-147684868D01*
X42600000Y-147705500D01*
X42756715Y-147684868D01*
X42902750Y-147624378D01*
X43028153Y-147528153D01*
X43124378Y-147402750D01*
X43184868Y-147256715D01*
X43192335Y-147200000D01*
X44594500Y-147200000D01*
X44615132Y-147356715D01*
X44675622Y-147502750D01*
X44771847Y-147628153D01*
X44897250Y-147724378D01*
X45043285Y-147784868D01*
X45200000Y-147805500D01*
X45356715Y-147784868D01*
X45502750Y-147724378D01*
X45628153Y-147628153D01*
X45724378Y-147502750D01*
X45784868Y-147356715D01*
X45805500Y-147200000D01*
X45784868Y-147043285D01*
X45725517Y-146900000D01*
X47094500Y-146900000D01*
X47115132Y-147056715D01*
X47175622Y-147202750D01*
X47271847Y-147328153D01*
X47397250Y-147424378D01*
X47543285Y-147484868D01*
X47700000Y-147505500D01*
X47856715Y-147484868D01*
X48002750Y-147424378D01*
X48034520Y-147400000D01*
X69094500Y-147400000D01*
X69115132Y-147556715D01*
X69175622Y-147702750D01*
X69271847Y-147828153D01*
X69397250Y-147924378D01*
X69543285Y-147984868D01*
X69700000Y-148005500D01*
X69856715Y-147984868D01*
X70002750Y-147924378D01*
X70128153Y-147828153D01*
X70224378Y-147702750D01*
X70284868Y-147556715D01*
X70305500Y-147400000D01*
X70284868Y-147243285D01*
X70224378Y-147097250D01*
X70128153Y-146971847D01*
X70002750Y-146875622D01*
X69856715Y-146815132D01*
X69700000Y-146794500D01*
X69543285Y-146815132D01*
X69397250Y-146875622D01*
X69271847Y-146971847D01*
X69175622Y-147097250D01*
X69115132Y-147243285D01*
X69094500Y-147400000D01*
X48034520Y-147400000D01*
X48128153Y-147328153D01*
X48224378Y-147202750D01*
X48284868Y-147056715D01*
X48305500Y-146900000D01*
X48284868Y-146743285D01*
X48224378Y-146597250D01*
X48128153Y-146471847D01*
X48034520Y-146400000D01*
X67394500Y-146400000D01*
X67415132Y-146556715D01*
X67475622Y-146702750D01*
X67571847Y-146828153D01*
X67697250Y-146924378D01*
X67843285Y-146984868D01*
X68000000Y-147005500D01*
X68156715Y-146984868D01*
X68302750Y-146924378D01*
X68428153Y-146828153D01*
X68524378Y-146702750D01*
X68584868Y-146556715D01*
X68605500Y-146400000D01*
X68584868Y-146243285D01*
X68524378Y-146097250D01*
X68428153Y-145971847D01*
X68302750Y-145875622D01*
X68156715Y-145815132D01*
X68000000Y-145794500D01*
X67843285Y-145815132D01*
X67697250Y-145875622D01*
X67571847Y-145971847D01*
X67475622Y-146097250D01*
X67415132Y-146243285D01*
X67394500Y-146400000D01*
X48034520Y-146400000D01*
X48002750Y-146375622D01*
X47856715Y-146315132D01*
X47700000Y-146294500D01*
X47543285Y-146315132D01*
X47397250Y-146375622D01*
X47271847Y-146471847D01*
X47175622Y-146597250D01*
X47115132Y-146743285D01*
X47094500Y-146900000D01*
X45725517Y-146900000D01*
X45724378Y-146897250D01*
X45628153Y-146771847D01*
X45502750Y-146675622D01*
X45356715Y-146615132D01*
X45200000Y-146594500D01*
X45043285Y-146615132D01*
X44897250Y-146675622D01*
X44771847Y-146771847D01*
X44675622Y-146897250D01*
X44615132Y-147043285D01*
X44594500Y-147200000D01*
X43192335Y-147200000D01*
X43205500Y-147100000D01*
X43184868Y-146943285D01*
X43124378Y-146797250D01*
X43028153Y-146671847D01*
X42902750Y-146575622D01*
X42756715Y-146515132D01*
X42600000Y-146494500D01*
X42443285Y-146515132D01*
X42297250Y-146575622D01*
X42171847Y-146671847D01*
X42075622Y-146797250D01*
X42015132Y-146943285D01*
X41994500Y-147100000D01*
X40800000Y-147100000D01*
X40800000Y-145900000D01*
X43694500Y-145900000D01*
X43715132Y-146056715D01*
X43775622Y-146202750D01*
X43871847Y-146328153D01*
X43997250Y-146424378D01*
X44143285Y-146484868D01*
X44300000Y-146505500D01*
X44456715Y-146484868D01*
X44602750Y-146424378D01*
X44728153Y-146328153D01*
X44824378Y-146202750D01*
X44884868Y-146056715D01*
X44905500Y-145900000D01*
X44884868Y-145743285D01*
X44824378Y-145597250D01*
X44728153Y-145471847D01*
X44602750Y-145375622D01*
X44456715Y-145315132D01*
X44341776Y-145300000D01*
X50394500Y-145300000D01*
X50415132Y-145456715D01*
X50475622Y-145602750D01*
X50571847Y-145728153D01*
X50697250Y-145824378D01*
X50843285Y-145884868D01*
X51000000Y-145905500D01*
X51156715Y-145884868D01*
X51302750Y-145824378D01*
X51428153Y-145728153D01*
X51524378Y-145602750D01*
X51542144Y-145559860D01*
X51581881Y-145513334D01*
X51641376Y-145499051D01*
X51697904Y-145522466D01*
X51729873Y-145574636D01*
X51731761Y-145610667D01*
X51720000Y-145700000D01*
X51740632Y-145856715D01*
X51743116Y-145862712D01*
X51752293Y-145884868D01*
X51801122Y-146002750D01*
X51897347Y-146128153D01*
X52022750Y-146224378D01*
X52168785Y-146284868D01*
X52325500Y-146305500D01*
X52482215Y-146284868D01*
X52628250Y-146224378D01*
X52753653Y-146128153D01*
X52849878Y-146002750D01*
X52898707Y-145884868D01*
X52907884Y-145862712D01*
X52910368Y-145856715D01*
X52931000Y-145700000D01*
X52910368Y-145543285D01*
X52849878Y-145397250D01*
X52753653Y-145271847D01*
X52628250Y-145175622D01*
X52482215Y-145115132D01*
X52367276Y-145100000D01*
X64894500Y-145100000D01*
X64915132Y-145256715D01*
X64975622Y-145402750D01*
X65071847Y-145528153D01*
X65197250Y-145624378D01*
X65343285Y-145684868D01*
X65500000Y-145705500D01*
X65656715Y-145684868D01*
X65802750Y-145624378D01*
X65928153Y-145528153D01*
X66024378Y-145402750D01*
X66084868Y-145256715D01*
X66105500Y-145100000D01*
X66084868Y-144943285D01*
X66024378Y-144797250D01*
X65928153Y-144671847D01*
X65802750Y-144575622D01*
X65656715Y-144515132D01*
X65500000Y-144494500D01*
X65343285Y-144515132D01*
X65197250Y-144575622D01*
X65071847Y-144671847D01*
X64975622Y-144797250D01*
X64915132Y-144943285D01*
X64894500Y-145100000D01*
X52367276Y-145100000D01*
X52325500Y-145094500D01*
X52168785Y-145115132D01*
X52022750Y-145175622D01*
X51897347Y-145271847D01*
X51801122Y-145397250D01*
X51798639Y-145403245D01*
X51783356Y-145440140D01*
X51743619Y-145486666D01*
X51684124Y-145500949D01*
X51627596Y-145477534D01*
X51595627Y-145425364D01*
X51593739Y-145389332D01*
X51604653Y-145306433D01*
X51605500Y-145300000D01*
X51584868Y-145143285D01*
X51574236Y-145117616D01*
X51526861Y-145003245D01*
X51524378Y-144997250D01*
X51428153Y-144871847D01*
X51302750Y-144775622D01*
X51156715Y-144715132D01*
X51000000Y-144694500D01*
X50843285Y-144715132D01*
X50697250Y-144775622D01*
X50571847Y-144871847D01*
X50475622Y-144997250D01*
X50473139Y-145003245D01*
X50425765Y-145117616D01*
X50415132Y-145143285D01*
X50394500Y-145300000D01*
X44341776Y-145300000D01*
X44300000Y-145294500D01*
X44143285Y-145315132D01*
X43997250Y-145375622D01*
X43871847Y-145471847D01*
X43775622Y-145597250D01*
X43715132Y-145743285D01*
X43694500Y-145900000D01*
X40800000Y-145900000D01*
X40800000Y-135225500D01*
X45169000Y-135225500D01*
X45189632Y-135382215D01*
X45250122Y-135528250D01*
X45346347Y-135653653D01*
X45471750Y-135749878D01*
X45617785Y-135810368D01*
X45774500Y-135831000D01*
X45931215Y-135810368D01*
X46077250Y-135749878D01*
X46202653Y-135653653D01*
X46298878Y-135528250D01*
X46359368Y-135382215D01*
X46380000Y-135225500D01*
X46363478Y-135100000D01*
X47894500Y-135100000D01*
X47915132Y-135256715D01*
X47975622Y-135402750D01*
X48071847Y-135528153D01*
X48197250Y-135624378D01*
X48343285Y-135684868D01*
X48500000Y-135705500D01*
X48541776Y-135700000D01*
X52394500Y-135700000D01*
X52415132Y-135856715D01*
X52475622Y-136002750D01*
X52571847Y-136128153D01*
X52697250Y-136224378D01*
X52843285Y-136284868D01*
X53000000Y-136305500D01*
X53156715Y-136284868D01*
X53302750Y-136224378D01*
X53428153Y-136128153D01*
X53524378Y-136002750D01*
X53584868Y-135856715D01*
X53605500Y-135700000D01*
X53894500Y-135700000D01*
X53915132Y-135856715D01*
X53975622Y-136002750D01*
X54071847Y-136128153D01*
X54197250Y-136224378D01*
X54343285Y-136284868D01*
X54500000Y-136305500D01*
X54656715Y-136284868D01*
X54802750Y-136224378D01*
X54928153Y-136128153D01*
X55024378Y-136002750D01*
X55084868Y-135856715D01*
X55105500Y-135700000D01*
X55092335Y-135600000D01*
X55394500Y-135600000D01*
X55415132Y-135756715D01*
X55475622Y-135902750D01*
X55571847Y-136028153D01*
X55697250Y-136124378D01*
X55843285Y-136184868D01*
X56000000Y-136205500D01*
X56156715Y-136184868D01*
X56302750Y-136124378D01*
X56334520Y-136100000D01*
X63894500Y-136100000D01*
X63915132Y-136256715D01*
X63917616Y-136262712D01*
X63926793Y-136284868D01*
X63975622Y-136402750D01*
X64071847Y-136528153D01*
X64197250Y-136624378D01*
X64343285Y-136684868D01*
X64500000Y-136705500D01*
X64656715Y-136684868D01*
X64802750Y-136624378D01*
X64928153Y-136528153D01*
X65024378Y-136402750D01*
X65073207Y-136284868D01*
X65082384Y-136262712D01*
X65084868Y-136256715D01*
X65105500Y-136100000D01*
X65084868Y-135943285D01*
X65024378Y-135797250D01*
X64928153Y-135671847D01*
X64802750Y-135575622D01*
X64656715Y-135515132D01*
X64500000Y-135494500D01*
X64343285Y-135515132D01*
X64197250Y-135575622D01*
X64071847Y-135671847D01*
X63975622Y-135797250D01*
X63915132Y-135943285D01*
X63894500Y-136100000D01*
X56334520Y-136100000D01*
X56428153Y-136028153D01*
X56524378Y-135902750D01*
X56584868Y-135756715D01*
X56605500Y-135600000D01*
X56584868Y-135443285D01*
X56524378Y-135297250D01*
X56428153Y-135171847D01*
X56302750Y-135075622D01*
X56156715Y-135015132D01*
X56000000Y-134994500D01*
X55843285Y-135015132D01*
X55697250Y-135075622D01*
X55571847Y-135171847D01*
X55475622Y-135297250D01*
X55415132Y-135443285D01*
X55394500Y-135600000D01*
X55092335Y-135600000D01*
X55084868Y-135543285D01*
X55074236Y-135517616D01*
X55026861Y-135403245D01*
X55024378Y-135397250D01*
X54928153Y-135271847D01*
X54802750Y-135175622D01*
X54656715Y-135115132D01*
X54500000Y-135094500D01*
X54343285Y-135115132D01*
X54197250Y-135175622D01*
X54071847Y-135271847D01*
X53975622Y-135397250D01*
X53973139Y-135403245D01*
X53925765Y-135517616D01*
X53915132Y-135543285D01*
X53894500Y-135700000D01*
X53605500Y-135700000D01*
X53584868Y-135543285D01*
X53574236Y-135517616D01*
X53526861Y-135403245D01*
X53524378Y-135397250D01*
X53428153Y-135271847D01*
X53302750Y-135175622D01*
X53156715Y-135115132D01*
X53000000Y-135094500D01*
X52843285Y-135115132D01*
X52697250Y-135175622D01*
X52571847Y-135271847D01*
X52475622Y-135397250D01*
X52473139Y-135403245D01*
X52425765Y-135517616D01*
X52415132Y-135543285D01*
X52394500Y-135700000D01*
X48541776Y-135700000D01*
X48656715Y-135684868D01*
X48802750Y-135624378D01*
X48928153Y-135528153D01*
X49024378Y-135402750D01*
X49084868Y-135256715D01*
X49105500Y-135100000D01*
X49084868Y-134943285D01*
X49024378Y-134797250D01*
X48928153Y-134671847D01*
X48802750Y-134575622D01*
X48656715Y-134515132D01*
X48500000Y-134494500D01*
X48343285Y-134515132D01*
X48197250Y-134575622D01*
X48071847Y-134671847D01*
X47975622Y-134797250D01*
X47915132Y-134943285D01*
X47894500Y-135100000D01*
X46363478Y-135100000D01*
X46359368Y-135068785D01*
X46298878Y-134922750D01*
X46202653Y-134797347D01*
X46077250Y-134701122D01*
X45931215Y-134640632D01*
X45774500Y-134620000D01*
X45617785Y-134640632D01*
X45471750Y-134701122D01*
X45346347Y-134797347D01*
X45250122Y-134922750D01*
X45189632Y-135068785D01*
X45169000Y-135225500D01*
X40800000Y-135225500D01*
X40800000Y-133800000D01*
X49694500Y-133800000D01*
X49715132Y-133956715D01*
X49775622Y-134102750D01*
X49871847Y-134228153D01*
X49997250Y-134324378D01*
X50143285Y-134384868D01*
X50300000Y-134405500D01*
X50456715Y-134384868D01*
X50602750Y-134324378D01*
X50728153Y-134228153D01*
X50824378Y-134102750D01*
X50884868Y-133956715D01*
X50905500Y-133800000D01*
X60494500Y-133800000D01*
X60515132Y-133956715D01*
X60575622Y-134102750D01*
X60671847Y-134228153D01*
X60797250Y-134324378D01*
X60943285Y-134384868D01*
X61100000Y-134405500D01*
X61256715Y-134384868D01*
X61402750Y-134324378D01*
X61528153Y-134228153D01*
X61624378Y-134102750D01*
X61684868Y-133956715D01*
X61705500Y-133800000D01*
X61684868Y-133643285D01*
X61624378Y-133497250D01*
X61528153Y-133371847D01*
X61402750Y-133275622D01*
X61256715Y-133215132D01*
X61100000Y-133194500D01*
X60943285Y-133215132D01*
X60797250Y-133275622D01*
X60671847Y-133371847D01*
X60575622Y-133497250D01*
X60515132Y-133643285D01*
X60494500Y-133800000D01*
X50905500Y-133800000D01*
X50884868Y-133643285D01*
X50824378Y-133497250D01*
X50728153Y-133371847D01*
X50602750Y-133275622D01*
X50456715Y-133215132D01*
X50300000Y-133194500D01*
X50143285Y-133215132D01*
X49997250Y-133275622D01*
X49871847Y-133371847D01*
X49775622Y-133497250D01*
X49715132Y-133643285D01*
X49694500Y-133800000D01*
X40800000Y-133800000D01*
X40800000Y-132000000D01*
X61294500Y-132000000D01*
X61315132Y-132156715D01*
X61375622Y-132302750D01*
X61471847Y-132428153D01*
X61597250Y-132524378D01*
X61743285Y-132584868D01*
X61900000Y-132605500D01*
X62056715Y-132584868D01*
X62202750Y-132524378D01*
X62328153Y-132428153D01*
X62424378Y-132302750D01*
X62484868Y-132156715D01*
X62505500Y-132000000D01*
X62484868Y-131843285D01*
X62424378Y-131697250D01*
X62328153Y-131571847D01*
X62202750Y-131475622D01*
X62056715Y-131415132D01*
X61900000Y-131394500D01*
X61743285Y-131415132D01*
X61597250Y-131475622D01*
X61471847Y-131571847D01*
X61375622Y-131697250D01*
X61315132Y-131843285D01*
X61294500Y-132000000D01*
X40800000Y-132000000D01*
X40800000Y-130200000D01*
X46494500Y-130200000D01*
X46515132Y-130356715D01*
X46575622Y-130502750D01*
X46671847Y-130628153D01*
X46797250Y-130724378D01*
X46943285Y-130784868D01*
X47100000Y-130805500D01*
X47256715Y-130784868D01*
X47402750Y-130724378D01*
X47434520Y-130700000D01*
X66094500Y-130700000D01*
X66115132Y-130856715D01*
X66175622Y-131002750D01*
X66271847Y-131128153D01*
X66397250Y-131224378D01*
X66543285Y-131284868D01*
X66700000Y-131305500D01*
X66856715Y-131284868D01*
X67002750Y-131224378D01*
X67128153Y-131128153D01*
X67224378Y-131002750D01*
X67284868Y-130856715D01*
X67305500Y-130700000D01*
X67284868Y-130543285D01*
X67224378Y-130397250D01*
X67128153Y-130271847D01*
X67002750Y-130175622D01*
X66856715Y-130115132D01*
X66700000Y-130094500D01*
X66543285Y-130115132D01*
X66397250Y-130175622D01*
X66271847Y-130271847D01*
X66175622Y-130397250D01*
X66115132Y-130543285D01*
X66094500Y-130700000D01*
X47434520Y-130700000D01*
X47528153Y-130628153D01*
X47624378Y-130502750D01*
X47684868Y-130356715D01*
X47705500Y-130200000D01*
X47684868Y-130043285D01*
X47624378Y-129897250D01*
X47528153Y-129771847D01*
X47402750Y-129675622D01*
X47256715Y-129615132D01*
X47100000Y-129594500D01*
X46943285Y-129615132D01*
X46797250Y-129675622D01*
X46671847Y-129771847D01*
X46575622Y-129897250D01*
X46515132Y-130043285D01*
X46494500Y-130200000D01*
X40800000Y-130200000D01*
X40800000Y-128687768D01*
X40818907Y-128629577D01*
X40885325Y-128538160D01*
X40889523Y-128532782D01*
X40892457Y-128529279D01*
X40896047Y-128524993D01*
X40898525Y-128520130D01*
X40898783Y-128519758D01*
X40899035Y-128519290D01*
X40902161Y-128514987D01*
X40906152Y-128505653D01*
X40908971Y-128499628D01*
X40958080Y-128403245D01*
X40959733Y-128400000D01*
X47994500Y-128400000D01*
X48015132Y-128556715D01*
X48075622Y-128702750D01*
X48171847Y-128828153D01*
X48297250Y-128924378D01*
X48443285Y-128984868D01*
X48600000Y-129005500D01*
X48756715Y-128984868D01*
X48902750Y-128924378D01*
X49028153Y-128828153D01*
X49124378Y-128702750D01*
X49184868Y-128556715D01*
X49205500Y-128400000D01*
X49184868Y-128243285D01*
X49125517Y-128100000D01*
X49894500Y-128100000D01*
X49915132Y-128256715D01*
X49917616Y-128262712D01*
X49922114Y-128273572D01*
X49975622Y-128402750D01*
X50071847Y-128528153D01*
X50077000Y-128532107D01*
X50128283Y-128571458D01*
X50162939Y-128621883D01*
X50161337Y-128683047D01*
X50128283Y-128728542D01*
X50071847Y-128771847D01*
X49975622Y-128897250D01*
X49915132Y-129043285D01*
X49894500Y-129200000D01*
X49915132Y-129356715D01*
X49975622Y-129502750D01*
X50071847Y-129628153D01*
X50197250Y-129724378D01*
X50343285Y-129784868D01*
X50500000Y-129805500D01*
X50656715Y-129784868D01*
X50802750Y-129724378D01*
X50834520Y-129700000D01*
X71494500Y-129700000D01*
X71515132Y-129856715D01*
X71575622Y-130002750D01*
X71671847Y-130128153D01*
X71797250Y-130224378D01*
X71943285Y-130284868D01*
X72100000Y-130305500D01*
X72256715Y-130284868D01*
X72402750Y-130224378D01*
X72528153Y-130128153D01*
X72624378Y-130002750D01*
X72684868Y-129856715D01*
X72705500Y-129700000D01*
X72684868Y-129543285D01*
X72624378Y-129397250D01*
X72528153Y-129271847D01*
X72402750Y-129175622D01*
X72256715Y-129115132D01*
X72100000Y-129094500D01*
X71943285Y-129115132D01*
X71797250Y-129175622D01*
X71671847Y-129271847D01*
X71575622Y-129397250D01*
X71515132Y-129543285D01*
X71494500Y-129700000D01*
X50834520Y-129700000D01*
X50928153Y-129628153D01*
X51024378Y-129502750D01*
X51084868Y-129356715D01*
X51105500Y-129200000D01*
X51084868Y-129043285D01*
X51024378Y-128897250D01*
X50928153Y-128771847D01*
X50871717Y-128728542D01*
X50852101Y-128700000D01*
X56294500Y-128700000D01*
X56315132Y-128856715D01*
X56375622Y-129002750D01*
X56471847Y-129128153D01*
X56597250Y-129224378D01*
X56743285Y-129284868D01*
X56900000Y-129305500D01*
X57056715Y-129284868D01*
X57202750Y-129224378D01*
X57328153Y-129128153D01*
X57424378Y-129002750D01*
X57484868Y-128856715D01*
X57505500Y-128700000D01*
X57484868Y-128543285D01*
X57481602Y-128535399D01*
X57426861Y-128403245D01*
X57424378Y-128397250D01*
X57328153Y-128271847D01*
X57202750Y-128175622D01*
X57056715Y-128115132D01*
X56900000Y-128094500D01*
X56743285Y-128115132D01*
X56597250Y-128175622D01*
X56471847Y-128271847D01*
X56375622Y-128397250D01*
X56373139Y-128403245D01*
X56318399Y-128535399D01*
X56315132Y-128543285D01*
X56294500Y-128700000D01*
X50852101Y-128700000D01*
X50837061Y-128678117D01*
X50838663Y-128616953D01*
X50871717Y-128571458D01*
X50923000Y-128532107D01*
X50928153Y-128528153D01*
X51024378Y-128402750D01*
X51077886Y-128273572D01*
X51082384Y-128262712D01*
X51084868Y-128256715D01*
X51105500Y-128100000D01*
X51084868Y-127943285D01*
X51024378Y-127797250D01*
X50928153Y-127671847D01*
X50802750Y-127575622D01*
X50656715Y-127515132D01*
X50500000Y-127494500D01*
X50343285Y-127515132D01*
X50197250Y-127575622D01*
X50071847Y-127671847D01*
X49975622Y-127797250D01*
X49915132Y-127943285D01*
X49894500Y-128100000D01*
X49125517Y-128100000D01*
X49124378Y-128097250D01*
X49028153Y-127971847D01*
X48902750Y-127875622D01*
X48756715Y-127815132D01*
X48600000Y-127794500D01*
X48443285Y-127815132D01*
X48297250Y-127875622D01*
X48171847Y-127971847D01*
X48075622Y-128097250D01*
X48015132Y-128243285D01*
X47994500Y-128400000D01*
X40959733Y-128400000D01*
X41013777Y-128293933D01*
X41017081Y-128287969D01*
X41019423Y-128284064D01*
X41019424Y-128284063D01*
X41022305Y-128279258D01*
X41023995Y-128274059D01*
X41024192Y-128273650D01*
X41024365Y-128273156D01*
X41026778Y-128268419D01*
X41029259Y-128258576D01*
X41031096Y-128252201D01*
X41031721Y-128250279D01*
X41056785Y-128173139D01*
X41102439Y-128032631D01*
X41104770Y-128026219D01*
X41106473Y-128021994D01*
X41106475Y-128021988D01*
X41108566Y-128016799D01*
X41109421Y-128011404D01*
X41109550Y-128010973D01*
X41109644Y-128010456D01*
X41111289Y-128005393D01*
X41112200Y-127995284D01*
X41113019Y-127988684D01*
X41119190Y-127949721D01*
X41148561Y-127764282D01*
X41150294Y-127755775D01*
X41150898Y-127753358D01*
X41152256Y-127747924D01*
X41152362Y-127742319D01*
X41152638Y-127740234D01*
X41152744Y-127737872D01*
X41153613Y-127732385D01*
X41153067Y-127724267D01*
X41152861Y-127715763D01*
X41155272Y-127587492D01*
X41155272Y-127587488D01*
X41155376Y-127581936D01*
X41152083Y-127566136D01*
X41150000Y-127545937D01*
X41150000Y-126300000D01*
X42794500Y-126300000D01*
X42815132Y-126456715D01*
X42875622Y-126602750D01*
X42971847Y-126728153D01*
X43097250Y-126824378D01*
X43243285Y-126884868D01*
X43400000Y-126905500D01*
X43556715Y-126884868D01*
X43702750Y-126824378D01*
X43828153Y-126728153D01*
X43924378Y-126602750D01*
X43984868Y-126456715D01*
X44005500Y-126300000D01*
X43984868Y-126143285D01*
X43924378Y-125997250D01*
X43828153Y-125871847D01*
X43702750Y-125775622D01*
X43556715Y-125715132D01*
X43400000Y-125694500D01*
X43243285Y-125715132D01*
X43097250Y-125775622D01*
X42971847Y-125871847D01*
X42875622Y-125997250D01*
X42815132Y-126143285D01*
X42794500Y-126300000D01*
X41150000Y-126300000D01*
X41150000Y-123125000D01*
X44169500Y-123125000D01*
X44190132Y-123281715D01*
X44250622Y-123427750D01*
X44346847Y-123553153D01*
X44472250Y-123649378D01*
X44618285Y-123709868D01*
X44775000Y-123730500D01*
X44931715Y-123709868D01*
X45077750Y-123649378D01*
X45203153Y-123553153D01*
X45299378Y-123427750D01*
X45310872Y-123400000D01*
X47194500Y-123400000D01*
X47215132Y-123556715D01*
X47275622Y-123702750D01*
X47371847Y-123828153D01*
X47497250Y-123924378D01*
X47643285Y-123984868D01*
X47800000Y-124005500D01*
X47956715Y-123984868D01*
X48102750Y-123924378D01*
X48228153Y-123828153D01*
X48324378Y-123702750D01*
X48384868Y-123556715D01*
X48405500Y-123400000D01*
X48384868Y-123243285D01*
X48324378Y-123097250D01*
X48228153Y-122971847D01*
X48102750Y-122875622D01*
X47956715Y-122815132D01*
X47800000Y-122794500D01*
X47643285Y-122815132D01*
X47497250Y-122875622D01*
X47371847Y-122971847D01*
X47275622Y-123097250D01*
X47215132Y-123243285D01*
X47194500Y-123400000D01*
X45310872Y-123400000D01*
X45359868Y-123281715D01*
X45380500Y-123125000D01*
X45359868Y-122968285D01*
X45299378Y-122822250D01*
X45203153Y-122696847D01*
X45077750Y-122600622D01*
X44931715Y-122540132D01*
X44775000Y-122519500D01*
X44618285Y-122540132D01*
X44472250Y-122600622D01*
X44346847Y-122696847D01*
X44250622Y-122822250D01*
X44190132Y-122968285D01*
X44169500Y-123125000D01*
X41150000Y-123125000D01*
X41150000Y-116700000D01*
X55394500Y-116700000D01*
X55415132Y-116856715D01*
X55475622Y-117002750D01*
X55571847Y-117128153D01*
X55697250Y-117224378D01*
X55843285Y-117284868D01*
X56000000Y-117305500D01*
X56156715Y-117284868D01*
X56302750Y-117224378D01*
X56428153Y-117128153D01*
X56524378Y-117002750D01*
X56584868Y-116856715D01*
X56605500Y-116700000D01*
X56584868Y-116543285D01*
X56524378Y-116397250D01*
X56428153Y-116271847D01*
X56302750Y-116175622D01*
X56156715Y-116115132D01*
X56000000Y-116094500D01*
X55843285Y-116115132D01*
X55697250Y-116175622D01*
X55571847Y-116271847D01*
X55475622Y-116397250D01*
X55415132Y-116543285D01*
X55394500Y-116700000D01*
X41150000Y-116700000D01*
X41150000Y-115200000D01*
X54194500Y-115200000D01*
X54215132Y-115356715D01*
X54275622Y-115502750D01*
X54371847Y-115628153D01*
X54497250Y-115724378D01*
X54643285Y-115784868D01*
X54800000Y-115805500D01*
X54956715Y-115784868D01*
X55102750Y-115724378D01*
X55228153Y-115628153D01*
X55324378Y-115502750D01*
X55384868Y-115356715D01*
X55405500Y-115200000D01*
X55384868Y-115043285D01*
X55324378Y-114897250D01*
X55228153Y-114771847D01*
X55102750Y-114675622D01*
X54956715Y-114615132D01*
X54800000Y-114594500D01*
X54643285Y-114615132D01*
X54497250Y-114675622D01*
X54371847Y-114771847D01*
X54275622Y-114897250D01*
X54215132Y-115043285D01*
X54194500Y-115200000D01*
X41150000Y-115200000D01*
X41150000Y-114500000D01*
X52794500Y-114500000D01*
X52815132Y-114656715D01*
X52875622Y-114802750D01*
X52971847Y-114928153D01*
X53097250Y-115024378D01*
X53243285Y-115084868D01*
X53400000Y-115105500D01*
X53556715Y-115084868D01*
X53702750Y-115024378D01*
X53828153Y-114928153D01*
X53924378Y-114802750D01*
X53984868Y-114656715D01*
X54005500Y-114500000D01*
X53984868Y-114343285D01*
X53925517Y-114200000D01*
X59494500Y-114200000D01*
X59515132Y-114356715D01*
X59575622Y-114502750D01*
X59671847Y-114628153D01*
X59797250Y-114724378D01*
X59943285Y-114784868D01*
X60100000Y-114805500D01*
X60256715Y-114784868D01*
X60402750Y-114724378D01*
X60528153Y-114628153D01*
X60624378Y-114502750D01*
X60684868Y-114356715D01*
X60705500Y-114200000D01*
X60684868Y-114043285D01*
X60624378Y-113897250D01*
X60528153Y-113771847D01*
X60402750Y-113675622D01*
X60256715Y-113615132D01*
X60100000Y-113594500D01*
X59943285Y-113615132D01*
X59797250Y-113675622D01*
X59671847Y-113771847D01*
X59575622Y-113897250D01*
X59515132Y-114043285D01*
X59494500Y-114200000D01*
X53925517Y-114200000D01*
X53924378Y-114197250D01*
X53828153Y-114071847D01*
X53702750Y-113975622D01*
X53556715Y-113915132D01*
X53400000Y-113894500D01*
X53243285Y-113915132D01*
X53097250Y-113975622D01*
X52971847Y-114071847D01*
X52875622Y-114197250D01*
X52815132Y-114343285D01*
X52794500Y-114500000D01*
X41150000Y-114500000D01*
X41150000Y-113500000D01*
X46494500Y-113500000D01*
X46515132Y-113656715D01*
X46575622Y-113802750D01*
X46671847Y-113928153D01*
X46797250Y-114024378D01*
X46943285Y-114084868D01*
X47100000Y-114105500D01*
X47256715Y-114084868D01*
X47402750Y-114024378D01*
X47528153Y-113928153D01*
X47624378Y-113802750D01*
X47684868Y-113656715D01*
X47705500Y-113500000D01*
X47684868Y-113343285D01*
X47624378Y-113197250D01*
X47528153Y-113071847D01*
X47402750Y-112975622D01*
X47256715Y-112915132D01*
X47100000Y-112894500D01*
X46943285Y-112915132D01*
X46797250Y-112975622D01*
X46671847Y-113071847D01*
X46575622Y-113197250D01*
X46515132Y-113343285D01*
X46494500Y-113500000D01*
X41150000Y-113500000D01*
X41150000Y-112537701D01*
X61032201Y-112537701D01*
X61052833Y-112694416D01*
X61113323Y-112840451D01*
X61209548Y-112965854D01*
X61334951Y-113062079D01*
X61480986Y-113122569D01*
X61637701Y-113143201D01*
X61794416Y-113122569D01*
X61940451Y-113062079D01*
X62065854Y-112965854D01*
X62162079Y-112840451D01*
X62222569Y-112694416D01*
X62243201Y-112537701D01*
X62222569Y-112380986D01*
X62189023Y-112300000D01*
X64494500Y-112300000D01*
X64515132Y-112456715D01*
X64575622Y-112602750D01*
X64671847Y-112728153D01*
X64797250Y-112824378D01*
X64943285Y-112884868D01*
X65100000Y-112905500D01*
X65256715Y-112884868D01*
X65402750Y-112824378D01*
X65528153Y-112728153D01*
X65624378Y-112602750D01*
X65658536Y-112520286D01*
X65698273Y-112473760D01*
X65757768Y-112459477D01*
X65814296Y-112482892D01*
X65841464Y-112520286D01*
X65875622Y-112602750D01*
X65971847Y-112728153D01*
X66097250Y-112824378D01*
X66243285Y-112884868D01*
X66400000Y-112905500D01*
X66556715Y-112884868D01*
X66702750Y-112824378D01*
X66828153Y-112728153D01*
X66924378Y-112602750D01*
X66984868Y-112456715D01*
X67005500Y-112300000D01*
X66984868Y-112143285D01*
X66924378Y-111997250D01*
X66828153Y-111871847D01*
X66702750Y-111775622D01*
X66556715Y-111715132D01*
X66400000Y-111694500D01*
X66243285Y-111715132D01*
X66097250Y-111775622D01*
X65971847Y-111871847D01*
X65875622Y-111997250D01*
X65873139Y-112003245D01*
X65841464Y-112079714D01*
X65801727Y-112126240D01*
X65742232Y-112140523D01*
X65685704Y-112117108D01*
X65658536Y-112079714D01*
X65626861Y-112003245D01*
X65624378Y-111997250D01*
X65528153Y-111871847D01*
X65402750Y-111775622D01*
X65256715Y-111715132D01*
X65100000Y-111694500D01*
X64943285Y-111715132D01*
X64797250Y-111775622D01*
X64671847Y-111871847D01*
X64575622Y-111997250D01*
X64515132Y-112143285D01*
X64494500Y-112300000D01*
X62189023Y-112300000D01*
X62162079Y-112234951D01*
X62065854Y-112109548D01*
X61940451Y-112013323D01*
X61794416Y-111952833D01*
X61637701Y-111932201D01*
X61480986Y-111952833D01*
X61334951Y-112013323D01*
X61209548Y-112109548D01*
X61113323Y-112234951D01*
X61052833Y-112380986D01*
X61032201Y-112537701D01*
X41150000Y-112537701D01*
X41150000Y-109700000D01*
X55394500Y-109700000D01*
X55415132Y-109856715D01*
X55475622Y-110002750D01*
X55571847Y-110128153D01*
X55697250Y-110224378D01*
X55843285Y-110284868D01*
X56000000Y-110305500D01*
X56156715Y-110284868D01*
X56302750Y-110224378D01*
X56428153Y-110128153D01*
X56524378Y-110002750D01*
X56584868Y-109856715D01*
X56605500Y-109700000D01*
X56584868Y-109543285D01*
X56524378Y-109397250D01*
X56428153Y-109271847D01*
X56302750Y-109175622D01*
X56156715Y-109115132D01*
X56000000Y-109094500D01*
X55843285Y-109115132D01*
X55697250Y-109175622D01*
X55571847Y-109271847D01*
X55475622Y-109397250D01*
X55415132Y-109543285D01*
X55394500Y-109700000D01*
X41150000Y-109700000D01*
X41150000Y-107500000D01*
X65394500Y-107500000D01*
X65415132Y-107656715D01*
X65475622Y-107802750D01*
X65571847Y-107928153D01*
X65697250Y-108024378D01*
X65843285Y-108084868D01*
X66000000Y-108105500D01*
X66156715Y-108084868D01*
X66302750Y-108024378D01*
X66428153Y-107928153D01*
X66524378Y-107802750D01*
X66584868Y-107656715D01*
X66605500Y-107500000D01*
X66584868Y-107343285D01*
X66524378Y-107197250D01*
X66428153Y-107071847D01*
X66302750Y-106975622D01*
X66156715Y-106915132D01*
X66000000Y-106894500D01*
X65843285Y-106915132D01*
X65697250Y-106975622D01*
X65571847Y-107071847D01*
X65475622Y-107197250D01*
X65415132Y-107343285D01*
X65394500Y-107500000D01*
X41150000Y-107500000D01*
X41150000Y-102654135D01*
X41152118Y-102633765D01*
X41154227Y-102623735D01*
X41155379Y-102618256D01*
X41155271Y-102612507D01*
X41152867Y-102484569D01*
X41153085Y-102475890D01*
X41153257Y-102473395D01*
X41153257Y-102473393D01*
X41153643Y-102467804D01*
X41152766Y-102462268D01*
X41152674Y-102460179D01*
X41152364Y-102457828D01*
X41152260Y-102452268D01*
X41150301Y-102444366D01*
X41148610Y-102436029D01*
X41138380Y-102371434D01*
X41113075Y-102211667D01*
X41112245Y-102204932D01*
X41111348Y-102194790D01*
X41109661Y-102189597D01*
X41109579Y-102189146D01*
X41109427Y-102188642D01*
X41108596Y-102183391D01*
X41104811Y-102173953D01*
X41102553Y-102167723D01*
X41092664Y-102137288D01*
X41031211Y-101948150D01*
X41029337Y-101941625D01*
X41026866Y-101931752D01*
X41024384Y-101926880D01*
X41024232Y-101926445D01*
X41024005Y-101925974D01*
X41022364Y-101920924D01*
X41017154Y-101912202D01*
X41013949Y-101906402D01*
X40998968Y-101877000D01*
X40909134Y-101700691D01*
X40906252Y-101694516D01*
X40904466Y-101690317D01*
X40904462Y-101690310D01*
X40902274Y-101685168D01*
X40899064Y-101680750D01*
X40898850Y-101680352D01*
X40898548Y-101679916D01*
X40896134Y-101675178D01*
X40889626Y-101667381D01*
X40885558Y-101662160D01*
X40749838Y-101475357D01*
X40746033Y-101469719D01*
X40740643Y-101461111D01*
X40736779Y-101457247D01*
X40736503Y-101456884D01*
X40736142Y-101456506D01*
X40733016Y-101452204D01*
X40725379Y-101445530D01*
X40720521Y-101440989D01*
X40557266Y-101277734D01*
X40552626Y-101272762D01*
X40545951Y-101265097D01*
X40541535Y-101261889D01*
X40541206Y-101261574D01*
X40540786Y-101261254D01*
X40537025Y-101257493D01*
X40531591Y-101254077D01*
X40528431Y-101252091D01*
X40522923Y-101248366D01*
X40336151Y-101112668D01*
X40330775Y-101108471D01*
X40327282Y-101105545D01*
X40327280Y-101105544D01*
X40322993Y-101101953D01*
X40318128Y-101099474D01*
X40317757Y-101099217D01*
X40317292Y-101098967D01*
X40312987Y-101095839D01*
X40311024Y-101095000D01*
X64394500Y-101095000D01*
X64415132Y-101251715D01*
X64475622Y-101397750D01*
X64571847Y-101523153D01*
X64697250Y-101619378D01*
X64738093Y-101636296D01*
X64814497Y-101667944D01*
X64861023Y-101707681D01*
X64875306Y-101767176D01*
X64851891Y-101823704D01*
X64831977Y-101840266D01*
X64832250Y-101840622D01*
X64706847Y-101936847D01*
X64610622Y-102062250D01*
X64550132Y-102208285D01*
X64529500Y-102365000D01*
X64550132Y-102521715D01*
X64610622Y-102667750D01*
X64706847Y-102793153D01*
X64832250Y-102889378D01*
X64978285Y-102949868D01*
X65135000Y-102970500D01*
X65291715Y-102949868D01*
X65437750Y-102889378D01*
X65563153Y-102793153D01*
X65659378Y-102667750D01*
X65719868Y-102521715D01*
X65740500Y-102365000D01*
X65731943Y-102300000D01*
X69194500Y-102300000D01*
X69215132Y-102456715D01*
X69275622Y-102602750D01*
X69371847Y-102728153D01*
X69497250Y-102824378D01*
X69643285Y-102884868D01*
X69800000Y-102905500D01*
X69956715Y-102884868D01*
X70102750Y-102824378D01*
X70228153Y-102728153D01*
X70324378Y-102602750D01*
X70384868Y-102456715D01*
X70405500Y-102300000D01*
X70384868Y-102143285D01*
X70324378Y-101997250D01*
X70228153Y-101871847D01*
X70102750Y-101775622D01*
X69956715Y-101715132D01*
X69822066Y-101697405D01*
X69806434Y-101695347D01*
X69800000Y-101694500D01*
X69793566Y-101695347D01*
X69777934Y-101697405D01*
X69643285Y-101715132D01*
X69497250Y-101775622D01*
X69371847Y-101871847D01*
X69275622Y-101997250D01*
X69215132Y-102143285D01*
X69194500Y-102300000D01*
X65731943Y-102300000D01*
X65719868Y-102208285D01*
X65659378Y-102062250D01*
X65563153Y-101936847D01*
X65437750Y-101840622D01*
X65394477Y-101822698D01*
X65320503Y-101792056D01*
X65273977Y-101752319D01*
X65259694Y-101692824D01*
X65283109Y-101636296D01*
X65303023Y-101619734D01*
X65302750Y-101619378D01*
X65423000Y-101527107D01*
X65428153Y-101523153D01*
X65522652Y-101400000D01*
X71494500Y-101400000D01*
X71515132Y-101556715D01*
X71575622Y-101702750D01*
X71671847Y-101828153D01*
X71797250Y-101924378D01*
X71943285Y-101984868D01*
X72072263Y-102001848D01*
X72082872Y-102003245D01*
X72100000Y-102005500D01*
X72117129Y-102003245D01*
X72127737Y-102001848D01*
X72256715Y-101984868D01*
X72402750Y-101924378D01*
X72528153Y-101828153D01*
X72624378Y-101702750D01*
X72684868Y-101556715D01*
X72705500Y-101400000D01*
X72684868Y-101243285D01*
X72624378Y-101097250D01*
X72528153Y-100971847D01*
X72402750Y-100875622D01*
X72256715Y-100815132D01*
X72100000Y-100794500D01*
X71943285Y-100815132D01*
X71797250Y-100875622D01*
X71671847Y-100971847D01*
X71575622Y-101097250D01*
X71515132Y-101243285D01*
X71494500Y-101400000D01*
X65522652Y-101400000D01*
X65524378Y-101397750D01*
X65584868Y-101251715D01*
X65605500Y-101095000D01*
X65584868Y-100938285D01*
X65524378Y-100792250D01*
X65428153Y-100666847D01*
X65302750Y-100570622D01*
X65156715Y-100510132D01*
X65000000Y-100489500D01*
X64843285Y-100510132D01*
X64697250Y-100570622D01*
X64571847Y-100666847D01*
X64475622Y-100792250D01*
X64415132Y-100938285D01*
X64394500Y-101095000D01*
X40311024Y-101095000D01*
X40306863Y-101093221D01*
X40303653Y-101091848D01*
X40297628Y-101089029D01*
X40091953Y-100984232D01*
X40085984Y-100980927D01*
X40082055Y-100978571D01*
X40077259Y-100975695D01*
X40072064Y-100974006D01*
X40071658Y-100973811D01*
X40071157Y-100973636D01*
X40066419Y-100971222D01*
X40056572Y-100968740D01*
X40050205Y-100966905D01*
X39830620Y-100895557D01*
X39824222Y-100893231D01*
X39814799Y-100889434D01*
X39809410Y-100888580D01*
X39808977Y-100888450D01*
X39808453Y-100888355D01*
X39803393Y-100886711D01*
X39793284Y-100885800D01*
X39786688Y-100884981D01*
X39727594Y-100875622D01*
X39558685Y-100848869D01*
X39551989Y-100847571D01*
X39547538Y-100846548D01*
X39547537Y-100846548D01*
X39542076Y-100845292D01*
X39536609Y-100845292D01*
X39536159Y-100845231D01*
X39535639Y-100845219D01*
X39530385Y-100844387D01*
X39520428Y-100845057D01*
X39520250Y-100845069D01*
X39513603Y-100845292D01*
X39282761Y-100845292D01*
X39275941Y-100845057D01*
X39275780Y-100845046D01*
X39265804Y-100844357D01*
X39260407Y-100845212D01*
X39259955Y-100845222D01*
X39259438Y-100845292D01*
X39254116Y-100845292D01*
X39248698Y-100846528D01*
X39248697Y-100846528D01*
X39247761Y-100846741D01*
X39244210Y-100847551D01*
X39237690Y-100848810D01*
X39009667Y-100884925D01*
X39002932Y-100885755D01*
X38992790Y-100886652D01*
X38987597Y-100888339D01*
X38987146Y-100888421D01*
X38986642Y-100888573D01*
X38981391Y-100889404D01*
X38971953Y-100893189D01*
X38965729Y-100895445D01*
X38746150Y-100966789D01*
X38739625Y-100968663D01*
X38729752Y-100971134D01*
X38724880Y-100973616D01*
X38724445Y-100973768D01*
X38723974Y-100973995D01*
X38718924Y-100975636D01*
X38710202Y-100980846D01*
X38704410Y-100984047D01*
X38498691Y-101088866D01*
X38492516Y-101091748D01*
X38488317Y-101093534D01*
X38488310Y-101093538D01*
X38483168Y-101095726D01*
X38478750Y-101098936D01*
X38478352Y-101099150D01*
X38477916Y-101099452D01*
X38473178Y-101101866D01*
X38465381Y-101108374D01*
X38460160Y-101112442D01*
X38273357Y-101248162D01*
X38267719Y-101251967D01*
X38259111Y-101257357D01*
X38255247Y-101261221D01*
X38254884Y-101261497D01*
X38254506Y-101261858D01*
X38250204Y-101264984D01*
X38246545Y-101269171D01*
X38243531Y-101272620D01*
X38238989Y-101277479D01*
X38075734Y-101440734D01*
X38070762Y-101445374D01*
X38063097Y-101452049D01*
X38059889Y-101456465D01*
X38059574Y-101456794D01*
X38059254Y-101457214D01*
X38055493Y-101460975D01*
X38052534Y-101465683D01*
X38050091Y-101469569D01*
X38046366Y-101475077D01*
X37910668Y-101661849D01*
X37906471Y-101667225D01*
X37899953Y-101675007D01*
X37897474Y-101679872D01*
X37897217Y-101680243D01*
X37896967Y-101680708D01*
X37893839Y-101685013D01*
X37891654Y-101690124D01*
X37889848Y-101694347D01*
X37887029Y-101700372D01*
X37782232Y-101906047D01*
X37778927Y-101912016D01*
X37773695Y-101920741D01*
X37772006Y-101925936D01*
X37771811Y-101926342D01*
X37771636Y-101926843D01*
X37769222Y-101931581D01*
X37766740Y-101941428D01*
X37764905Y-101947795D01*
X37693557Y-102167380D01*
X37691231Y-102173778D01*
X37687434Y-102183201D01*
X37686580Y-102188590D01*
X37686450Y-102189023D01*
X37686355Y-102189547D01*
X37684711Y-102194607D01*
X37684212Y-102200146D01*
X37683800Y-102204715D01*
X37682981Y-102211316D01*
X37647441Y-102435704D01*
X37645709Y-102444208D01*
X37645101Y-102446642D01*
X37645100Y-102446647D01*
X37643744Y-102452076D01*
X37643639Y-102457674D01*
X37643362Y-102459760D01*
X37643255Y-102462130D01*
X37642387Y-102467615D01*
X37642760Y-102473156D01*
X37642933Y-102475735D01*
X37643139Y-102484238D01*
X37640912Y-102602750D01*
X37640624Y-102618063D01*
X37641758Y-102623503D01*
X37641758Y-102623504D01*
X37643917Y-102633861D01*
X37646000Y-102654062D01*
X37646000Y-126301000D01*
X37627093Y-126359191D01*
X37577593Y-126395155D01*
X37547000Y-126400000D01*
X33949000Y-126400000D01*
X33890809Y-126381093D01*
X33854845Y-126331593D01*
X33850000Y-126301000D01*
X33850000Y-100100000D01*
X52094500Y-100100000D01*
X52115132Y-100256715D01*
X52175622Y-100402750D01*
X52271847Y-100528153D01*
X52397250Y-100624378D01*
X52543285Y-100684868D01*
X52700000Y-100705500D01*
X52856715Y-100684868D01*
X53002750Y-100624378D01*
X53128153Y-100528153D01*
X53224378Y-100402750D01*
X53284868Y-100256715D01*
X53305500Y-100100000D01*
X53284868Y-99943285D01*
X53224378Y-99797250D01*
X53128153Y-99671847D01*
X53002750Y-99575622D01*
X52856715Y-99515132D01*
X52700000Y-99494500D01*
X52543285Y-99515132D01*
X52397250Y-99575622D01*
X52271847Y-99671847D01*
X52175622Y-99797250D01*
X52115132Y-99943285D01*
X52094500Y-100100000D01*
X33850000Y-100100000D01*
X33850000Y-67500000D01*
X74094500Y-67500000D01*
X74115132Y-67656715D01*
X74175622Y-67802750D01*
X74271847Y-67928153D01*
X74397250Y-68024378D01*
X74543285Y-68084868D01*
X74700000Y-68105500D01*
X74856715Y-68084868D01*
X75002750Y-68024378D01*
X75128153Y-67928153D01*
X75224378Y-67802750D01*
X75284868Y-67656715D01*
X75305500Y-67500000D01*
X75284868Y-67343285D01*
X75224378Y-67197250D01*
X75128153Y-67071847D01*
X75002750Y-66975622D01*
X74856715Y-66915132D01*
X74700000Y-66894500D01*
X74543285Y-66915132D01*
X74397250Y-66975622D01*
X74271847Y-67071847D01*
X74175622Y-67197250D01*
X74115132Y-67343285D01*
X74094500Y-67500000D01*
X33850000Y-67500000D01*
X33850000Y-62600000D01*
X76094500Y-62600000D01*
X76115132Y-62756715D01*
X76175622Y-62902750D01*
X76271847Y-63028153D01*
X76397250Y-63124378D01*
X76543285Y-63184868D01*
X76700000Y-63205500D01*
X76856715Y-63184868D01*
X77002750Y-63124378D01*
X77128153Y-63028153D01*
X77224378Y-62902750D01*
X77284868Y-62756715D01*
X77305500Y-62600000D01*
X77284868Y-62443285D01*
X77224378Y-62297250D01*
X77128153Y-62171847D01*
X77002750Y-62075622D01*
X76856715Y-62015132D01*
X76700000Y-61994500D01*
X76543285Y-62015132D01*
X76397250Y-62075622D01*
X76271847Y-62171847D01*
X76175622Y-62297250D01*
X76115132Y-62443285D01*
X76094500Y-62600000D01*
X33850000Y-62600000D01*
X33850000Y-60400000D01*
X76094500Y-60400000D01*
X76115132Y-60556715D01*
X76175622Y-60702750D01*
X76271847Y-60828153D01*
X76397250Y-60924378D01*
X76543285Y-60984868D01*
X76700000Y-61005500D01*
X76856715Y-60984868D01*
X77002750Y-60924378D01*
X77128153Y-60828153D01*
X77224378Y-60702750D01*
X77284868Y-60556715D01*
X77305500Y-60400000D01*
X77284868Y-60243285D01*
X77224378Y-60097250D01*
X77128153Y-59971847D01*
X77002750Y-59875622D01*
X76856715Y-59815132D01*
X76700000Y-59794500D01*
X76543285Y-59815132D01*
X76397250Y-59875622D01*
X76271847Y-59971847D01*
X76175622Y-60097250D01*
X76115132Y-60243285D01*
X76094500Y-60400000D01*
X33850000Y-60400000D01*
X33850000Y-55200000D01*
X80394500Y-55200000D01*
X80415132Y-55356715D01*
X80475622Y-55502750D01*
X80571847Y-55628153D01*
X80697250Y-55724378D01*
X80843285Y-55784868D01*
X81000000Y-55805500D01*
X81156715Y-55784868D01*
X81302750Y-55724378D01*
X81428153Y-55628153D01*
X81524378Y-55502750D01*
X81584868Y-55356715D01*
X81605500Y-55200000D01*
X81592335Y-55100000D01*
X96794500Y-55100000D01*
X96815132Y-55256715D01*
X96875622Y-55402750D01*
X96971847Y-55528153D01*
X97097250Y-55624378D01*
X97243285Y-55684868D01*
X97400000Y-55705500D01*
X97556715Y-55684868D01*
X97702750Y-55624378D01*
X97828153Y-55528153D01*
X97924378Y-55402750D01*
X97984868Y-55256715D01*
X98005500Y-55100000D01*
X97984868Y-54943285D01*
X97924378Y-54797250D01*
X97828153Y-54671847D01*
X97702750Y-54575622D01*
X97556715Y-54515132D01*
X97400000Y-54494500D01*
X97243285Y-54515132D01*
X97097250Y-54575622D01*
X96971847Y-54671847D01*
X96875622Y-54797250D01*
X96815132Y-54943285D01*
X96794500Y-55100000D01*
X81592335Y-55100000D01*
X81584868Y-55043285D01*
X81524378Y-54897250D01*
X81428153Y-54771847D01*
X81302750Y-54675622D01*
X81156715Y-54615132D01*
X81000000Y-54594500D01*
X80843285Y-54615132D01*
X80697250Y-54675622D01*
X80571847Y-54771847D01*
X80475622Y-54897250D01*
X80415132Y-55043285D01*
X80394500Y-55200000D01*
X33850000Y-55200000D01*
X33850000Y-47398284D01*
X33868907Y-47340093D01*
X33918407Y-47304129D01*
X33948825Y-47299284D01*
X85900825Y-47207689D01*
X85959049Y-47226494D01*
X85995101Y-47275930D01*
X86000000Y-47306689D01*
X86000000Y-51600000D01*
X93000000Y-51600000D01*
X93000000Y-47299000D01*
X93018907Y-47240809D01*
X93068407Y-47204845D01*
X93099000Y-47200000D01*
X145051000Y-47200000D01*
X145109191Y-47218907D01*
G37*
%TD.AperFunction*%
%TD*%
M02*
