M48
; DRILL file {KiCad (5.99.0-10506-gb986797469)} date Tue Jun  8 23:03:12 2021
; FORMAT={-:-/ absolute / inch / decimal}
; #@! TF.CreationDate,2021-06-08T23:03:12+02:00
; #@! TF.GenerationSoftware,Kicad,Pcbnew,(5.99.0-10506-gb986797469)
; #@! TF.FileFunction,MixedPlating,1,4
FMAT,2
INCH
; #@! TA.AperFunction,Plated,PTH,ViaDrill
T1C0.0157
; #@! TA.AperFunction,NonPlated,NPTH,ComponentDrill
T2C0.0197
%
G90
G05
T1
X1.3563Y-1.9685
X1.3563Y-2.1654
X1.3563Y-2.3622
X1.3563Y-2.5591
X1.3563Y-2.7559
X1.3563Y-2.9528
X1.3563Y-3.1496
X1.3563Y-3.3465
X1.3563Y-3.5433
X1.3563Y-3.7402
X1.3563Y-3.937
X1.3563Y-4.1339
X1.3563Y-4.3307
X1.3563Y-4.5276
X1.3563Y-4.7244
X1.3563Y-4.9213
X1.3563Y-6.1024
X1.3563Y-6.2992
X1.3563Y-6.4961
X1.3563Y-6.6929
X1.3563Y-6.8898
X1.3563Y-7.0866
X1.378Y-1.8809
X1.378Y-7.2165
X1.4016Y-6.8543
X1.4611Y-7.1563
X1.5Y-2.0
X1.5Y-2.5
X1.5Y-3.0
X1.5Y-3.5
X1.5669Y-6.9291
X1.5669Y-7.0709
X1.5669Y-7.1654
X1.5748Y-1.8809
X1.5748Y-6.3701
X1.5748Y-6.8346
X1.6201Y-6.5128
X1.6329Y-6.6309
X1.6496Y-4.9724
X1.6524Y-6.9685
X1.6535Y-6.0472
X1.6614Y-5.937
X1.6772Y-5.7913
X1.689Y-6.4961
X1.7047Y-7.0433
X1.7087Y-4.9291
X1.7087Y-4.9724
X1.7185Y-5.9882
X1.7402Y-7.1142
X1.7441Y-5.7441
X1.7559Y-6.4961
X1.7628Y-4.8474
X1.7717Y-1.8809
X1.7795Y-5.7953
X1.7874Y-6.0157
X1.7953Y-5.3937
X1.7992Y-5.126
X1.8021Y-5.3238
X1.8121Y-5.6052
X1.8189Y-6.5
X1.8346Y-6.0787
X1.8543Y-4.4685
X1.8543Y-5.126
X1.878Y-5.7835
X1.8819Y-4.8583
X1.8898Y-6.4921
X1.8898Y-6.874
X1.8937Y-6.0748
X1.8937Y-6.1969
X1.9094Y-5.3189
X1.9134Y-5.0551
X1.9149Y-4.9322
X1.937Y-4.0276
X1.937Y-4.126
X1.9528Y-6.874
X1.9606Y-4.5197
X1.9606Y-4.5827
X1.9606Y-4.6457
X1.9606Y-4.7087
X1.9606Y-4.7717
X1.9606Y-4.8346
X1.9606Y-7.0197
X1.9646Y-6.2441
X1.9646Y-6.3071
X1.9685Y-1.8809
X1.97Y-5.97
X1.9803Y-5.2677
X1.9882Y-5.0433
X1.9882Y-5.0866
X2.0Y-2.0
X2.0Y-2.5
X2.0Y-3.0
X2.0Y-3.5
X2.0079Y-5.7205
X2.0157Y-7.0709
X2.0157Y-7.1654
X2.0276Y-6.5028
X2.0394Y-5.378
X2.0394Y-5.6063
X2.0551Y-6.874
X2.0601Y-5.7362
X2.0748Y-3.9409
X2.0866Y-5.3425
X2.1024Y-4.5079
X2.1024Y-4.8976
X2.1024Y-4.9606
X2.1024Y-6.6772
X2.1142Y-6.6063
X2.1339Y-6.0079
X2.1378Y-5.9488
X2.1457Y-5.3425
X2.1496Y-6.9685
X2.1575Y-4.5354
X2.1654Y-1.8809
X2.185Y-7.1024
X2.2047Y-4.3189
X2.2047Y-4.5945
X2.2047Y-5.3386
X2.2293Y-6.4872
X2.2402Y-4.0276
X2.2402Y-4.0787
X2.2402Y-4.1299
X2.2402Y-5.0669
X2.248Y-5.9409
X2.252Y-6.8583
X2.2598Y-4.4646
X2.2677Y-6.6417
X2.3346Y-6.4843
X2.3386Y-6.2283
X2.3386Y-6.3071
X2.3543Y-5.8937
X2.3543Y-5.9409
X2.3622Y-1.8809
X2.3661Y-4.4961
X2.37Y-5.83
X2.374Y-6.7756
X2.378Y-7.0039
X2.379Y-5.3071
X2.3976Y-3.9173
X2.4055Y-5.2677
X2.4055Y-6.1496
X2.4173Y-6.2283
X2.4173Y-6.3071
X2.4213Y-6.4843
X2.4267Y-4.4306
X2.437Y-4.1299
X2.437Y-5.1969
X2.4528Y-5.9331
X2.4567Y-5.878
X2.4606Y-4.6152
X2.4764Y-6.3701
X2.5Y-2.0
X2.5Y-2.5
X2.5Y-3.0
X2.5Y-3.5
X2.5118Y-6.5906
X2.5177Y-6.5374
X2.5394Y-5.3583
X2.5433Y-7.0079
X2.5591Y-1.8809
X2.5591Y-3.9801
X2.563Y-4.4213
X2.563Y-6.5866
X2.5644Y-4.0301
X2.5709Y-4.8819
X2.5748Y-4.9606
X2.5787Y-5.7126
X2.5984Y-4.2323
X2.6132Y-4.2687
X2.6142Y-4.4213
X2.626Y-5.1457
X2.6496Y-6.5866
X2.6496Y-6.6457
X2.6535Y-4.4213
X2.6535Y-4.6299
X2.6772Y-4.3592
X2.6772Y-5.7638
X2.6774Y-6.5394
X2.685Y-4.4921
X2.6929Y-7.0157
X2.7126Y-4.6398
X2.7387Y-6.5379
X2.7441Y-5.8031
X2.7441Y-6.5827
X2.748Y-4.0276
X2.7559Y-1.8809
X2.7717Y-6.1535
X2.8228Y-6.9921
X2.8268Y-6.7598
X2.8307Y-4.2047
X2.8346Y-6.0079
X2.8386Y-3.9921
X2.8386Y-5.1063
X2.8386Y-5.8543
X2.8543Y-7.189
X2.9409Y-2.6575
X2.9528Y-1.8809
X3.0Y-3.0
X3.0197Y-2.378
X3.0197Y-2.4646
X3.0827Y-2.063
X3.1496Y-1.8809
X3.189Y-2.1732
X3.1929Y-2.3583
X3.4094Y-2.0709
X3.4094Y-2.3228
X3.4449Y-2.4724
X3.5Y-2.5
X3.5Y-3.0
X3.5197Y-2.2283
X3.6024Y-2.4685
X3.6378Y-2.0709
X3.6378Y-2.3228
X3.7795Y-2.2126
X3.7835Y-1.8937
X3.7835Y-2.0551
X3.8346Y-2.1693
X3.8346Y-2.685
X3.878Y-2.3819
X3.9055Y-3.0
X3.937Y-1.8809
X4.0Y-2.0
X4.0Y-2.5
X4.0Y-3.0
X4.1339Y-1.8809
X4.3307Y-1.8809
X4.5Y-2.0
X4.5Y-2.5
X4.5Y-3.0
X4.5276Y-1.8809
X4.7244Y-1.8809
X4.9213Y-1.8809
X5.0Y-2.0
X5.0Y-2.5
X5.0Y-3.0
X5.1181Y-1.8809
X5.315Y-1.8809
X5.5Y-2.0
X5.5Y-2.5
X5.5Y-3.0
X5.5118Y-1.8809
X5.6939Y-1.9685
X5.6939Y-2.1654
X5.6939Y-2.3622
X5.6939Y-2.5591
X5.6939Y-2.7559
X5.6939Y-2.9528
X5.6939Y-3.1496
T2
X1.7126Y-7.0807
X1.8701Y-7.0807
T0
M30
