%TF.GenerationSoftware,KiCad,Pcbnew,(5.99.0-10506-gb986797469)*%
%TF.CreationDate,2021-06-08T23:03:07+02:00*%
%TF.ProjectId,Navi_2_0,4e617669-5f32-45f3-902e-6b696361645f,rev?*%
%TF.SameCoordinates,Original*%
%TF.FileFunction,Soldermask,Bot*%
%TF.FilePolarity,Negative*%
%FSLAX46Y46*%
G04 Gerber Fmt 4.6, Leading zero omitted, Abs format (unit mm)*
G04 Created by KiCad (PCBNEW (5.99.0-10506-gb986797469)) date 2021-06-08 23:03:07*
%MOMM*%
%LPD*%
G01*
G04 APERTURE LIST*
G04 Aperture macros list*
%AMRoundRect*
0 Rectangle with rounded corners*
0 $1 Rounding radius*
0 $2 $3 $4 $5 $6 $7 $8 $9 X,Y pos of 4 corners*
0 Add a 4 corners polygon primitive as box body*
4,1,4,$2,$3,$4,$5,$6,$7,$8,$9,$2,$3,0*
0 Add four circle primitives for the rounded corners*
1,1,$1+$1,$2,$3*
1,1,$1+$1,$4,$5*
1,1,$1+$1,$6,$7*
1,1,$1+$1,$8,$9*
0 Add four rect primitives between the rounded corners*
20,1,$1+$1,$2,$3,$4,$5,0*
20,1,$1+$1,$4,$5,$6,$7,0*
20,1,$1+$1,$6,$7,$8,$9,0*
20,1,$1+$1,$8,$9,$2,$3,0*%
G04 Aperture macros list end*
%ADD10R,0.900000X2.000000*%
%ADD11R,2.000000X0.900000*%
%ADD12R,5.000000X5.000000*%
%ADD13C,3.000000*%
%ADD14R,3.000000X3.000000*%
%ADD15RoundRect,0.225000X-0.225000X-0.250000X0.225000X-0.250000X0.225000X0.250000X-0.225000X0.250000X0*%
%ADD16RoundRect,0.250000X-0.650000X0.325000X-0.650000X-0.325000X0.650000X-0.325000X0.650000X0.325000X0*%
%ADD17RoundRect,0.225000X0.225000X0.250000X-0.225000X0.250000X-0.225000X-0.250000X0.225000X-0.250000X0*%
%ADD18RoundRect,0.225000X-0.250000X0.225000X-0.250000X-0.225000X0.250000X-0.225000X0.250000X0.225000X0*%
%ADD19R,1.100000X1.100000*%
%ADD20RoundRect,0.250000X-0.325000X-0.650000X0.325000X-0.650000X0.325000X0.650000X-0.325000X0.650000X0*%
%ADD21R,1.300000X0.300000*%
%ADD22R,2.200000X1.800000*%
%ADD23R,0.650000X1.220000*%
%ADD24R,1.500000X1.000000*%
%ADD25R,0.900000X0.800000*%
%ADD26R,3.600000X1.500000*%
%ADD27RoundRect,0.249998X0.450002X-0.262502X0.450002X0.262502X-0.450002X0.262502X-0.450002X-0.262502X0*%
%ADD28RoundRect,0.200000X0.275000X-0.200000X0.275000X0.200000X-0.275000X0.200000X-0.275000X-0.200000X0*%
%ADD29RoundRect,0.150000X0.825000X0.150000X-0.825000X0.150000X-0.825000X-0.150000X0.825000X-0.150000X0*%
%ADD30R,0.510000X1.100000*%
%ADD31R,0.850000X1.100000*%
%ADD32R,0.750000X1.100000*%
%ADD33R,1.200000X1.000000*%
%ADD34R,1.170000X1.800000*%
%ADD35R,1.900000X1.350000*%
%ADD36R,1.550000X1.350000*%
%ADD37C,0.500000*%
%ADD38R,0.400000X1.850000*%
%ADD39R,1.690000X1.300000*%
%ADD40R,1.650000X0.900000*%
%ADD41R,2.150000X0.700000*%
%ADD42R,0.700000X2.150000*%
%ADD43RoundRect,0.225000X0.250000X-0.225000X0.250000X0.225000X-0.250000X0.225000X-0.250000X-0.225000X0*%
%ADD44RoundRect,0.200000X0.200000X0.275000X-0.200000X0.275000X-0.200000X-0.275000X0.200000X-0.275000X0*%
%ADD45R,1.500000X3.600000*%
%ADD46R,1.060000X0.650000*%
%ADD47R,0.650000X1.060000*%
%ADD48RoundRect,0.200000X-0.275000X0.200000X-0.275000X-0.200000X0.275000X-0.200000X0.275000X0.200000X0*%
%ADD49R,0.800000X0.900000*%
%ADD50R,0.350000X0.325000*%
%ADD51R,0.325000X0.350000*%
%ADD52RoundRect,0.200000X-0.200000X-0.275000X0.200000X-0.275000X0.200000X0.275000X-0.200000X0.275000X0*%
%ADD53R,1.600000X0.760000*%
%ADD54RoundRect,0.212500X0.212500X-0.400000X0.212500X0.400000X-0.212500X0.400000X-0.212500X-0.400000X0*%
G04 APERTURE END LIST*
D10*
%TO.C,U3*%
X41382500Y-132000000D03*
X42652500Y-132000000D03*
X43922500Y-132000000D03*
X45192500Y-132000000D03*
X46462500Y-132000000D03*
X47732500Y-132000000D03*
X49002500Y-132000000D03*
X50272500Y-132000000D03*
X51542500Y-132000000D03*
X52812500Y-132000000D03*
X54082500Y-132000000D03*
X55352500Y-132000000D03*
X56622500Y-132000000D03*
X57892500Y-132000000D03*
D11*
X58892500Y-134785000D03*
X58892500Y-136055000D03*
X58892500Y-137325000D03*
X58892500Y-138595000D03*
X58892500Y-139865000D03*
X58892500Y-141135000D03*
X58892500Y-142405000D03*
X58892500Y-143675000D03*
X58892500Y-144945000D03*
X58892500Y-146215000D03*
D10*
X57892500Y-149000000D03*
X56622500Y-149000000D03*
X55352500Y-149000000D03*
X54082500Y-149000000D03*
X52812500Y-149000000D03*
X51542500Y-149000000D03*
X50272500Y-149000000D03*
X49002500Y-149000000D03*
X47732500Y-149000000D03*
X46462500Y-149000000D03*
X45192500Y-149000000D03*
X43922500Y-149000000D03*
X42652500Y-149000000D03*
X41382500Y-149000000D03*
D12*
X48882500Y-139500000D03*
%TD*%
D13*
%TO.C,J9*%
X60400000Y-164700000D03*
%TD*%
D14*
%TO.C,J10*%
X60400000Y-159200000D03*
%TD*%
D15*
%TO.C,C22*%
X50825000Y-121200000D03*
X52375000Y-121200000D03*
%TD*%
D16*
%TO.C,C13*%
X71500000Y-119025000D03*
X71500000Y-121975000D03*
%TD*%
D17*
%TO.C,C16*%
X68775000Y-107600000D03*
X67225000Y-107600000D03*
%TD*%
D15*
%TO.C,C17*%
X58225000Y-99500000D03*
X59775000Y-99500000D03*
%TD*%
%TO.C,C21*%
X50825000Y-118000000D03*
X52375000Y-118000000D03*
%TD*%
D18*
%TO.C,C20*%
X47400000Y-167125000D03*
X47400000Y-168675000D03*
%TD*%
D19*
%TO.C,D4*%
X66600000Y-124000000D03*
X69400000Y-124000000D03*
%TD*%
D20*
%TO.C,C24*%
X50525000Y-102300000D03*
X53475000Y-102300000D03*
%TD*%
%TO.C,C25*%
X50525000Y-104800000D03*
X53475000Y-104800000D03*
%TD*%
D15*
%TO.C,C26*%
X65825000Y-116500000D03*
X67375000Y-116500000D03*
%TD*%
%TO.C,C27*%
X50850000Y-114800000D03*
X52400000Y-114800000D03*
%TD*%
%TO.C,C28*%
X50825000Y-116400000D03*
X52375000Y-116400000D03*
%TD*%
%TO.C,C29*%
X50825000Y-119600000D03*
X52375000Y-119600000D03*
%TD*%
D19*
%TO.C,D3*%
X69400000Y-121500000D03*
X66600000Y-121500000D03*
%TD*%
%TO.C,D5*%
X66600000Y-119000000D03*
X69400000Y-119000000D03*
%TD*%
D21*
%TO.C,J2*%
X63850000Y-120950000D03*
X63850000Y-120450000D03*
X63850000Y-119950000D03*
X63850000Y-119450000D03*
X63850000Y-118950000D03*
X63850000Y-118450000D03*
X63850000Y-117950000D03*
X63850000Y-117450000D03*
X63850000Y-116950000D03*
X63850000Y-116450000D03*
X63850000Y-115950000D03*
X63850000Y-115450000D03*
X63850000Y-114950000D03*
X63850000Y-114450000D03*
X63850000Y-113950000D03*
X63850000Y-113450000D03*
X63850000Y-112950000D03*
X63850000Y-112450000D03*
X63850000Y-111950000D03*
X63850000Y-111450000D03*
X63850000Y-110950000D03*
X63850000Y-110450000D03*
X63850000Y-109950000D03*
X63850000Y-109450000D03*
D22*
X60600000Y-107550000D03*
X60600000Y-122850000D03*
%TD*%
D15*
%TO.C,C30*%
X50825000Y-122800000D03*
X52375000Y-122800000D03*
%TD*%
D23*
%TO.C,Q1*%
X67850000Y-103290000D03*
X69750000Y-103290000D03*
X68800000Y-105910000D03*
%TD*%
D24*
%TO.C,JP1*%
X56000000Y-113400000D03*
X56000000Y-112100000D03*
X56000000Y-110800000D03*
%TD*%
D25*
%TO.C,Q2*%
X70400000Y-116950000D03*
X70400000Y-115050000D03*
X72400000Y-116000000D03*
%TD*%
D26*
%TO.C,L3*%
X72200000Y-109725000D03*
X72200000Y-112775000D03*
%TD*%
D27*
%TO.C,R28*%
X69000000Y-112912500D03*
X69000000Y-111087500D03*
%TD*%
D28*
%TO.C,R27*%
X66000000Y-106125000D03*
X66000000Y-104475000D03*
%TD*%
D29*
%TO.C,U7*%
X63475000Y-101095000D03*
X63475000Y-102365000D03*
X63475000Y-103635000D03*
X63475000Y-104905000D03*
X58525000Y-104905000D03*
X58525000Y-103635000D03*
X58525000Y-102365000D03*
X58525000Y-101095000D03*
%TD*%
D28*
%TO.C,R29*%
X68900000Y-116825000D03*
X68900000Y-115175000D03*
%TD*%
%TO.C,R30*%
X67600000Y-100825000D03*
X67600000Y-99175000D03*
%TD*%
D18*
%TO.C,C9*%
X40400000Y-167125000D03*
X40400000Y-168675000D03*
%TD*%
D30*
%TO.C,U4*%
X45900000Y-172400000D03*
X44900000Y-172400000D03*
X43900000Y-172400000D03*
X42900000Y-172400000D03*
X41900000Y-172400000D03*
X41900000Y-167300000D03*
X42900000Y-167300000D03*
X43900000Y-167300000D03*
X44900000Y-167300000D03*
X45900000Y-167300000D03*
D14*
X43900000Y-169850000D03*
%TD*%
D31*
%TO.C,J27*%
X62895000Y-179450000D03*
X63995000Y-179450000D03*
X65095000Y-179450000D03*
X66195000Y-179450000D03*
X67295000Y-179450000D03*
X68395000Y-179450000D03*
X69495000Y-179450000D03*
D32*
X70545000Y-179450000D03*
D33*
X60260000Y-173300000D03*
X60260000Y-169600000D03*
D34*
X71755000Y-179100000D03*
D35*
X63760000Y-168625000D03*
X69730000Y-168625000D03*
D36*
X60435000Y-179325000D03*
%TD*%
D37*
%TO.C,J1*%
X47500000Y-179850000D03*
X43500000Y-179850000D03*
D38*
X46800000Y-179165000D03*
X46150000Y-179165000D03*
X45500000Y-179165000D03*
X44850000Y-179165000D03*
X44200000Y-179165000D03*
D39*
X49615000Y-182000000D03*
D40*
X49525000Y-179640000D03*
D39*
X41385000Y-182000000D03*
D40*
X41475000Y-179640000D03*
%TD*%
D28*
%TO.C,R31*%
X66000000Y-100825000D03*
X66000000Y-99175000D03*
%TD*%
D41*
%TO.C,U5*%
X84700000Y-60200000D03*
X84700000Y-59200000D03*
X84700000Y-58200000D03*
X84700000Y-57200000D03*
X84700000Y-56200000D03*
X84700000Y-55200000D03*
X84700000Y-54200000D03*
X84700000Y-53200000D03*
X84700000Y-52200000D03*
X84700000Y-51200000D03*
X84700000Y-50200000D03*
X84700000Y-49200000D03*
X84700000Y-48050000D03*
X94300000Y-48050000D03*
X94300000Y-49200000D03*
X94300000Y-50200000D03*
X94300000Y-51200000D03*
X94300000Y-52200000D03*
X94300000Y-53200000D03*
X94300000Y-54200000D03*
X94300000Y-55200000D03*
X94300000Y-56200000D03*
X94300000Y-57200000D03*
X94300000Y-58200000D03*
X94300000Y-59200000D03*
X94300000Y-60200000D03*
D42*
X91500000Y-61000000D03*
X90500000Y-61000000D03*
X89500000Y-61000000D03*
X88500000Y-61000000D03*
X87500000Y-61000000D03*
%TD*%
D43*
%TO.C,C1*%
X54800000Y-175775000D03*
X54800000Y-174225000D03*
%TD*%
%TO.C,C2*%
X54200000Y-166375000D03*
X54200000Y-164825000D03*
%TD*%
D28*
%TO.C,R37*%
X65800000Y-165025000D03*
X65800000Y-163375000D03*
%TD*%
D44*
%TO.C,R21*%
X48825000Y-153400000D03*
X47175000Y-153400000D03*
%TD*%
D45*
%TO.C,L1*%
X55075000Y-171200000D03*
X58125000Y-171200000D03*
%TD*%
D18*
%TO.C,C32*%
X81100000Y-52425000D03*
X81100000Y-53975000D03*
%TD*%
D46*
%TO.C,D1*%
X40900000Y-176950000D03*
X40900000Y-176000000D03*
X40900000Y-175050000D03*
X43100000Y-175050000D03*
X43100000Y-176000000D03*
X43100000Y-176950000D03*
%TD*%
D18*
%TO.C,C11*%
X55800000Y-164825000D03*
X55800000Y-166375000D03*
%TD*%
D15*
%TO.C,C15*%
X47225000Y-160200000D03*
X48775000Y-160200000D03*
%TD*%
D28*
%TO.C,R39*%
X70600000Y-165025000D03*
X70600000Y-163375000D03*
%TD*%
D44*
%TO.C,R14*%
X49425000Y-124400000D03*
X47775000Y-124400000D03*
%TD*%
D47*
%TO.C,U2*%
X50650000Y-164100000D03*
X51600000Y-164100000D03*
X52550000Y-164100000D03*
X52550000Y-166300000D03*
X51600000Y-166300000D03*
X50650000Y-166300000D03*
%TD*%
D28*
%TO.C,R5*%
X46400000Y-177225000D03*
X46400000Y-175575000D03*
%TD*%
D18*
%TO.C,C31*%
X81100000Y-57225000D03*
X81100000Y-58775000D03*
%TD*%
D44*
%TO.C,R15*%
X52425000Y-124400000D03*
X50775000Y-124400000D03*
%TD*%
D23*
%TO.C,Q3*%
X77550000Y-67510000D03*
X75650000Y-67510000D03*
X76600000Y-64890000D03*
%TD*%
D15*
%TO.C,C36*%
X70325000Y-107900000D03*
X71875000Y-107900000D03*
%TD*%
%TO.C,C4*%
X44825000Y-129200000D03*
X46375000Y-129200000D03*
%TD*%
D47*
%TO.C,U1*%
X51250000Y-173500000D03*
X52200000Y-173500000D03*
X53150000Y-173500000D03*
X53150000Y-175700000D03*
X52200000Y-175700000D03*
X51250000Y-175700000D03*
%TD*%
D15*
%TO.C,C14*%
X43025000Y-155200000D03*
X44575000Y-155200000D03*
%TD*%
D44*
%TO.C,R9*%
X49425000Y-126000000D03*
X47775000Y-126000000D03*
%TD*%
D15*
%TO.C,C35*%
X65825000Y-114900000D03*
X67375000Y-114900000D03*
%TD*%
D44*
%TO.C,R32*%
X77425000Y-69200000D03*
X75775000Y-69200000D03*
%TD*%
D17*
%TO.C,C12*%
X52375000Y-126000000D03*
X50825000Y-126000000D03*
%TD*%
D48*
%TO.C,R12*%
X57400000Y-164775000D03*
X57400000Y-166425000D03*
%TD*%
D49*
%TO.C,Q5*%
X41850000Y-161800000D03*
X43750000Y-161800000D03*
X42800000Y-163800000D03*
%TD*%
D50*
%TO.C,U6*%
X47362500Y-155250000D03*
X47362500Y-155750000D03*
X47362500Y-156250000D03*
X47362500Y-156750000D03*
D51*
X46850000Y-156762500D03*
X46350000Y-156762500D03*
D50*
X45837500Y-156750000D03*
X45837500Y-156250000D03*
X45837500Y-155750000D03*
X45837500Y-155250000D03*
D51*
X46350000Y-155237500D03*
X46850000Y-155237500D03*
%TD*%
D43*
%TO.C,C19*%
X58200000Y-180375000D03*
X58200000Y-178825000D03*
%TD*%
D52*
%TO.C,R6*%
X47775000Y-127600000D03*
X49425000Y-127600000D03*
%TD*%
D18*
%TO.C,C18*%
X56600000Y-178825000D03*
X56600000Y-180375000D03*
%TD*%
D17*
%TO.C,C5*%
X43375000Y-129200000D03*
X41825000Y-129200000D03*
%TD*%
D49*
%TO.C,Q4*%
X47050000Y-161800000D03*
X48950000Y-161800000D03*
X48000000Y-163800000D03*
%TD*%
D28*
%TO.C,R36*%
X64200000Y-165000000D03*
X64200000Y-163350000D03*
%TD*%
D44*
%TO.C,R33*%
X70400000Y-157500000D03*
X68750000Y-157500000D03*
%TD*%
D23*
%TO.C,Q6*%
X68650000Y-159190000D03*
X70550000Y-159190000D03*
X69600000Y-161810000D03*
%TD*%
D17*
%TO.C,C23*%
X44575000Y-153600000D03*
X43025000Y-153600000D03*
%TD*%
D28*
%TO.C,R4*%
X44800000Y-177225000D03*
X44800000Y-175575000D03*
%TD*%
D53*
%TO.C,SW1*%
X64010000Y-126000000D03*
X56390000Y-126000000D03*
%TD*%
D28*
%TO.C,R38*%
X67400000Y-165050000D03*
X67400000Y-163400000D03*
%TD*%
D44*
%TO.C,R1*%
X46425000Y-127600000D03*
X44775000Y-127600000D03*
%TD*%
%TO.C,R8*%
X46425000Y-124400000D03*
X44775000Y-124400000D03*
%TD*%
D48*
%TO.C,R10*%
X58000000Y-174175000D03*
X58000000Y-175825000D03*
%TD*%
D28*
%TO.C,R18*%
X38200000Y-178425000D03*
X38200000Y-176775000D03*
%TD*%
D48*
%TO.C,R35*%
X69000000Y-163375000D03*
X69000000Y-165025000D03*
%TD*%
D52*
%TO.C,R2*%
X51550000Y-177300000D03*
X53200000Y-177300000D03*
%TD*%
D18*
%TO.C,C33*%
X79500000Y-52425000D03*
X79500000Y-53975000D03*
%TD*%
D52*
%TO.C,R23*%
X63775000Y-157500000D03*
X65425000Y-157500000D03*
%TD*%
D28*
%TO.C,R17*%
X62600000Y-148025000D03*
X62600000Y-146375000D03*
%TD*%
D17*
%TO.C,C37*%
X68775000Y-109200000D03*
X67225000Y-109200000D03*
%TD*%
D54*
%TO.C,D2*%
X38200000Y-181812500D03*
X38200000Y-180187500D03*
%TD*%
D44*
%TO.C,R7*%
X49425000Y-129200000D03*
X47775000Y-129200000D03*
%TD*%
D15*
%TO.C,C34*%
X65725000Y-113300000D03*
X67275000Y-113300000D03*
%TD*%
D52*
%TO.C,R3*%
X50975000Y-168000000D03*
X52625000Y-168000000D03*
%TD*%
D17*
%TO.C,C3*%
X43400000Y-127600000D03*
X41850000Y-127600000D03*
%TD*%
D48*
%TO.C,R19*%
X45400000Y-161775000D03*
X45400000Y-163425000D03*
%TD*%
%TO.C,R20*%
X40200000Y-163775000D03*
X40200000Y-165425000D03*
%TD*%
D23*
%TO.C,Q7*%
X63650000Y-159190000D03*
X65550000Y-159190000D03*
X64600000Y-161810000D03*
%TD*%
D18*
%TO.C,C10*%
X56400000Y-174225000D03*
X56400000Y-175775000D03*
%TD*%
D15*
%TO.C,C8*%
X44850000Y-126000000D03*
X46400000Y-126000000D03*
%TD*%
D18*
%TO.C,C6*%
X48000000Y-175625000D03*
X48000000Y-177175000D03*
%TD*%
%TO.C,C7*%
X49600000Y-175625000D03*
X49600000Y-177175000D03*
%TD*%
D52*
%TO.C,R16*%
X47175000Y-158600000D03*
X48825000Y-158600000D03*
%TD*%
D45*
%TO.C,L2*%
X54475000Y-161800000D03*
X57525000Y-161800000D03*
%TD*%
D52*
%TO.C,R13*%
X54975000Y-168000000D03*
X56625000Y-168000000D03*
%TD*%
%TO.C,R11*%
X55775000Y-177300000D03*
X57425000Y-177300000D03*
%TD*%
M02*
