%TF.GenerationSoftware,KiCad,Pcbnew,(5.99.0-10506-gb986797469)*%
%TF.CreationDate,2021-06-08T23:03:07+02:00*%
%TF.ProjectId,Navi_2_0,4e617669-5f32-45f3-902e-6b696361645f,rev?*%
%TF.SameCoordinates,Original*%
%TF.FileFunction,Copper,L2,Inr*%
%TF.FilePolarity,Positive*%
%FSLAX46Y46*%
G04 Gerber Fmt 4.6, Leading zero omitted, Abs format (unit mm)*
G04 Created by KiCad (PCBNEW (5.99.0-10506-gb986797469)) date 2021-06-08 23:03:07*
%MOMM*%
%LPD*%
G01*
G04 APERTURE LIST*
%TA.AperFunction,ViaPad*%
%ADD10C,0.800000*%
%TD*%
G04 APERTURE END LIST*
D10*
%TO.N,GND*%
X65400000Y-126000000D03*
X67999926Y-110724020D03*
X43400000Y-125200000D03*
X34450000Y-75000000D03*
X115000000Y-47775000D03*
X61900000Y-104900000D03*
X101600000Y-50800000D03*
X50800000Y-63500000D03*
X42000000Y-153600000D03*
X34450000Y-160000000D03*
X101600000Y-63500000D03*
X88900000Y-63500000D03*
X66375693Y-108426208D03*
X34450000Y-125000000D03*
X91500000Y-62700000D03*
X49800000Y-118000000D03*
X127000000Y-76200000D03*
X101600000Y-76200000D03*
X49600000Y-174600000D03*
X139700000Y-76200000D03*
X61400000Y-158200000D03*
X34450000Y-115000000D03*
X38100000Y-63500000D03*
X51500000Y-165170498D03*
X63500000Y-88900000D03*
X49200000Y-102300000D03*
X144625000Y-55000000D03*
X144625000Y-70000000D03*
X42200000Y-150800000D03*
X144625000Y-50000000D03*
X67400000Y-112300000D03*
X40000000Y-47775000D03*
X53400000Y-124400000D03*
X56900000Y-104900000D03*
X45000000Y-47775000D03*
X35600000Y-174100000D03*
X71700000Y-177600000D03*
X34450000Y-100000000D03*
X100000000Y-47775000D03*
X114300000Y-50800000D03*
X60425500Y-134800000D03*
X72000000Y-152600000D03*
X75000000Y-47775000D03*
X130000000Y-47775000D03*
X34450000Y-60000000D03*
X34450000Y-120000000D03*
X34450000Y-105000000D03*
X53400000Y-126000000D03*
X34450000Y-175000000D03*
X49800000Y-114800000D03*
X60000000Y-47775000D03*
X45700000Y-130200000D03*
X56900000Y-102300000D03*
X144625000Y-60000000D03*
X144625000Y-65000000D03*
X61400000Y-160200000D03*
X70000000Y-47775000D03*
X53400000Y-169600000D03*
X135000000Y-47775000D03*
X63500000Y-76200000D03*
X56900000Y-103600000D03*
X39800000Y-182000000D03*
X98500000Y-60500000D03*
X60400000Y-177900000D03*
X65300000Y-124000000D03*
X45600000Y-137000000D03*
X62400000Y-149300000D03*
X76200000Y-76200000D03*
X92400000Y-59000000D03*
X64600000Y-178000000D03*
X127000000Y-50800000D03*
X110000000Y-47775000D03*
X59400000Y-160200000D03*
X97400000Y-68200000D03*
X96000000Y-56200000D03*
X34450000Y-165000000D03*
X86600000Y-52600000D03*
X67400000Y-117600000D03*
X49800000Y-121200000D03*
X63500000Y-63500000D03*
X144625000Y-75000000D03*
X68400000Y-178200000D03*
X86600000Y-59000000D03*
X60198000Y-148082000D03*
X34450000Y-65000000D03*
X114300000Y-76200000D03*
X39800000Y-179600000D03*
X139700000Y-50800000D03*
X55500000Y-180400000D03*
X57400000Y-113400000D03*
X92400000Y-52600000D03*
X96100000Y-48100000D03*
X49200000Y-104800000D03*
X71800000Y-171700000D03*
X69700000Y-167200000D03*
X38100000Y-76200000D03*
X50800000Y-88900000D03*
X38100000Y-88900000D03*
X34450000Y-155000000D03*
X34450000Y-180000000D03*
X50800000Y-50800000D03*
X49800000Y-122800000D03*
X38100000Y-50800000D03*
X52200000Y-174600000D03*
X49800000Y-119600000D03*
X34450000Y-95000000D03*
X68200000Y-114100000D03*
X139700000Y-63500000D03*
X34450000Y-110000000D03*
X63500000Y-50800000D03*
X34450000Y-50000000D03*
X39800000Y-176000000D03*
X140000000Y-47775000D03*
X65000000Y-47775000D03*
X49900000Y-160200000D03*
X51800000Y-136600000D03*
X99200000Y-76200000D03*
X35000000Y-183300000D03*
X60900000Y-99500000D03*
X48000000Y-174600000D03*
X37112678Y-181770893D03*
X68900000Y-117850498D03*
X34450000Y-90000000D03*
X43300000Y-178900000D03*
X51200000Y-182000000D03*
X48639021Y-125277805D03*
X59400000Y-158200000D03*
X89400000Y-56600000D03*
X34450000Y-170000000D03*
X50800000Y-76200000D03*
X62300000Y-150700000D03*
X105000000Y-47775000D03*
X81100000Y-59900000D03*
X50000000Y-47775000D03*
X41900000Y-126300000D03*
X34450000Y-80000000D03*
X127000000Y-63500000D03*
X80000000Y-47775000D03*
X114300000Y-63500000D03*
X60300000Y-172100000D03*
X35000000Y-47775000D03*
X44200000Y-180700000D03*
X34450000Y-70000000D03*
X49800000Y-116400000D03*
X57600000Y-168700000D03*
X34450000Y-55000000D03*
X55000000Y-47775000D03*
X71900000Y-106800000D03*
X87500000Y-62800000D03*
X63800000Y-167400000D03*
X144625000Y-80000000D03*
X96100000Y-52200000D03*
X67300000Y-168800000D03*
X46026944Y-142373056D03*
X34450000Y-85000000D03*
X51800000Y-142400000D03*
X120000000Y-47775000D03*
X78300000Y-52400000D03*
X51200000Y-179600000D03*
X125000000Y-47775000D03*
X88900000Y-76200000D03*
X62500000Y-117225500D03*
%TO.N,+BATT*%
X61500000Y-164700000D03*
X59300000Y-164700000D03*
X57200000Y-174200000D03*
X43651000Y-152100000D03*
X53700000Y-167800000D03*
X44775000Y-123125000D03*
%TO.N,+3V3*%
X49900000Y-158600000D03*
X50500000Y-129200000D03*
X50500000Y-128100000D03*
X43400000Y-126300000D03*
X74700000Y-67500000D03*
X56625000Y-164775000D03*
X69800000Y-102300000D03*
X45400000Y-152800000D03*
X56000000Y-109700000D03*
X70400000Y-156300000D03*
%TO.N,EINK_VCC*%
X66000000Y-107500000D03*
X66400000Y-112300000D03*
%TO.N,I2C_DAT*%
X50038000Y-151638000D03*
X48100000Y-157400000D03*
%TO.N,EINK_SPI_MOSI*%
X56000000Y-116700000D03*
X56000000Y-135600000D03*
%TO.N,EINK_SPI_CLK*%
X53400000Y-114500000D03*
X53000000Y-135700000D03*
%TO.N,EINK_~CS*%
X54800000Y-115200000D03*
X54500000Y-135700000D03*
%TO.N,EINK_DC*%
X60100000Y-114200000D03*
X56900000Y-128700000D03*
%TO.N,EINK_STATE*%
X47100000Y-113500000D03*
X47100000Y-130200000D03*
%TO.N,SD_DAT0*%
X68005969Y-166100000D03*
X68000000Y-146400000D03*
%TO.N,SD_DAT1*%
X69700000Y-147400000D03*
X69562500Y-166062500D03*
%TO.N,SD_DAT2*%
X62900000Y-161800000D03*
X61900000Y-132000000D03*
%TO.N,EINK_VCC_~EN*%
X72100000Y-101400000D03*
X72100000Y-129700000D03*
%TO.N,SD_VCC_nEN*%
X59800000Y-150900000D03*
X57100000Y-150900000D03*
%TO.N,GPS_VCC_nEN*%
X52700000Y-100100000D03*
X50300000Y-133800000D03*
%TO.N,UART1_RX*%
X44600000Y-165000000D03*
X45200000Y-147200000D03*
%TO.N,UART1_TX*%
X42600000Y-147100000D03*
X42900000Y-165000000D03*
%TO.N,Net-(SW2-Pad1)*%
X45774500Y-135225500D03*
%TO.N,G_INT1*%
X46600000Y-154400000D03*
X47700000Y-146900000D03*
%TO.N,SD_nDET*%
X61100000Y-133800000D03*
X61100000Y-156200000D03*
X48500000Y-135100000D03*
X48600000Y-128400000D03*
%TO.N,+5V*%
X41970498Y-177000000D03*
X54600000Y-177000000D03*
X49800000Y-178300000D03*
X41474500Y-168424744D03*
X47800000Y-123400000D03*
%TO.N,ESP_~RST*%
X51000000Y-145300000D03*
X48000000Y-164900000D03*
%TO.N,SD_nCS*%
X65100000Y-167300000D03*
X65500000Y-145100000D03*
%TO.N,GPS_SUPPLY*%
X76700000Y-60400000D03*
X76700000Y-62600000D03*
X97400000Y-55100000D03*
X81000000Y-55200000D03*
%TO.N,Net-(R18-Pad2)*%
X72100000Y-148700000D03*
X72500000Y-182600000D03*
%TO.N,SD_CLK*%
X66700000Y-130700000D03*
X67300000Y-167300000D03*
%TO.N,SD_DAT3*%
X64500000Y-136100000D03*
X63950000Y-166050000D03*
%TO.N,Net-(J2-Pad19)*%
X65100000Y-112300000D03*
X65135000Y-102365000D03*
%TO.N,Net-(J2-Pad18)*%
X65000000Y-101095000D03*
X61637701Y-112537701D03*
%TO.N,Net-(Q5-Pad2)*%
X40000000Y-161800000D03*
X40000000Y-173600000D03*
%TO.N,Net-(Q4-Pad2)*%
X41150989Y-165425000D03*
X46200000Y-165100000D03*
%TO.N,I2C_CLK*%
X48100000Y-154300000D03*
X44300000Y-145900000D03*
%TO.N,UART_GPS_RX*%
X59800000Y-149700000D03*
X52325500Y-145700000D03*
%TO.N,UART_GPS_TX*%
X54300000Y-151100000D03*
X54200000Y-152600000D03*
%TD*%
%TA.AperFunction,Conductor*%
%TO.N,+3V3*%
G36*
X34497144Y-47220002D02*
G01*
X34543637Y-47273658D01*
X34553741Y-47343932D01*
X34528986Y-47402703D01*
X34480651Y-47465695D01*
X34480649Y-47465699D01*
X34475622Y-47472250D01*
X34415132Y-47618285D01*
X34394500Y-47775000D01*
X34415132Y-47931715D01*
X34475622Y-48077750D01*
X34571847Y-48203153D01*
X34697250Y-48299378D01*
X34843285Y-48359868D01*
X35000000Y-48380500D01*
X35008188Y-48379422D01*
X35148527Y-48360946D01*
X35156715Y-48359868D01*
X35302750Y-48299378D01*
X35428153Y-48203153D01*
X35524378Y-48077750D01*
X35584868Y-47931715D01*
X35605500Y-47775000D01*
X35584868Y-47618285D01*
X35524378Y-47472250D01*
X35519351Y-47465699D01*
X35519349Y-47465695D01*
X35471014Y-47402703D01*
X35445414Y-47336483D01*
X35459679Y-47266934D01*
X35509280Y-47216139D01*
X35570977Y-47200000D01*
X39429023Y-47200000D01*
X39497144Y-47220002D01*
X39543637Y-47273658D01*
X39553741Y-47343932D01*
X39528986Y-47402703D01*
X39480651Y-47465695D01*
X39480649Y-47465699D01*
X39475622Y-47472250D01*
X39415132Y-47618285D01*
X39394500Y-47775000D01*
X39415132Y-47931715D01*
X39475622Y-48077750D01*
X39571847Y-48203153D01*
X39697250Y-48299378D01*
X39843285Y-48359868D01*
X40000000Y-48380500D01*
X40008188Y-48379422D01*
X40148527Y-48360946D01*
X40156715Y-48359868D01*
X40302750Y-48299378D01*
X40428153Y-48203153D01*
X40524378Y-48077750D01*
X40584868Y-47931715D01*
X40605500Y-47775000D01*
X40584868Y-47618285D01*
X40524378Y-47472250D01*
X40519351Y-47465699D01*
X40519349Y-47465695D01*
X40471014Y-47402703D01*
X40445414Y-47336483D01*
X40459679Y-47266934D01*
X40509280Y-47216139D01*
X40570977Y-47200000D01*
X44429023Y-47200000D01*
X44497144Y-47220002D01*
X44543637Y-47273658D01*
X44553741Y-47343932D01*
X44528986Y-47402703D01*
X44480651Y-47465695D01*
X44480649Y-47465699D01*
X44475622Y-47472250D01*
X44415132Y-47618285D01*
X44394500Y-47775000D01*
X44415132Y-47931715D01*
X44475622Y-48077750D01*
X44571847Y-48203153D01*
X44697250Y-48299378D01*
X44843285Y-48359868D01*
X45000000Y-48380500D01*
X45008188Y-48379422D01*
X45148527Y-48360946D01*
X45156715Y-48359868D01*
X45302750Y-48299378D01*
X45428153Y-48203153D01*
X45524378Y-48077750D01*
X45584868Y-47931715D01*
X45605500Y-47775000D01*
X45584868Y-47618285D01*
X45524378Y-47472250D01*
X45519351Y-47465699D01*
X45519349Y-47465695D01*
X45471014Y-47402703D01*
X45445414Y-47336483D01*
X45459679Y-47266934D01*
X45509280Y-47216139D01*
X45570977Y-47200000D01*
X49429023Y-47200000D01*
X49497144Y-47220002D01*
X49543637Y-47273658D01*
X49553741Y-47343932D01*
X49528986Y-47402703D01*
X49480651Y-47465695D01*
X49480649Y-47465699D01*
X49475622Y-47472250D01*
X49415132Y-47618285D01*
X49394500Y-47775000D01*
X49415132Y-47931715D01*
X49475622Y-48077750D01*
X49571847Y-48203153D01*
X49697250Y-48299378D01*
X49843285Y-48359868D01*
X50000000Y-48380500D01*
X50008188Y-48379422D01*
X50148527Y-48360946D01*
X50156715Y-48359868D01*
X50302750Y-48299378D01*
X50428153Y-48203153D01*
X50524378Y-48077750D01*
X50584868Y-47931715D01*
X50605500Y-47775000D01*
X50584868Y-47618285D01*
X50524378Y-47472250D01*
X50519351Y-47465699D01*
X50519349Y-47465695D01*
X50471014Y-47402703D01*
X50445414Y-47336483D01*
X50459679Y-47266934D01*
X50509280Y-47216139D01*
X50570977Y-47200000D01*
X54429023Y-47200000D01*
X54497144Y-47220002D01*
X54543637Y-47273658D01*
X54553741Y-47343932D01*
X54528986Y-47402703D01*
X54480651Y-47465695D01*
X54480649Y-47465699D01*
X54475622Y-47472250D01*
X54415132Y-47618285D01*
X54394500Y-47775000D01*
X54415132Y-47931715D01*
X54475622Y-48077750D01*
X54571847Y-48203153D01*
X54697250Y-48299378D01*
X54843285Y-48359868D01*
X55000000Y-48380500D01*
X55008188Y-48379422D01*
X55148527Y-48360946D01*
X55156715Y-48359868D01*
X55302750Y-48299378D01*
X55428153Y-48203153D01*
X55524378Y-48077750D01*
X55584868Y-47931715D01*
X55605500Y-47775000D01*
X55584868Y-47618285D01*
X55524378Y-47472250D01*
X55519351Y-47465699D01*
X55519349Y-47465695D01*
X55471014Y-47402703D01*
X55445414Y-47336483D01*
X55459679Y-47266934D01*
X55509280Y-47216139D01*
X55570977Y-47200000D01*
X59429023Y-47200000D01*
X59497144Y-47220002D01*
X59543637Y-47273658D01*
X59553741Y-47343932D01*
X59528986Y-47402703D01*
X59480651Y-47465695D01*
X59480649Y-47465699D01*
X59475622Y-47472250D01*
X59415132Y-47618285D01*
X59394500Y-47775000D01*
X59415132Y-47931715D01*
X59475622Y-48077750D01*
X59571847Y-48203153D01*
X59697250Y-48299378D01*
X59843285Y-48359868D01*
X60000000Y-48380500D01*
X60008188Y-48379422D01*
X60148527Y-48360946D01*
X60156715Y-48359868D01*
X60302750Y-48299378D01*
X60428153Y-48203153D01*
X60524378Y-48077750D01*
X60584868Y-47931715D01*
X60605500Y-47775000D01*
X60584868Y-47618285D01*
X60524378Y-47472250D01*
X60519351Y-47465699D01*
X60519349Y-47465695D01*
X60471014Y-47402703D01*
X60445414Y-47336483D01*
X60459679Y-47266934D01*
X60509280Y-47216139D01*
X60570977Y-47200000D01*
X64429023Y-47200000D01*
X64497144Y-47220002D01*
X64543637Y-47273658D01*
X64553741Y-47343932D01*
X64528986Y-47402703D01*
X64480651Y-47465695D01*
X64480649Y-47465699D01*
X64475622Y-47472250D01*
X64415132Y-47618285D01*
X64394500Y-47775000D01*
X64415132Y-47931715D01*
X64475622Y-48077750D01*
X64571847Y-48203153D01*
X64697250Y-48299378D01*
X64843285Y-48359868D01*
X65000000Y-48380500D01*
X65008188Y-48379422D01*
X65148527Y-48360946D01*
X65156715Y-48359868D01*
X65302750Y-48299378D01*
X65428153Y-48203153D01*
X65524378Y-48077750D01*
X65584868Y-47931715D01*
X65605500Y-47775000D01*
X65584868Y-47618285D01*
X65524378Y-47472250D01*
X65519351Y-47465699D01*
X65519349Y-47465695D01*
X65471014Y-47402703D01*
X65445414Y-47336483D01*
X65459679Y-47266934D01*
X65509280Y-47216139D01*
X65570977Y-47200000D01*
X69429023Y-47200000D01*
X69497144Y-47220002D01*
X69543637Y-47273658D01*
X69553741Y-47343932D01*
X69528986Y-47402703D01*
X69480651Y-47465695D01*
X69480649Y-47465699D01*
X69475622Y-47472250D01*
X69415132Y-47618285D01*
X69394500Y-47775000D01*
X69415132Y-47931715D01*
X69475622Y-48077750D01*
X69571847Y-48203153D01*
X69697250Y-48299378D01*
X69843285Y-48359868D01*
X70000000Y-48380500D01*
X70008188Y-48379422D01*
X70148527Y-48360946D01*
X70156715Y-48359868D01*
X70302750Y-48299378D01*
X70428153Y-48203153D01*
X70524378Y-48077750D01*
X70584868Y-47931715D01*
X70605500Y-47775000D01*
X70584868Y-47618285D01*
X70524378Y-47472250D01*
X70519351Y-47465699D01*
X70519349Y-47465695D01*
X70471014Y-47402703D01*
X70445414Y-47336483D01*
X70459679Y-47266934D01*
X70509280Y-47216139D01*
X70570977Y-47200000D01*
X74429023Y-47200000D01*
X74497144Y-47220002D01*
X74543637Y-47273658D01*
X74553741Y-47343932D01*
X74528986Y-47402703D01*
X74480651Y-47465695D01*
X74480649Y-47465699D01*
X74475622Y-47472250D01*
X74415132Y-47618285D01*
X74394500Y-47775000D01*
X74415132Y-47931715D01*
X74475622Y-48077750D01*
X74571847Y-48203153D01*
X74697250Y-48299378D01*
X74843285Y-48359868D01*
X75000000Y-48380500D01*
X75008188Y-48379422D01*
X75148527Y-48360946D01*
X75156715Y-48359868D01*
X75302750Y-48299378D01*
X75428153Y-48203153D01*
X75524378Y-48077750D01*
X75584868Y-47931715D01*
X75605500Y-47775000D01*
X75584868Y-47618285D01*
X75524378Y-47472250D01*
X75519351Y-47465699D01*
X75519349Y-47465695D01*
X75471014Y-47402703D01*
X75445414Y-47336483D01*
X75459679Y-47266934D01*
X75509280Y-47216139D01*
X75570977Y-47200000D01*
X79429023Y-47200000D01*
X79497144Y-47220002D01*
X79543637Y-47273658D01*
X79553741Y-47343932D01*
X79528986Y-47402703D01*
X79480651Y-47465695D01*
X79480649Y-47465699D01*
X79475622Y-47472250D01*
X79415132Y-47618285D01*
X79394500Y-47775000D01*
X79415132Y-47931715D01*
X79475622Y-48077750D01*
X79571847Y-48203153D01*
X79697250Y-48299378D01*
X79843285Y-48359868D01*
X80000000Y-48380500D01*
X80008188Y-48379422D01*
X80148527Y-48360946D01*
X80156715Y-48359868D01*
X80302750Y-48299378D01*
X80428153Y-48203153D01*
X80524378Y-48077750D01*
X80584868Y-47931715D01*
X80605500Y-47775000D01*
X80584868Y-47618285D01*
X80524378Y-47472250D01*
X80519351Y-47465699D01*
X80519349Y-47465695D01*
X80471014Y-47402703D01*
X80445414Y-47336483D01*
X80459679Y-47266934D01*
X80509280Y-47216139D01*
X80570977Y-47200000D01*
X85874000Y-47200000D01*
X85942121Y-47220002D01*
X85988614Y-47273658D01*
X86000000Y-47326000D01*
X86000000Y-51600000D01*
X93000000Y-51600000D01*
X93000000Y-50800000D01*
X100994500Y-50800000D01*
X101015132Y-50956715D01*
X101075622Y-51102750D01*
X101171847Y-51228153D01*
X101297250Y-51324378D01*
X101443285Y-51384868D01*
X101600000Y-51405500D01*
X101608188Y-51404422D01*
X101748527Y-51385946D01*
X101756715Y-51384868D01*
X101902750Y-51324378D01*
X102028153Y-51228153D01*
X102124378Y-51102750D01*
X102184868Y-50956715D01*
X102205500Y-50800000D01*
X113694500Y-50800000D01*
X113715132Y-50956715D01*
X113775622Y-51102750D01*
X113871847Y-51228153D01*
X113997250Y-51324378D01*
X114143285Y-51384868D01*
X114300000Y-51405500D01*
X114308188Y-51404422D01*
X114448527Y-51385946D01*
X114456715Y-51384868D01*
X114602750Y-51324378D01*
X114728153Y-51228153D01*
X114824378Y-51102750D01*
X114884868Y-50956715D01*
X114905500Y-50800000D01*
X126394500Y-50800000D01*
X126415132Y-50956715D01*
X126475622Y-51102750D01*
X126571847Y-51228153D01*
X126697250Y-51324378D01*
X126843285Y-51384868D01*
X127000000Y-51405500D01*
X127008188Y-51404422D01*
X127148527Y-51385946D01*
X127156715Y-51384868D01*
X127302750Y-51324378D01*
X127428153Y-51228153D01*
X127524378Y-51102750D01*
X127584868Y-50956715D01*
X127605500Y-50800000D01*
X139094500Y-50800000D01*
X139115132Y-50956715D01*
X139175622Y-51102750D01*
X139271847Y-51228153D01*
X139397250Y-51324378D01*
X139543285Y-51384868D01*
X139700000Y-51405500D01*
X139708188Y-51404422D01*
X139848527Y-51385946D01*
X139856715Y-51384868D01*
X140002750Y-51324378D01*
X140128153Y-51228153D01*
X140224378Y-51102750D01*
X140284868Y-50956715D01*
X140305500Y-50800000D01*
X140284868Y-50643285D01*
X140224378Y-50497250D01*
X140128153Y-50371847D01*
X140002750Y-50275622D01*
X139856715Y-50215132D01*
X139700000Y-50194500D01*
X139543285Y-50215132D01*
X139397250Y-50275622D01*
X139271847Y-50371847D01*
X139175622Y-50497250D01*
X139115132Y-50643285D01*
X139094500Y-50800000D01*
X127605500Y-50800000D01*
X127584868Y-50643285D01*
X127524378Y-50497250D01*
X127428153Y-50371847D01*
X127302750Y-50275622D01*
X127156715Y-50215132D01*
X127000000Y-50194500D01*
X126843285Y-50215132D01*
X126697250Y-50275622D01*
X126571847Y-50371847D01*
X126475622Y-50497250D01*
X126415132Y-50643285D01*
X126394500Y-50800000D01*
X114905500Y-50800000D01*
X114884868Y-50643285D01*
X114824378Y-50497250D01*
X114728153Y-50371847D01*
X114602750Y-50275622D01*
X114456715Y-50215132D01*
X114300000Y-50194500D01*
X114143285Y-50215132D01*
X113997250Y-50275622D01*
X113871847Y-50371847D01*
X113775622Y-50497250D01*
X113715132Y-50643285D01*
X113694500Y-50800000D01*
X102205500Y-50800000D01*
X102184868Y-50643285D01*
X102124378Y-50497250D01*
X102028153Y-50371847D01*
X101902750Y-50275622D01*
X101756715Y-50215132D01*
X101600000Y-50194500D01*
X101443285Y-50215132D01*
X101297250Y-50275622D01*
X101171847Y-50371847D01*
X101075622Y-50497250D01*
X101015132Y-50643285D01*
X100994500Y-50800000D01*
X93000000Y-50800000D01*
X93000000Y-48100000D01*
X95494500Y-48100000D01*
X95515132Y-48256715D01*
X95575622Y-48402750D01*
X95671847Y-48528153D01*
X95797250Y-48624378D01*
X95943285Y-48684868D01*
X96100000Y-48705500D01*
X96108188Y-48704422D01*
X96248527Y-48685946D01*
X96256715Y-48684868D01*
X96402750Y-48624378D01*
X96528153Y-48528153D01*
X96624378Y-48402750D01*
X96684868Y-48256715D01*
X96705500Y-48100000D01*
X96684868Y-47943285D01*
X96624378Y-47797250D01*
X96528153Y-47671847D01*
X96402750Y-47575622D01*
X96256715Y-47515132D01*
X96100000Y-47494500D01*
X95943285Y-47515132D01*
X95797250Y-47575622D01*
X95671847Y-47671847D01*
X95575622Y-47797250D01*
X95515132Y-47943285D01*
X95494500Y-48100000D01*
X93000000Y-48100000D01*
X93000000Y-47326000D01*
X93020002Y-47257879D01*
X93073658Y-47211386D01*
X93126000Y-47200000D01*
X99429023Y-47200000D01*
X99497144Y-47220002D01*
X99543637Y-47273658D01*
X99553741Y-47343932D01*
X99528986Y-47402703D01*
X99480651Y-47465695D01*
X99480649Y-47465699D01*
X99475622Y-47472250D01*
X99415132Y-47618285D01*
X99394500Y-47775000D01*
X99415132Y-47931715D01*
X99475622Y-48077750D01*
X99571847Y-48203153D01*
X99697250Y-48299378D01*
X99843285Y-48359868D01*
X100000000Y-48380500D01*
X100008188Y-48379422D01*
X100148527Y-48360946D01*
X100156715Y-48359868D01*
X100302750Y-48299378D01*
X100428153Y-48203153D01*
X100524378Y-48077750D01*
X100584868Y-47931715D01*
X100605500Y-47775000D01*
X100584868Y-47618285D01*
X100524378Y-47472250D01*
X100519351Y-47465699D01*
X100519349Y-47465695D01*
X100471014Y-47402703D01*
X100445414Y-47336483D01*
X100459679Y-47266934D01*
X100509280Y-47216139D01*
X100570977Y-47200000D01*
X104429023Y-47200000D01*
X104497144Y-47220002D01*
X104543637Y-47273658D01*
X104553741Y-47343932D01*
X104528986Y-47402703D01*
X104480651Y-47465695D01*
X104480649Y-47465699D01*
X104475622Y-47472250D01*
X104415132Y-47618285D01*
X104394500Y-47775000D01*
X104415132Y-47931715D01*
X104475622Y-48077750D01*
X104571847Y-48203153D01*
X104697250Y-48299378D01*
X104843285Y-48359868D01*
X105000000Y-48380500D01*
X105008188Y-48379422D01*
X105148527Y-48360946D01*
X105156715Y-48359868D01*
X105302750Y-48299378D01*
X105428153Y-48203153D01*
X105524378Y-48077750D01*
X105584868Y-47931715D01*
X105605500Y-47775000D01*
X105584868Y-47618285D01*
X105524378Y-47472250D01*
X105519351Y-47465699D01*
X105519349Y-47465695D01*
X105471014Y-47402703D01*
X105445414Y-47336483D01*
X105459679Y-47266934D01*
X105509280Y-47216139D01*
X105570977Y-47200000D01*
X109429023Y-47200000D01*
X109497144Y-47220002D01*
X109543637Y-47273658D01*
X109553741Y-47343932D01*
X109528986Y-47402703D01*
X109480651Y-47465695D01*
X109480649Y-47465699D01*
X109475622Y-47472250D01*
X109415132Y-47618285D01*
X109394500Y-47775000D01*
X109415132Y-47931715D01*
X109475622Y-48077750D01*
X109571847Y-48203153D01*
X109697250Y-48299378D01*
X109843285Y-48359868D01*
X110000000Y-48380500D01*
X110008188Y-48379422D01*
X110148527Y-48360946D01*
X110156715Y-48359868D01*
X110302750Y-48299378D01*
X110428153Y-48203153D01*
X110524378Y-48077750D01*
X110584868Y-47931715D01*
X110605500Y-47775000D01*
X110584868Y-47618285D01*
X110524378Y-47472250D01*
X110519351Y-47465699D01*
X110519349Y-47465695D01*
X110471014Y-47402703D01*
X110445414Y-47336483D01*
X110459679Y-47266934D01*
X110509280Y-47216139D01*
X110570977Y-47200000D01*
X114429023Y-47200000D01*
X114497144Y-47220002D01*
X114543637Y-47273658D01*
X114553741Y-47343932D01*
X114528986Y-47402703D01*
X114480651Y-47465695D01*
X114480649Y-47465699D01*
X114475622Y-47472250D01*
X114415132Y-47618285D01*
X114394500Y-47775000D01*
X114415132Y-47931715D01*
X114475622Y-48077750D01*
X114571847Y-48203153D01*
X114697250Y-48299378D01*
X114843285Y-48359868D01*
X115000000Y-48380500D01*
X115008188Y-48379422D01*
X115148527Y-48360946D01*
X115156715Y-48359868D01*
X115302750Y-48299378D01*
X115428153Y-48203153D01*
X115524378Y-48077750D01*
X115584868Y-47931715D01*
X115605500Y-47775000D01*
X115584868Y-47618285D01*
X115524378Y-47472250D01*
X115519351Y-47465699D01*
X115519349Y-47465695D01*
X115471014Y-47402703D01*
X115445414Y-47336483D01*
X115459679Y-47266934D01*
X115509280Y-47216139D01*
X115570977Y-47200000D01*
X119429023Y-47200000D01*
X119497144Y-47220002D01*
X119543637Y-47273658D01*
X119553741Y-47343932D01*
X119528986Y-47402703D01*
X119480651Y-47465695D01*
X119480649Y-47465699D01*
X119475622Y-47472250D01*
X119415132Y-47618285D01*
X119394500Y-47775000D01*
X119415132Y-47931715D01*
X119475622Y-48077750D01*
X119571847Y-48203153D01*
X119697250Y-48299378D01*
X119843285Y-48359868D01*
X120000000Y-48380500D01*
X120008188Y-48379422D01*
X120148527Y-48360946D01*
X120156715Y-48359868D01*
X120302750Y-48299378D01*
X120428153Y-48203153D01*
X120524378Y-48077750D01*
X120584868Y-47931715D01*
X120605500Y-47775000D01*
X120584868Y-47618285D01*
X120524378Y-47472250D01*
X120519351Y-47465699D01*
X120519349Y-47465695D01*
X120471014Y-47402703D01*
X120445414Y-47336483D01*
X120459679Y-47266934D01*
X120509280Y-47216139D01*
X120570977Y-47200000D01*
X124429023Y-47200000D01*
X124497144Y-47220002D01*
X124543637Y-47273658D01*
X124553741Y-47343932D01*
X124528986Y-47402703D01*
X124480651Y-47465695D01*
X124480649Y-47465699D01*
X124475622Y-47472250D01*
X124415132Y-47618285D01*
X124394500Y-47775000D01*
X124415132Y-47931715D01*
X124475622Y-48077750D01*
X124571847Y-48203153D01*
X124697250Y-48299378D01*
X124843285Y-48359868D01*
X125000000Y-48380500D01*
X125008188Y-48379422D01*
X125148527Y-48360946D01*
X125156715Y-48359868D01*
X125302750Y-48299378D01*
X125428153Y-48203153D01*
X125524378Y-48077750D01*
X125584868Y-47931715D01*
X125605500Y-47775000D01*
X125584868Y-47618285D01*
X125524378Y-47472250D01*
X125519351Y-47465699D01*
X125519349Y-47465695D01*
X125471014Y-47402703D01*
X125445414Y-47336483D01*
X125459679Y-47266934D01*
X125509280Y-47216139D01*
X125570977Y-47200000D01*
X129429023Y-47200000D01*
X129497144Y-47220002D01*
X129543637Y-47273658D01*
X129553741Y-47343932D01*
X129528986Y-47402703D01*
X129480651Y-47465695D01*
X129480649Y-47465699D01*
X129475622Y-47472250D01*
X129415132Y-47618285D01*
X129394500Y-47775000D01*
X129415132Y-47931715D01*
X129475622Y-48077750D01*
X129571847Y-48203153D01*
X129697250Y-48299378D01*
X129843285Y-48359868D01*
X130000000Y-48380500D01*
X130008188Y-48379422D01*
X130148527Y-48360946D01*
X130156715Y-48359868D01*
X130302750Y-48299378D01*
X130428153Y-48203153D01*
X130524378Y-48077750D01*
X130584868Y-47931715D01*
X130605500Y-47775000D01*
X130584868Y-47618285D01*
X130524378Y-47472250D01*
X130519351Y-47465699D01*
X130519349Y-47465695D01*
X130471014Y-47402703D01*
X130445414Y-47336483D01*
X130459679Y-47266934D01*
X130509280Y-47216139D01*
X130570977Y-47200000D01*
X134429023Y-47200000D01*
X134497144Y-47220002D01*
X134543637Y-47273658D01*
X134553741Y-47343932D01*
X134528986Y-47402703D01*
X134480651Y-47465695D01*
X134480649Y-47465699D01*
X134475622Y-47472250D01*
X134415132Y-47618285D01*
X134394500Y-47775000D01*
X134415132Y-47931715D01*
X134475622Y-48077750D01*
X134571847Y-48203153D01*
X134697250Y-48299378D01*
X134843285Y-48359868D01*
X135000000Y-48380500D01*
X135008188Y-48379422D01*
X135148527Y-48360946D01*
X135156715Y-48359868D01*
X135302750Y-48299378D01*
X135428153Y-48203153D01*
X135524378Y-48077750D01*
X135584868Y-47931715D01*
X135605500Y-47775000D01*
X135584868Y-47618285D01*
X135524378Y-47472250D01*
X135519351Y-47465699D01*
X135519349Y-47465695D01*
X135471014Y-47402703D01*
X135445414Y-47336483D01*
X135459679Y-47266934D01*
X135509280Y-47216139D01*
X135570977Y-47200000D01*
X139429023Y-47200000D01*
X139497144Y-47220002D01*
X139543637Y-47273658D01*
X139553741Y-47343932D01*
X139528986Y-47402703D01*
X139480651Y-47465695D01*
X139480649Y-47465699D01*
X139475622Y-47472250D01*
X139415132Y-47618285D01*
X139394500Y-47775000D01*
X139415132Y-47931715D01*
X139475622Y-48077750D01*
X139571847Y-48203153D01*
X139697250Y-48299378D01*
X139843285Y-48359868D01*
X140000000Y-48380500D01*
X140008188Y-48379422D01*
X140148527Y-48360946D01*
X140156715Y-48359868D01*
X140302750Y-48299378D01*
X140428153Y-48203153D01*
X140524378Y-48077750D01*
X140584868Y-47931715D01*
X140605500Y-47775000D01*
X140584868Y-47618285D01*
X140524378Y-47472250D01*
X140519351Y-47465699D01*
X140519349Y-47465695D01*
X140471014Y-47402703D01*
X140445414Y-47336483D01*
X140459679Y-47266934D01*
X140509280Y-47216139D01*
X140570977Y-47200000D01*
X145024000Y-47200000D01*
X145092121Y-47220002D01*
X145138614Y-47273658D01*
X145150000Y-47326000D01*
X145150000Y-49390657D01*
X145129998Y-49458778D01*
X145076342Y-49505271D01*
X145006068Y-49515375D01*
X144947297Y-49490620D01*
X144934305Y-49480651D01*
X144934301Y-49480649D01*
X144927750Y-49475622D01*
X144781715Y-49415132D01*
X144625000Y-49394500D01*
X144468285Y-49415132D01*
X144322250Y-49475622D01*
X144196847Y-49571847D01*
X144100622Y-49697250D01*
X144040132Y-49843285D01*
X144019500Y-50000000D01*
X144040132Y-50156715D01*
X144100622Y-50302750D01*
X144196847Y-50428153D01*
X144322250Y-50524378D01*
X144468285Y-50584868D01*
X144625000Y-50605500D01*
X144633188Y-50604422D01*
X144773527Y-50585946D01*
X144781715Y-50584868D01*
X144927750Y-50524378D01*
X144934301Y-50519351D01*
X144934305Y-50519349D01*
X144947297Y-50509380D01*
X145013517Y-50483780D01*
X145083066Y-50498045D01*
X145133861Y-50547647D01*
X145150000Y-50609343D01*
X145150000Y-54390657D01*
X145129998Y-54458778D01*
X145076342Y-54505271D01*
X145006068Y-54515375D01*
X144947297Y-54490620D01*
X144934305Y-54480651D01*
X144934301Y-54480649D01*
X144927750Y-54475622D01*
X144781715Y-54415132D01*
X144625000Y-54394500D01*
X144468285Y-54415132D01*
X144322250Y-54475622D01*
X144196847Y-54571847D01*
X144100622Y-54697250D01*
X144040132Y-54843285D01*
X144019500Y-55000000D01*
X144040132Y-55156715D01*
X144100622Y-55302750D01*
X144196847Y-55428153D01*
X144322250Y-55524378D01*
X144468285Y-55584868D01*
X144625000Y-55605500D01*
X144633188Y-55604422D01*
X144773527Y-55585946D01*
X144781715Y-55584868D01*
X144927750Y-55524378D01*
X144934301Y-55519351D01*
X144934305Y-55519349D01*
X144947297Y-55509380D01*
X145013517Y-55483780D01*
X145083066Y-55498045D01*
X145133861Y-55547647D01*
X145150000Y-55609343D01*
X145150000Y-59390657D01*
X145129998Y-59458778D01*
X145076342Y-59505271D01*
X145006068Y-59515375D01*
X144947297Y-59490620D01*
X144934305Y-59480651D01*
X144934301Y-59480649D01*
X144927750Y-59475622D01*
X144781715Y-59415132D01*
X144625000Y-59394500D01*
X144468285Y-59415132D01*
X144322250Y-59475622D01*
X144196847Y-59571847D01*
X144100622Y-59697250D01*
X144040132Y-59843285D01*
X144019500Y-60000000D01*
X144040132Y-60156715D01*
X144100622Y-60302750D01*
X144196847Y-60428153D01*
X144322250Y-60524378D01*
X144468285Y-60584868D01*
X144625000Y-60605500D01*
X144633188Y-60604422D01*
X144773527Y-60585946D01*
X144781715Y-60584868D01*
X144927750Y-60524378D01*
X144934301Y-60519351D01*
X144934305Y-60519349D01*
X144947297Y-60509380D01*
X145013517Y-60483780D01*
X145083066Y-60498045D01*
X145133861Y-60547647D01*
X145150000Y-60609343D01*
X145150000Y-64390657D01*
X145129998Y-64458778D01*
X145076342Y-64505271D01*
X145006068Y-64515375D01*
X144947297Y-64490620D01*
X144934305Y-64480651D01*
X144934301Y-64480649D01*
X144927750Y-64475622D01*
X144781715Y-64415132D01*
X144625000Y-64394500D01*
X144468285Y-64415132D01*
X144322250Y-64475622D01*
X144196847Y-64571847D01*
X144100622Y-64697250D01*
X144040132Y-64843285D01*
X144019500Y-65000000D01*
X144040132Y-65156715D01*
X144100622Y-65302750D01*
X144196847Y-65428153D01*
X144322250Y-65524378D01*
X144468285Y-65584868D01*
X144625000Y-65605500D01*
X144633188Y-65604422D01*
X144773527Y-65585946D01*
X144781715Y-65584868D01*
X144927750Y-65524378D01*
X144934301Y-65519351D01*
X144934305Y-65519349D01*
X144947297Y-65509380D01*
X145013517Y-65483780D01*
X145083066Y-65498045D01*
X145133861Y-65547647D01*
X145150000Y-65609343D01*
X145150000Y-69390657D01*
X145129998Y-69458778D01*
X145076342Y-69505271D01*
X145006068Y-69515375D01*
X144947297Y-69490620D01*
X144934305Y-69480651D01*
X144934301Y-69480649D01*
X144927750Y-69475622D01*
X144781715Y-69415132D01*
X144625000Y-69394500D01*
X144468285Y-69415132D01*
X144322250Y-69475622D01*
X144196847Y-69571847D01*
X144100622Y-69697250D01*
X144040132Y-69843285D01*
X144019500Y-70000000D01*
X144040132Y-70156715D01*
X144100622Y-70302750D01*
X144196847Y-70428153D01*
X144322250Y-70524378D01*
X144468285Y-70584868D01*
X144625000Y-70605500D01*
X144633188Y-70604422D01*
X144773527Y-70585946D01*
X144781715Y-70584868D01*
X144927750Y-70524378D01*
X144934301Y-70519351D01*
X144934305Y-70519349D01*
X144947297Y-70509380D01*
X145013517Y-70483780D01*
X145083066Y-70498045D01*
X145133861Y-70547647D01*
X145150000Y-70609343D01*
X145150000Y-74390657D01*
X145129998Y-74458778D01*
X145076342Y-74505271D01*
X145006068Y-74515375D01*
X144947297Y-74490620D01*
X144934305Y-74480651D01*
X144934301Y-74480649D01*
X144927750Y-74475622D01*
X144781715Y-74415132D01*
X144625000Y-74394500D01*
X144468285Y-74415132D01*
X144322250Y-74475622D01*
X144196847Y-74571847D01*
X144100622Y-74697250D01*
X144040132Y-74843285D01*
X144019500Y-75000000D01*
X144040132Y-75156715D01*
X144100622Y-75302750D01*
X144196847Y-75428153D01*
X144322250Y-75524378D01*
X144468285Y-75584868D01*
X144625000Y-75605500D01*
X144633188Y-75604422D01*
X144773527Y-75585946D01*
X144781715Y-75584868D01*
X144927750Y-75524378D01*
X144934301Y-75519351D01*
X144934305Y-75519349D01*
X144947297Y-75509380D01*
X145013517Y-75483780D01*
X145083066Y-75498045D01*
X145133861Y-75547647D01*
X145150000Y-75609343D01*
X145150000Y-79390657D01*
X145129998Y-79458778D01*
X145076342Y-79505271D01*
X145006068Y-79515375D01*
X144947297Y-79490620D01*
X144934305Y-79480651D01*
X144934301Y-79480649D01*
X144927750Y-79475622D01*
X144781715Y-79415132D01*
X144625000Y-79394500D01*
X144468285Y-79415132D01*
X144322250Y-79475622D01*
X144196847Y-79571847D01*
X144100622Y-79697250D01*
X144040132Y-79843285D01*
X144019500Y-80000000D01*
X144040132Y-80156715D01*
X144100622Y-80302750D01*
X144196847Y-80428153D01*
X144322250Y-80524378D01*
X144468285Y-80584868D01*
X144625000Y-80605500D01*
X144633188Y-80604422D01*
X144773527Y-80585946D01*
X144781715Y-80584868D01*
X144927750Y-80524378D01*
X144934301Y-80519351D01*
X144934305Y-80519349D01*
X144947297Y-80509380D01*
X145013517Y-80483780D01*
X145083066Y-80498045D01*
X145133861Y-80547647D01*
X145150000Y-80609343D01*
X145150000Y-183624000D01*
X145129998Y-183692121D01*
X145076342Y-183738614D01*
X145024000Y-183750000D01*
X35651958Y-183750000D01*
X35583837Y-183729998D01*
X35537344Y-183676342D01*
X35527240Y-183606068D01*
X35535549Y-183575782D01*
X35581708Y-183464345D01*
X35581709Y-183464342D01*
X35584868Y-183456715D01*
X35605500Y-183300000D01*
X35584868Y-183143285D01*
X35524378Y-182997250D01*
X35428153Y-182871847D01*
X35302750Y-182775622D01*
X35156715Y-182715132D01*
X35000000Y-182694500D01*
X34843285Y-182715132D01*
X34697250Y-182775622D01*
X34571847Y-182871847D01*
X34475622Y-182997250D01*
X34415132Y-183143285D01*
X34394500Y-183300000D01*
X34415132Y-183456715D01*
X34418291Y-183464342D01*
X34418292Y-183464345D01*
X34464451Y-183575782D01*
X34472040Y-183646372D01*
X34440261Y-183709859D01*
X34379202Y-183746086D01*
X34348042Y-183750000D01*
X33976000Y-183750000D01*
X33907879Y-183729998D01*
X33861386Y-183676342D01*
X33850000Y-183624000D01*
X33850000Y-181770893D01*
X36507178Y-181770893D01*
X36527810Y-181927608D01*
X36588300Y-182073643D01*
X36684525Y-182199046D01*
X36809928Y-182295271D01*
X36955963Y-182355761D01*
X37112678Y-182376393D01*
X37120866Y-182375315D01*
X37261205Y-182356839D01*
X37269393Y-182355761D01*
X37415428Y-182295271D01*
X37540831Y-182199046D01*
X37637056Y-182073643D01*
X37667560Y-182000000D01*
X39194500Y-182000000D01*
X39215132Y-182156715D01*
X39275622Y-182302750D01*
X39371847Y-182428153D01*
X39497250Y-182524378D01*
X39643285Y-182584868D01*
X39800000Y-182605500D01*
X39808188Y-182604422D01*
X39948527Y-182585946D01*
X39956715Y-182584868D01*
X40102750Y-182524378D01*
X40228153Y-182428153D01*
X40324378Y-182302750D01*
X40384868Y-182156715D01*
X40405500Y-182000000D01*
X50594500Y-182000000D01*
X50615132Y-182156715D01*
X50675622Y-182302750D01*
X50771847Y-182428153D01*
X50897250Y-182524378D01*
X51043285Y-182584868D01*
X51200000Y-182605500D01*
X51208188Y-182604422D01*
X51241776Y-182600000D01*
X71894500Y-182600000D01*
X71915132Y-182756715D01*
X71975622Y-182902750D01*
X72071847Y-183028153D01*
X72197250Y-183124378D01*
X72343285Y-183184868D01*
X72500000Y-183205500D01*
X72508188Y-183204422D01*
X72648527Y-183185946D01*
X72656715Y-183184868D01*
X72802750Y-183124378D01*
X72928153Y-183028153D01*
X73024378Y-182902750D01*
X73084868Y-182756715D01*
X73105500Y-182600000D01*
X73084868Y-182443285D01*
X73024378Y-182297250D01*
X72928153Y-182171847D01*
X72802750Y-182075622D01*
X72656715Y-182015132D01*
X72500000Y-181994500D01*
X72343285Y-182015132D01*
X72197250Y-182075622D01*
X72071847Y-182171847D01*
X71975622Y-182297250D01*
X71915132Y-182443285D01*
X71894500Y-182600000D01*
X51241776Y-182600000D01*
X51348527Y-182585946D01*
X51356715Y-182584868D01*
X51502750Y-182524378D01*
X51628153Y-182428153D01*
X51724378Y-182302750D01*
X51784868Y-182156715D01*
X51805500Y-182000000D01*
X51784868Y-181843285D01*
X51724378Y-181697250D01*
X51628153Y-181571847D01*
X51502750Y-181475622D01*
X51356715Y-181415132D01*
X51200000Y-181394500D01*
X51043285Y-181415132D01*
X50897250Y-181475622D01*
X50771847Y-181571847D01*
X50675622Y-181697250D01*
X50615132Y-181843285D01*
X50594500Y-182000000D01*
X40405500Y-182000000D01*
X40384868Y-181843285D01*
X40324378Y-181697250D01*
X40228153Y-181571847D01*
X40102750Y-181475622D01*
X39956715Y-181415132D01*
X39800000Y-181394500D01*
X39643285Y-181415132D01*
X39497250Y-181475622D01*
X39371847Y-181571847D01*
X39275622Y-181697250D01*
X39215132Y-181843285D01*
X39194500Y-182000000D01*
X37667560Y-182000000D01*
X37697546Y-181927608D01*
X37718178Y-181770893D01*
X37697546Y-181614178D01*
X37637056Y-181468143D01*
X37540831Y-181342740D01*
X37415428Y-181246515D01*
X37269393Y-181186025D01*
X37112678Y-181165393D01*
X36955963Y-181186025D01*
X36809928Y-181246515D01*
X36684525Y-181342740D01*
X36588300Y-181468143D01*
X36527810Y-181614178D01*
X36507178Y-181770893D01*
X33850000Y-181770893D01*
X33850000Y-180551793D01*
X33870002Y-180483672D01*
X33923658Y-180437179D01*
X33993932Y-180427075D01*
X34052704Y-180451831D01*
X34140694Y-180519348D01*
X34140697Y-180519350D01*
X34147250Y-180524378D01*
X34293285Y-180584868D01*
X34450000Y-180605500D01*
X34458188Y-180604422D01*
X34598527Y-180585946D01*
X34606715Y-180584868D01*
X34752750Y-180524378D01*
X34878153Y-180428153D01*
X34974378Y-180302750D01*
X35034868Y-180156715D01*
X35055500Y-180000000D01*
X35043559Y-179909301D01*
X35035946Y-179851473D01*
X35034868Y-179843285D01*
X34974378Y-179697250D01*
X34899756Y-179600000D01*
X39194500Y-179600000D01*
X39215132Y-179756715D01*
X39275622Y-179902750D01*
X39371847Y-180028153D01*
X39497250Y-180124378D01*
X39643285Y-180184868D01*
X39800000Y-180205500D01*
X39808188Y-180204422D01*
X39948527Y-180185946D01*
X39956715Y-180184868D01*
X40102750Y-180124378D01*
X40228153Y-180028153D01*
X40324378Y-179902750D01*
X40384868Y-179756715D01*
X40405500Y-179600000D01*
X40384868Y-179443285D01*
X40324378Y-179297250D01*
X40228153Y-179171847D01*
X40102750Y-179075622D01*
X39956715Y-179015132D01*
X39800000Y-178994500D01*
X39643285Y-179015132D01*
X39497250Y-179075622D01*
X39371847Y-179171847D01*
X39275622Y-179297250D01*
X39215132Y-179443285D01*
X39194500Y-179600000D01*
X34899756Y-179600000D01*
X34878153Y-179571847D01*
X34752750Y-179475622D01*
X34606715Y-179415132D01*
X34450000Y-179394500D01*
X34293285Y-179415132D01*
X34147250Y-179475622D01*
X34140699Y-179480649D01*
X34140694Y-179480652D01*
X34052704Y-179548169D01*
X33986484Y-179573770D01*
X33916935Y-179559505D01*
X33866139Y-179509904D01*
X33850000Y-179448207D01*
X33850000Y-178900000D01*
X42694500Y-178900000D01*
X42715132Y-179056715D01*
X42775622Y-179202750D01*
X42871847Y-179328153D01*
X42997250Y-179424378D01*
X43046977Y-179444976D01*
X43102257Y-179489523D01*
X43124678Y-179556886D01*
X43107120Y-179625678D01*
X43102412Y-179633020D01*
X43096304Y-179641858D01*
X43090948Y-179649608D01*
X43050108Y-179778744D01*
X43049044Y-179914181D01*
X43051743Y-179923206D01*
X43085152Y-180034919D01*
X43085153Y-180034922D01*
X43087851Y-180043942D01*
X43093082Y-180051770D01*
X43093083Y-180051773D01*
X43157865Y-180148726D01*
X43163098Y-180156557D01*
X43268132Y-180242068D01*
X43393666Y-180292914D01*
X43403053Y-180293727D01*
X43528601Y-180304601D01*
X43528458Y-180306257D01*
X43587160Y-180319553D01*
X43636931Y-180370183D01*
X43651430Y-180439683D01*
X43642242Y-180477836D01*
X43615132Y-180543285D01*
X43614054Y-180551473D01*
X43610073Y-180581708D01*
X43594500Y-180700000D01*
X43615132Y-180856715D01*
X43675622Y-181002750D01*
X43771847Y-181128153D01*
X43897250Y-181224378D01*
X44043285Y-181284868D01*
X44200000Y-181305500D01*
X44208188Y-181304422D01*
X44348527Y-181285946D01*
X44356715Y-181284868D01*
X44502750Y-181224378D01*
X44628153Y-181128153D01*
X44724378Y-181002750D01*
X44784868Y-180856715D01*
X44805500Y-180700000D01*
X44789927Y-180581708D01*
X44785946Y-180551473D01*
X44784868Y-180543285D01*
X44725517Y-180400000D01*
X54894500Y-180400000D01*
X54895578Y-180408188D01*
X54912360Y-180535656D01*
X54915132Y-180556715D01*
X54975622Y-180702750D01*
X55071847Y-180828153D01*
X55197250Y-180924378D01*
X55343285Y-180984868D01*
X55500000Y-181005500D01*
X55508188Y-181004422D01*
X55648527Y-180985946D01*
X55656715Y-180984868D01*
X55802750Y-180924378D01*
X55928153Y-180828153D01*
X56024378Y-180702750D01*
X56084868Y-180556715D01*
X56087641Y-180535656D01*
X56104422Y-180408188D01*
X56105500Y-180400000D01*
X56084868Y-180243285D01*
X56024378Y-180097250D01*
X55928153Y-179971847D01*
X55802750Y-179875622D01*
X55656715Y-179815132D01*
X55500000Y-179794500D01*
X55343285Y-179815132D01*
X55197250Y-179875622D01*
X55071847Y-179971847D01*
X54975622Y-180097250D01*
X54915132Y-180243285D01*
X54894500Y-180400000D01*
X44725517Y-180400000D01*
X44724378Y-180397250D01*
X44628153Y-180271847D01*
X44502750Y-180175622D01*
X44356715Y-180115132D01*
X44321760Y-180110530D01*
X44208188Y-180095578D01*
X44200000Y-180094500D01*
X44078242Y-180110530D01*
X44008095Y-180099591D01*
X43954996Y-180052463D01*
X43935806Y-179984109D01*
X43937507Y-179964920D01*
X43945952Y-179914181D01*
X47049044Y-179914181D01*
X47051743Y-179923206D01*
X47085152Y-180034919D01*
X47085153Y-180034922D01*
X47087851Y-180043942D01*
X47093082Y-180051770D01*
X47093083Y-180051773D01*
X47157865Y-180148726D01*
X47163098Y-180156557D01*
X47268132Y-180242068D01*
X47393666Y-180292914D01*
X47403053Y-180293727D01*
X47519221Y-180303789D01*
X47519224Y-180303789D01*
X47528601Y-180304601D01*
X47537802Y-180302620D01*
X47537804Y-180302620D01*
X47610554Y-180286957D01*
X47661008Y-180276095D01*
X47779179Y-180209916D01*
X47872667Y-180111915D01*
X47933206Y-179990757D01*
X47955444Y-179857155D01*
X47955500Y-179850000D01*
X47935364Y-179716065D01*
X47879630Y-179600000D01*
X50594500Y-179600000D01*
X50615132Y-179756715D01*
X50675622Y-179902750D01*
X50771847Y-180028153D01*
X50897250Y-180124378D01*
X51043285Y-180184868D01*
X51200000Y-180205500D01*
X51208188Y-180204422D01*
X51348527Y-180185946D01*
X51356715Y-180184868D01*
X51502750Y-180124378D01*
X51628153Y-180028153D01*
X51724378Y-179902750D01*
X51784868Y-179756715D01*
X51805500Y-179600000D01*
X51784868Y-179443285D01*
X51724378Y-179297250D01*
X51628153Y-179171847D01*
X51502750Y-179075622D01*
X51356715Y-179015132D01*
X51200000Y-178994500D01*
X51043285Y-179015132D01*
X50897250Y-179075622D01*
X50771847Y-179171847D01*
X50675622Y-179297250D01*
X50615132Y-179443285D01*
X50594500Y-179600000D01*
X47879630Y-179600000D01*
X47876735Y-179593971D01*
X47858062Y-179573770D01*
X47791189Y-179501428D01*
X47784798Y-179494514D01*
X47776206Y-179489523D01*
X47715630Y-179454338D01*
X47667681Y-179426487D01*
X47577008Y-179405470D01*
X47544915Y-179398031D01*
X47544914Y-179398031D01*
X47535738Y-179395904D01*
X47526343Y-179396569D01*
X47526340Y-179396569D01*
X47449259Y-179402027D01*
X47400636Y-179405470D01*
X47391857Y-179408866D01*
X47391854Y-179408867D01*
X47283099Y-179450941D01*
X47283097Y-179450942D01*
X47274319Y-179454338D01*
X47167955Y-179538189D01*
X47090948Y-179649608D01*
X47050108Y-179778744D01*
X47049044Y-179914181D01*
X43945952Y-179914181D01*
X43954631Y-179862037D01*
X43955444Y-179857155D01*
X43955500Y-179850000D01*
X43935364Y-179716065D01*
X43876735Y-179593971D01*
X43858062Y-179573770D01*
X43791189Y-179501428D01*
X43784798Y-179494514D01*
X43776655Y-179489784D01*
X43769304Y-179483895D01*
X43771053Y-179481712D01*
X43732370Y-179440931D01*
X43719116Y-179371183D01*
X43744551Y-179306783D01*
X43819351Y-179209301D01*
X43824378Y-179202750D01*
X43884868Y-179056715D01*
X43905500Y-178900000D01*
X43884868Y-178743285D01*
X43824378Y-178597250D01*
X43728153Y-178471847D01*
X43602750Y-178375622D01*
X43456715Y-178315132D01*
X43341776Y-178300000D01*
X49194500Y-178300000D01*
X49215132Y-178456715D01*
X49275622Y-178602750D01*
X49371847Y-178728153D01*
X49497250Y-178824378D01*
X49643285Y-178884868D01*
X49800000Y-178905500D01*
X49808188Y-178904422D01*
X49948527Y-178885946D01*
X49956715Y-178884868D01*
X50102750Y-178824378D01*
X50228153Y-178728153D01*
X50324378Y-178602750D01*
X50384868Y-178456715D01*
X50405500Y-178300000D01*
X50389927Y-178181708D01*
X50385946Y-178151473D01*
X50384868Y-178143285D01*
X50324378Y-177997250D01*
X50249756Y-177900000D01*
X59794500Y-177900000D01*
X59795578Y-177908188D01*
X59812360Y-178035656D01*
X59815132Y-178056715D01*
X59875622Y-178202750D01*
X59971847Y-178328153D01*
X60097250Y-178424378D01*
X60243285Y-178484868D01*
X60400000Y-178505500D01*
X60408188Y-178504422D01*
X60548527Y-178485946D01*
X60556715Y-178484868D01*
X60702750Y-178424378D01*
X60828153Y-178328153D01*
X60924378Y-178202750D01*
X60984868Y-178056715D01*
X60987641Y-178035656D01*
X60992335Y-178000000D01*
X63994500Y-178000000D01*
X63995578Y-178008188D01*
X64012360Y-178135656D01*
X64015132Y-178156715D01*
X64075622Y-178302750D01*
X64171847Y-178428153D01*
X64297250Y-178524378D01*
X64443285Y-178584868D01*
X64600000Y-178605500D01*
X64608188Y-178604422D01*
X64748527Y-178585946D01*
X64756715Y-178584868D01*
X64902750Y-178524378D01*
X65028153Y-178428153D01*
X65124378Y-178302750D01*
X65166939Y-178200000D01*
X67794500Y-178200000D01*
X67815132Y-178356715D01*
X67875622Y-178502750D01*
X67971847Y-178628153D01*
X68097250Y-178724378D01*
X68243285Y-178784868D01*
X68400000Y-178805500D01*
X68408188Y-178804422D01*
X68548527Y-178785946D01*
X68556715Y-178784868D01*
X68702750Y-178724378D01*
X68828153Y-178628153D01*
X68924378Y-178502750D01*
X68984868Y-178356715D01*
X69005500Y-178200000D01*
X68994882Y-178119351D01*
X68985946Y-178051473D01*
X68984868Y-178043285D01*
X68924378Y-177897250D01*
X68828153Y-177771847D01*
X68702750Y-177675622D01*
X68556715Y-177615132D01*
X68441776Y-177600000D01*
X71094500Y-177600000D01*
X71095578Y-177608188D01*
X71112360Y-177735656D01*
X71115132Y-177756715D01*
X71175622Y-177902750D01*
X71271847Y-178028153D01*
X71397250Y-178124378D01*
X71543285Y-178184868D01*
X71700000Y-178205500D01*
X71708188Y-178204422D01*
X71848527Y-178185946D01*
X71856715Y-178184868D01*
X72002750Y-178124378D01*
X72128153Y-178028153D01*
X72224378Y-177902750D01*
X72284868Y-177756715D01*
X72287641Y-177735656D01*
X72304422Y-177608188D01*
X72305500Y-177600000D01*
X72284868Y-177443285D01*
X72224378Y-177297250D01*
X72128153Y-177171847D01*
X72002750Y-177075622D01*
X71856715Y-177015132D01*
X71700000Y-176994500D01*
X71543285Y-177015132D01*
X71397250Y-177075622D01*
X71271847Y-177171847D01*
X71175622Y-177297250D01*
X71115132Y-177443285D01*
X71094500Y-177600000D01*
X68441776Y-177600000D01*
X68400000Y-177594500D01*
X68243285Y-177615132D01*
X68097250Y-177675622D01*
X67971847Y-177771847D01*
X67875622Y-177897250D01*
X67815132Y-178043285D01*
X67814054Y-178051473D01*
X67805118Y-178119351D01*
X67794500Y-178200000D01*
X65166939Y-178200000D01*
X65184868Y-178156715D01*
X65187641Y-178135656D01*
X65204422Y-178008188D01*
X65205500Y-178000000D01*
X65184868Y-177843285D01*
X65124378Y-177697250D01*
X65028153Y-177571847D01*
X64902750Y-177475622D01*
X64756715Y-177415132D01*
X64600000Y-177394500D01*
X64443285Y-177415132D01*
X64297250Y-177475622D01*
X64171847Y-177571847D01*
X64075622Y-177697250D01*
X64015132Y-177843285D01*
X63994500Y-178000000D01*
X60992335Y-178000000D01*
X61004422Y-177908188D01*
X61005500Y-177900000D01*
X60987967Y-177766824D01*
X60985946Y-177751473D01*
X60984868Y-177743285D01*
X60924378Y-177597250D01*
X60828153Y-177471847D01*
X60702750Y-177375622D01*
X60556715Y-177315132D01*
X60400000Y-177294500D01*
X60243285Y-177315132D01*
X60097250Y-177375622D01*
X59971847Y-177471847D01*
X59875622Y-177597250D01*
X59815132Y-177743285D01*
X59814054Y-177751473D01*
X59812033Y-177766824D01*
X59794500Y-177900000D01*
X50249756Y-177900000D01*
X50228153Y-177871847D01*
X50102750Y-177775622D01*
X49956715Y-177715132D01*
X49800000Y-177694500D01*
X49643285Y-177715132D01*
X49497250Y-177775622D01*
X49371847Y-177871847D01*
X49275622Y-177997250D01*
X49215132Y-178143285D01*
X49214054Y-178151473D01*
X49210073Y-178181708D01*
X49194500Y-178300000D01*
X43341776Y-178300000D01*
X43300000Y-178294500D01*
X43143285Y-178315132D01*
X42997250Y-178375622D01*
X42871847Y-178471847D01*
X42775622Y-178597250D01*
X42715132Y-178743285D01*
X42694500Y-178900000D01*
X33850000Y-178900000D01*
X33850000Y-177000000D01*
X41364998Y-177000000D01*
X41385630Y-177156715D01*
X41446120Y-177302750D01*
X41542345Y-177428153D01*
X41667748Y-177524378D01*
X41813783Y-177584868D01*
X41970498Y-177605500D01*
X41978686Y-177604422D01*
X42119025Y-177585946D01*
X42127213Y-177584868D01*
X42273248Y-177524378D01*
X42398651Y-177428153D01*
X42494876Y-177302750D01*
X42555366Y-177156715D01*
X42575998Y-177000000D01*
X53994500Y-177000000D01*
X54015132Y-177156715D01*
X54075622Y-177302750D01*
X54171847Y-177428153D01*
X54297250Y-177524378D01*
X54443285Y-177584868D01*
X54600000Y-177605500D01*
X54608188Y-177604422D01*
X54748527Y-177585946D01*
X54756715Y-177584868D01*
X54902750Y-177524378D01*
X55028153Y-177428153D01*
X55124378Y-177302750D01*
X55184868Y-177156715D01*
X55205500Y-177000000D01*
X55184868Y-176843285D01*
X55124378Y-176697250D01*
X55028153Y-176571847D01*
X54902750Y-176475622D01*
X54756715Y-176415132D01*
X54600000Y-176394500D01*
X54443285Y-176415132D01*
X54297250Y-176475622D01*
X54171847Y-176571847D01*
X54075622Y-176697250D01*
X54015132Y-176843285D01*
X53994500Y-177000000D01*
X42575998Y-177000000D01*
X42555366Y-176843285D01*
X42494876Y-176697250D01*
X42398651Y-176571847D01*
X42273248Y-176475622D01*
X42127213Y-176415132D01*
X41970498Y-176394500D01*
X41813783Y-176415132D01*
X41667748Y-176475622D01*
X41542345Y-176571847D01*
X41446120Y-176697250D01*
X41385630Y-176843285D01*
X41364998Y-177000000D01*
X33850000Y-177000000D01*
X33850000Y-176000000D01*
X39194500Y-176000000D01*
X39215132Y-176156715D01*
X39275622Y-176302750D01*
X39371847Y-176428153D01*
X39497250Y-176524378D01*
X39643285Y-176584868D01*
X39800000Y-176605500D01*
X39808188Y-176604422D01*
X39948527Y-176585946D01*
X39956715Y-176584868D01*
X40102750Y-176524378D01*
X40228153Y-176428153D01*
X40324378Y-176302750D01*
X40384868Y-176156715D01*
X40405500Y-176000000D01*
X40384868Y-175843285D01*
X40324378Y-175697250D01*
X40228153Y-175571847D01*
X40102750Y-175475622D01*
X39956715Y-175415132D01*
X39800000Y-175394500D01*
X39643285Y-175415132D01*
X39497250Y-175475622D01*
X39371847Y-175571847D01*
X39275622Y-175697250D01*
X39215132Y-175843285D01*
X39194500Y-176000000D01*
X33850000Y-176000000D01*
X33850000Y-175551793D01*
X33870002Y-175483672D01*
X33923658Y-175437179D01*
X33993932Y-175427075D01*
X34052704Y-175451831D01*
X34140694Y-175519348D01*
X34140697Y-175519350D01*
X34147250Y-175524378D01*
X34293285Y-175584868D01*
X34450000Y-175605500D01*
X34458188Y-175604422D01*
X34598527Y-175585946D01*
X34606715Y-175584868D01*
X34752750Y-175524378D01*
X34878153Y-175428153D01*
X34974378Y-175302750D01*
X35034868Y-175156715D01*
X35055500Y-175000000D01*
X35034868Y-174843285D01*
X34974378Y-174697250D01*
X34878153Y-174571847D01*
X34752750Y-174475622D01*
X34606715Y-174415132D01*
X34450000Y-174394500D01*
X34293285Y-174415132D01*
X34147250Y-174475622D01*
X34140699Y-174480649D01*
X34140694Y-174480652D01*
X34052704Y-174548169D01*
X33986484Y-174573770D01*
X33916935Y-174559505D01*
X33866139Y-174509904D01*
X33850000Y-174448207D01*
X33850000Y-174100000D01*
X34994500Y-174100000D01*
X35015132Y-174256715D01*
X35075622Y-174402750D01*
X35171847Y-174528153D01*
X35297250Y-174624378D01*
X35443285Y-174684868D01*
X35600000Y-174705500D01*
X35608188Y-174704422D01*
X35748527Y-174685946D01*
X35756715Y-174684868D01*
X35902750Y-174624378D01*
X35934520Y-174600000D01*
X47394500Y-174600000D01*
X47415132Y-174756715D01*
X47475622Y-174902750D01*
X47571847Y-175028153D01*
X47697250Y-175124378D01*
X47843285Y-175184868D01*
X48000000Y-175205500D01*
X48008188Y-175204422D01*
X48148527Y-175185946D01*
X48156715Y-175184868D01*
X48302750Y-175124378D01*
X48428153Y-175028153D01*
X48524378Y-174902750D01*
X48584868Y-174756715D01*
X48605500Y-174600000D01*
X48994500Y-174600000D01*
X49015132Y-174756715D01*
X49075622Y-174902750D01*
X49171847Y-175028153D01*
X49297250Y-175124378D01*
X49443285Y-175184868D01*
X49600000Y-175205500D01*
X49608188Y-175204422D01*
X49748527Y-175185946D01*
X49756715Y-175184868D01*
X49902750Y-175124378D01*
X50028153Y-175028153D01*
X50124378Y-174902750D01*
X50184868Y-174756715D01*
X50205500Y-174600000D01*
X51594500Y-174600000D01*
X51615132Y-174756715D01*
X51675622Y-174902750D01*
X51771847Y-175028153D01*
X51897250Y-175124378D01*
X52043285Y-175184868D01*
X52200000Y-175205500D01*
X52208188Y-175204422D01*
X52348527Y-175185946D01*
X52356715Y-175184868D01*
X52502750Y-175124378D01*
X52628153Y-175028153D01*
X52724378Y-174902750D01*
X52784868Y-174756715D01*
X52805500Y-174600000D01*
X52784868Y-174443285D01*
X52724378Y-174297250D01*
X52649756Y-174200000D01*
X56594500Y-174200000D01*
X56615132Y-174356715D01*
X56675622Y-174502750D01*
X56771847Y-174628153D01*
X56897250Y-174724378D01*
X57043285Y-174784868D01*
X57200000Y-174805500D01*
X57208188Y-174804422D01*
X57348527Y-174785946D01*
X57356715Y-174784868D01*
X57502750Y-174724378D01*
X57628153Y-174628153D01*
X57724378Y-174502750D01*
X57784868Y-174356715D01*
X57805500Y-174200000D01*
X57784868Y-174043285D01*
X57724378Y-173897250D01*
X57628153Y-173771847D01*
X57502750Y-173675622D01*
X57356715Y-173615132D01*
X57200000Y-173594500D01*
X57043285Y-173615132D01*
X56897250Y-173675622D01*
X56771847Y-173771847D01*
X56675622Y-173897250D01*
X56615132Y-174043285D01*
X56594500Y-174200000D01*
X52649756Y-174200000D01*
X52628153Y-174171847D01*
X52502750Y-174075622D01*
X52356715Y-174015132D01*
X52200000Y-173994500D01*
X52043285Y-174015132D01*
X51897250Y-174075622D01*
X51771847Y-174171847D01*
X51675622Y-174297250D01*
X51615132Y-174443285D01*
X51594500Y-174600000D01*
X50205500Y-174600000D01*
X50184868Y-174443285D01*
X50124378Y-174297250D01*
X50028153Y-174171847D01*
X49902750Y-174075622D01*
X49756715Y-174015132D01*
X49600000Y-173994500D01*
X49443285Y-174015132D01*
X49297250Y-174075622D01*
X49171847Y-174171847D01*
X49075622Y-174297250D01*
X49015132Y-174443285D01*
X48994500Y-174600000D01*
X48605500Y-174600000D01*
X48584868Y-174443285D01*
X48524378Y-174297250D01*
X48428153Y-174171847D01*
X48302750Y-174075622D01*
X48156715Y-174015132D01*
X48000000Y-173994500D01*
X47843285Y-174015132D01*
X47697250Y-174075622D01*
X47571847Y-174171847D01*
X47475622Y-174297250D01*
X47415132Y-174443285D01*
X47394500Y-174600000D01*
X35934520Y-174600000D01*
X36028153Y-174528153D01*
X36124378Y-174402750D01*
X36184868Y-174256715D01*
X36205500Y-174100000D01*
X36184868Y-173943285D01*
X36124378Y-173797250D01*
X36028153Y-173671847D01*
X35934520Y-173600000D01*
X39394500Y-173600000D01*
X39415132Y-173756715D01*
X39475622Y-173902750D01*
X39571847Y-174028153D01*
X39697250Y-174124378D01*
X39843285Y-174184868D01*
X40000000Y-174205500D01*
X40008188Y-174204422D01*
X40148527Y-174185946D01*
X40156715Y-174184868D01*
X40302750Y-174124378D01*
X40428153Y-174028153D01*
X40524378Y-173902750D01*
X40584868Y-173756715D01*
X40605500Y-173600000D01*
X40584868Y-173443285D01*
X40524378Y-173297250D01*
X40428153Y-173171847D01*
X40302750Y-173075622D01*
X40156715Y-173015132D01*
X40000000Y-172994500D01*
X39843285Y-173015132D01*
X39697250Y-173075622D01*
X39571847Y-173171847D01*
X39475622Y-173297250D01*
X39415132Y-173443285D01*
X39394500Y-173600000D01*
X35934520Y-173600000D01*
X35902750Y-173575622D01*
X35756715Y-173515132D01*
X35600000Y-173494500D01*
X35443285Y-173515132D01*
X35297250Y-173575622D01*
X35171847Y-173671847D01*
X35075622Y-173797250D01*
X35015132Y-173943285D01*
X34994500Y-174100000D01*
X33850000Y-174100000D01*
X33850000Y-172100000D01*
X59694500Y-172100000D01*
X59715132Y-172256715D01*
X59775622Y-172402750D01*
X59871847Y-172528153D01*
X59997250Y-172624378D01*
X60143285Y-172684868D01*
X60300000Y-172705500D01*
X60308188Y-172704422D01*
X60448527Y-172685946D01*
X60456715Y-172684868D01*
X60602750Y-172624378D01*
X60728153Y-172528153D01*
X60824378Y-172402750D01*
X60884868Y-172256715D01*
X60905500Y-172100000D01*
X60884868Y-171943285D01*
X60824378Y-171797250D01*
X60749756Y-171700000D01*
X71194500Y-171700000D01*
X71215132Y-171856715D01*
X71275622Y-172002750D01*
X71371847Y-172128153D01*
X71497250Y-172224378D01*
X71643285Y-172284868D01*
X71800000Y-172305500D01*
X71808188Y-172304422D01*
X71948527Y-172285946D01*
X71956715Y-172284868D01*
X72102750Y-172224378D01*
X72228153Y-172128153D01*
X72324378Y-172002750D01*
X72384868Y-171856715D01*
X72405500Y-171700000D01*
X72384868Y-171543285D01*
X72324378Y-171397250D01*
X72228153Y-171271847D01*
X72102750Y-171175622D01*
X71956715Y-171115132D01*
X71800000Y-171094500D01*
X71643285Y-171115132D01*
X71497250Y-171175622D01*
X71371847Y-171271847D01*
X71275622Y-171397250D01*
X71215132Y-171543285D01*
X71194500Y-171700000D01*
X60749756Y-171700000D01*
X60728153Y-171671847D01*
X60602750Y-171575622D01*
X60456715Y-171515132D01*
X60300000Y-171494500D01*
X60143285Y-171515132D01*
X59997250Y-171575622D01*
X59871847Y-171671847D01*
X59775622Y-171797250D01*
X59715132Y-171943285D01*
X59694500Y-172100000D01*
X33850000Y-172100000D01*
X33850000Y-170551793D01*
X33870002Y-170483672D01*
X33923658Y-170437179D01*
X33993932Y-170427075D01*
X34052704Y-170451831D01*
X34140694Y-170519348D01*
X34140697Y-170519350D01*
X34147250Y-170524378D01*
X34293285Y-170584868D01*
X34450000Y-170605500D01*
X34458188Y-170604422D01*
X34598527Y-170585946D01*
X34606715Y-170584868D01*
X34752750Y-170524378D01*
X34878153Y-170428153D01*
X34974378Y-170302750D01*
X35034868Y-170156715D01*
X35055500Y-170000000D01*
X35034868Y-169843285D01*
X34974378Y-169697250D01*
X34899756Y-169600000D01*
X52794500Y-169600000D01*
X52815132Y-169756715D01*
X52875622Y-169902750D01*
X52971847Y-170028153D01*
X53097250Y-170124378D01*
X53243285Y-170184868D01*
X53400000Y-170205500D01*
X53408188Y-170204422D01*
X53548527Y-170185946D01*
X53556715Y-170184868D01*
X53702750Y-170124378D01*
X53828153Y-170028153D01*
X53924378Y-169902750D01*
X53984868Y-169756715D01*
X54005500Y-169600000D01*
X53984868Y-169443285D01*
X53924378Y-169297250D01*
X53828153Y-169171847D01*
X53702750Y-169075622D01*
X53556715Y-169015132D01*
X53400000Y-168994500D01*
X53243285Y-169015132D01*
X53097250Y-169075622D01*
X52971847Y-169171847D01*
X52875622Y-169297250D01*
X52815132Y-169443285D01*
X52794500Y-169600000D01*
X34899756Y-169600000D01*
X34878153Y-169571847D01*
X34752750Y-169475622D01*
X34606715Y-169415132D01*
X34450000Y-169394500D01*
X34293285Y-169415132D01*
X34147250Y-169475622D01*
X34140699Y-169480649D01*
X34140694Y-169480652D01*
X34052704Y-169548169D01*
X33986484Y-169573770D01*
X33916935Y-169559505D01*
X33866139Y-169509904D01*
X33850000Y-169448207D01*
X33850000Y-168424744D01*
X40869000Y-168424744D01*
X40889632Y-168581459D01*
X40950122Y-168727494D01*
X41046347Y-168852897D01*
X41171750Y-168949122D01*
X41317785Y-169009612D01*
X41474500Y-169030244D01*
X41482688Y-169029166D01*
X41623027Y-169010690D01*
X41631215Y-169009612D01*
X41777250Y-168949122D01*
X41902653Y-168852897D01*
X41998878Y-168727494D01*
X42010266Y-168700000D01*
X56994500Y-168700000D01*
X57015132Y-168856715D01*
X57075622Y-169002750D01*
X57171847Y-169128153D01*
X57297250Y-169224378D01*
X57443285Y-169284868D01*
X57600000Y-169305500D01*
X57608188Y-169304422D01*
X57748527Y-169285946D01*
X57756715Y-169284868D01*
X57902750Y-169224378D01*
X58028153Y-169128153D01*
X58124378Y-169002750D01*
X58184868Y-168856715D01*
X58192335Y-168800000D01*
X66694500Y-168800000D01*
X66715132Y-168956715D01*
X66775622Y-169102750D01*
X66871847Y-169228153D01*
X66997250Y-169324378D01*
X67143285Y-169384868D01*
X67300000Y-169405500D01*
X67308188Y-169404422D01*
X67448527Y-169385946D01*
X67456715Y-169384868D01*
X67602750Y-169324378D01*
X67728153Y-169228153D01*
X67824378Y-169102750D01*
X67884868Y-168956715D01*
X67905500Y-168800000D01*
X67884868Y-168643285D01*
X67824378Y-168497250D01*
X67728153Y-168371847D01*
X67602750Y-168275622D01*
X67456715Y-168215132D01*
X67300000Y-168194500D01*
X67143285Y-168215132D01*
X66997250Y-168275622D01*
X66871847Y-168371847D01*
X66775622Y-168497250D01*
X66715132Y-168643285D01*
X66694500Y-168800000D01*
X58192335Y-168800000D01*
X58205500Y-168700000D01*
X58184868Y-168543285D01*
X58124378Y-168397250D01*
X58028153Y-168271847D01*
X57902750Y-168175622D01*
X57756715Y-168115132D01*
X57600000Y-168094500D01*
X57443285Y-168115132D01*
X57297250Y-168175622D01*
X57171847Y-168271847D01*
X57075622Y-168397250D01*
X57015132Y-168543285D01*
X56994500Y-168700000D01*
X42010266Y-168700000D01*
X42059368Y-168581459D01*
X42080000Y-168424744D01*
X42059368Y-168268029D01*
X41998878Y-168121994D01*
X41902653Y-167996591D01*
X41777250Y-167900366D01*
X41631215Y-167839876D01*
X41474500Y-167819244D01*
X41317785Y-167839876D01*
X41171750Y-167900366D01*
X41046347Y-167996591D01*
X40950122Y-168121994D01*
X40889632Y-168268029D01*
X40869000Y-168424744D01*
X33850000Y-168424744D01*
X33850000Y-167800000D01*
X53094500Y-167800000D01*
X53115132Y-167956715D01*
X53175622Y-168102750D01*
X53271847Y-168228153D01*
X53397250Y-168324378D01*
X53543285Y-168384868D01*
X53700000Y-168405500D01*
X53708188Y-168404422D01*
X53848527Y-168385946D01*
X53856715Y-168384868D01*
X54002750Y-168324378D01*
X54128153Y-168228153D01*
X54224378Y-168102750D01*
X54284868Y-167956715D01*
X54305500Y-167800000D01*
X54284868Y-167643285D01*
X54224378Y-167497250D01*
X54149756Y-167400000D01*
X63194500Y-167400000D01*
X63215132Y-167556715D01*
X63275622Y-167702750D01*
X63371847Y-167828153D01*
X63497250Y-167924378D01*
X63643285Y-167984868D01*
X63800000Y-168005500D01*
X63808188Y-168004422D01*
X63948527Y-167985946D01*
X63956715Y-167984868D01*
X64102750Y-167924378D01*
X64228153Y-167828153D01*
X64324378Y-167702750D01*
X64356194Y-167625940D01*
X64400741Y-167570660D01*
X64468104Y-167548239D01*
X64536896Y-167565797D01*
X64574365Y-167603715D01*
X64575622Y-167602750D01*
X64671847Y-167728153D01*
X64797250Y-167824378D01*
X64943285Y-167884868D01*
X65100000Y-167905500D01*
X65108188Y-167904422D01*
X65248527Y-167885946D01*
X65256715Y-167884868D01*
X65402750Y-167824378D01*
X65528153Y-167728153D01*
X65624378Y-167602750D01*
X65684868Y-167456715D01*
X65705500Y-167300000D01*
X66694500Y-167300000D01*
X66715132Y-167456715D01*
X66775622Y-167602750D01*
X66871847Y-167728153D01*
X66997250Y-167824378D01*
X67143285Y-167884868D01*
X67300000Y-167905500D01*
X67308188Y-167904422D01*
X67448527Y-167885946D01*
X67456715Y-167884868D01*
X67602750Y-167824378D01*
X67728153Y-167728153D01*
X67824378Y-167602750D01*
X67884868Y-167456715D01*
X67905500Y-167300000D01*
X67884868Y-167143285D01*
X67824378Y-166997250D01*
X67740128Y-166887453D01*
X67714528Y-166821232D01*
X67728793Y-166751684D01*
X67778394Y-166700888D01*
X67847584Y-166684972D01*
X67856537Y-166685827D01*
X67997781Y-166704422D01*
X68005969Y-166705500D01*
X68014157Y-166704422D01*
X68154496Y-166685946D01*
X68162684Y-166684868D01*
X68308719Y-166624378D01*
X68434122Y-166528153D01*
X68530347Y-166402750D01*
X68590837Y-166256715D01*
X68611469Y-166100000D01*
X68606532Y-166062500D01*
X68957000Y-166062500D01*
X68977632Y-166219215D01*
X69038122Y-166365250D01*
X69107597Y-166455792D01*
X69119733Y-166471607D01*
X69134347Y-166490653D01*
X69258133Y-166585637D01*
X69299999Y-166642974D01*
X69304221Y-166713845D01*
X69272286Y-166771510D01*
X69271847Y-166771847D01*
X69175622Y-166897250D01*
X69115132Y-167043285D01*
X69114054Y-167051473D01*
X69108890Y-167090699D01*
X69094500Y-167200000D01*
X69115132Y-167356715D01*
X69175622Y-167502750D01*
X69271847Y-167628153D01*
X69397250Y-167724378D01*
X69543285Y-167784868D01*
X69700000Y-167805500D01*
X69708188Y-167804422D01*
X69848527Y-167785946D01*
X69856715Y-167784868D01*
X70002750Y-167724378D01*
X70128153Y-167628153D01*
X70224378Y-167502750D01*
X70284868Y-167356715D01*
X70305500Y-167200000D01*
X70291110Y-167090699D01*
X70285946Y-167051473D01*
X70284868Y-167043285D01*
X70224378Y-166897250D01*
X70128153Y-166771847D01*
X70004367Y-166676863D01*
X69962501Y-166619526D01*
X69958279Y-166548655D01*
X69990214Y-166490990D01*
X69990653Y-166490653D01*
X70005268Y-166471607D01*
X70017403Y-166455792D01*
X70086878Y-166365250D01*
X70147368Y-166219215D01*
X70168000Y-166062500D01*
X70147368Y-165905785D01*
X70086878Y-165759750D01*
X69990653Y-165634347D01*
X69865250Y-165538122D01*
X69719215Y-165477632D01*
X69562500Y-165457000D01*
X69405785Y-165477632D01*
X69259750Y-165538122D01*
X69134347Y-165634347D01*
X69038122Y-165759750D01*
X68977632Y-165905785D01*
X68957000Y-166062500D01*
X68606532Y-166062500D01*
X68590837Y-165943285D01*
X68530347Y-165797250D01*
X68434122Y-165671847D01*
X68308719Y-165575622D01*
X68162684Y-165515132D01*
X68005969Y-165494500D01*
X67849254Y-165515132D01*
X67703219Y-165575622D01*
X67577816Y-165671847D01*
X67481591Y-165797250D01*
X67421101Y-165943285D01*
X67400469Y-166100000D01*
X67421101Y-166256715D01*
X67481591Y-166402750D01*
X67486618Y-166409301D01*
X67565841Y-166512547D01*
X67591441Y-166578768D01*
X67577176Y-166648316D01*
X67527575Y-166699112D01*
X67458385Y-166715028D01*
X67449432Y-166714173D01*
X67308188Y-166695578D01*
X67300000Y-166694500D01*
X67143285Y-166715132D01*
X66997250Y-166775622D01*
X66871847Y-166871847D01*
X66775622Y-166997250D01*
X66715132Y-167143285D01*
X66694500Y-167300000D01*
X65705500Y-167300000D01*
X65684868Y-167143285D01*
X65624378Y-166997250D01*
X65528153Y-166871847D01*
X65402750Y-166775622D01*
X65256715Y-166715132D01*
X65100000Y-166694500D01*
X64943285Y-166715132D01*
X64797250Y-166775622D01*
X64671847Y-166871847D01*
X64575622Y-166997250D01*
X64572462Y-167004880D01*
X64543807Y-167074059D01*
X64499259Y-167129340D01*
X64431896Y-167151761D01*
X64363104Y-167134203D01*
X64325635Y-167096285D01*
X64324378Y-167097250D01*
X64233176Y-166978393D01*
X64228153Y-166971847D01*
X64102750Y-166875622D01*
X64095121Y-166872462D01*
X64095116Y-166872459D01*
X64092670Y-166871446D01*
X64090925Y-166870039D01*
X64087969Y-166868333D01*
X64088235Y-166867872D01*
X64037391Y-166826896D01*
X64014972Y-166759532D01*
X64032532Y-166690741D01*
X64084496Y-166642365D01*
X64102924Y-166635367D01*
X64106715Y-166634868D01*
X64252750Y-166574378D01*
X64378153Y-166478153D01*
X64474378Y-166352750D01*
X64534868Y-166206715D01*
X64555500Y-166050000D01*
X64534868Y-165893285D01*
X64474378Y-165747250D01*
X64404903Y-165656708D01*
X64383176Y-165628393D01*
X64378153Y-165621847D01*
X64354470Y-165603674D01*
X64286857Y-165551793D01*
X64252750Y-165525622D01*
X64106715Y-165465132D01*
X63950000Y-165444500D01*
X63793285Y-165465132D01*
X63647250Y-165525622D01*
X63613143Y-165551793D01*
X63545531Y-165603674D01*
X63521847Y-165621847D01*
X63516824Y-165628393D01*
X63495097Y-165656708D01*
X63425622Y-165747250D01*
X63365132Y-165893285D01*
X63344500Y-166050000D01*
X63365132Y-166206715D01*
X63425622Y-166352750D01*
X63521847Y-166478153D01*
X63647250Y-166574378D01*
X63654879Y-166577538D01*
X63654884Y-166577541D01*
X63657330Y-166578554D01*
X63659075Y-166579961D01*
X63662031Y-166581667D01*
X63661765Y-166582128D01*
X63712609Y-166623104D01*
X63735028Y-166690468D01*
X63717468Y-166759259D01*
X63665504Y-166807635D01*
X63647076Y-166814633D01*
X63643285Y-166815132D01*
X63497250Y-166875622D01*
X63371847Y-166971847D01*
X63275622Y-167097250D01*
X63215132Y-167243285D01*
X63194500Y-167400000D01*
X54149756Y-167400000D01*
X54128153Y-167371847D01*
X54002750Y-167275622D01*
X53856715Y-167215132D01*
X53700000Y-167194500D01*
X53543285Y-167215132D01*
X53397250Y-167275622D01*
X53271847Y-167371847D01*
X53175622Y-167497250D01*
X53115132Y-167643285D01*
X53094500Y-167800000D01*
X33850000Y-167800000D01*
X33850000Y-165551793D01*
X33870002Y-165483672D01*
X33923658Y-165437179D01*
X33993932Y-165427075D01*
X34052704Y-165451831D01*
X34140694Y-165519348D01*
X34140697Y-165519350D01*
X34147250Y-165524378D01*
X34293285Y-165584868D01*
X34450000Y-165605500D01*
X34458188Y-165604422D01*
X34598527Y-165585946D01*
X34606715Y-165584868D01*
X34752750Y-165524378D01*
X34878153Y-165428153D01*
X34880572Y-165425000D01*
X40545489Y-165425000D01*
X40566121Y-165581715D01*
X40626611Y-165727750D01*
X40722836Y-165853153D01*
X40848239Y-165949378D01*
X40994274Y-166009868D01*
X41150989Y-166030500D01*
X41159177Y-166029422D01*
X41299516Y-166010946D01*
X41307704Y-166009868D01*
X41453739Y-165949378D01*
X41579142Y-165853153D01*
X41675367Y-165727750D01*
X41735857Y-165581715D01*
X41756489Y-165425000D01*
X41735857Y-165268285D01*
X41675367Y-165122250D01*
X41581561Y-165000000D01*
X42294500Y-165000000D01*
X42315132Y-165156715D01*
X42375622Y-165302750D01*
X42471847Y-165428153D01*
X42597250Y-165524378D01*
X42743285Y-165584868D01*
X42900000Y-165605500D01*
X42908188Y-165604422D01*
X43048527Y-165585946D01*
X43056715Y-165584868D01*
X43202750Y-165524378D01*
X43328153Y-165428153D01*
X43424378Y-165302750D01*
X43484868Y-165156715D01*
X43505500Y-165000000D01*
X43994500Y-165000000D01*
X44015132Y-165156715D01*
X44075622Y-165302750D01*
X44171847Y-165428153D01*
X44297250Y-165524378D01*
X44443285Y-165584868D01*
X44600000Y-165605500D01*
X44608188Y-165604422D01*
X44748527Y-165585946D01*
X44756715Y-165584868D01*
X44902750Y-165524378D01*
X45028153Y-165428153D01*
X45124378Y-165302750D01*
X45184868Y-165156715D01*
X45192335Y-165100000D01*
X45594500Y-165100000D01*
X45615132Y-165256715D01*
X45675622Y-165402750D01*
X45771847Y-165528153D01*
X45897250Y-165624378D01*
X46043285Y-165684868D01*
X46200000Y-165705500D01*
X46208188Y-165704422D01*
X46348527Y-165685946D01*
X46356715Y-165684868D01*
X46502750Y-165624378D01*
X46628153Y-165528153D01*
X46724378Y-165402750D01*
X46784868Y-165256715D01*
X46805500Y-165100000D01*
X46784868Y-164943285D01*
X46766939Y-164900000D01*
X47394500Y-164900000D01*
X47415132Y-165056715D01*
X47475622Y-165202750D01*
X47571847Y-165328153D01*
X47697250Y-165424378D01*
X47843285Y-165484868D01*
X48000000Y-165505500D01*
X48008188Y-165504422D01*
X48148527Y-165485946D01*
X48156715Y-165484868D01*
X48302750Y-165424378D01*
X48428153Y-165328153D01*
X48524378Y-165202750D01*
X48537737Y-165170498D01*
X50894500Y-165170498D01*
X50915132Y-165327213D01*
X50975622Y-165473248D01*
X51071847Y-165598651D01*
X51078393Y-165603674D01*
X51098824Y-165619351D01*
X51197250Y-165694876D01*
X51343285Y-165755366D01*
X51500000Y-165775998D01*
X51508188Y-165774920D01*
X51648527Y-165756444D01*
X51656715Y-165755366D01*
X51802750Y-165694876D01*
X51901176Y-165619351D01*
X51921607Y-165603674D01*
X51928153Y-165598651D01*
X52024378Y-165473248D01*
X52084868Y-165327213D01*
X52105500Y-165170498D01*
X52084868Y-165013783D01*
X52024378Y-164867748D01*
X51928153Y-164742345D01*
X51872968Y-164700000D01*
X58694500Y-164700000D01*
X58695578Y-164708188D01*
X58712360Y-164835656D01*
X58715132Y-164856715D01*
X58775622Y-165002750D01*
X58871847Y-165128153D01*
X58997250Y-165224378D01*
X59143285Y-165284868D01*
X59300000Y-165305500D01*
X59308188Y-165304422D01*
X59448527Y-165285946D01*
X59456715Y-165284868D01*
X59602750Y-165224378D01*
X59728153Y-165128153D01*
X59824378Y-165002750D01*
X59884868Y-164856715D01*
X59887641Y-164835656D01*
X59904422Y-164708188D01*
X59905500Y-164700000D01*
X60894500Y-164700000D01*
X60895578Y-164708188D01*
X60912360Y-164835656D01*
X60915132Y-164856715D01*
X60975622Y-165002750D01*
X61071847Y-165128153D01*
X61197250Y-165224378D01*
X61343285Y-165284868D01*
X61500000Y-165305500D01*
X61508188Y-165304422D01*
X61648527Y-165285946D01*
X61656715Y-165284868D01*
X61802750Y-165224378D01*
X61928153Y-165128153D01*
X62024378Y-165002750D01*
X62084868Y-164856715D01*
X62087641Y-164835656D01*
X62104422Y-164708188D01*
X62105500Y-164700000D01*
X62084868Y-164543285D01*
X62024378Y-164397250D01*
X61928153Y-164271847D01*
X61802750Y-164175622D01*
X61656715Y-164115132D01*
X61500000Y-164094500D01*
X61343285Y-164115132D01*
X61197250Y-164175622D01*
X61071847Y-164271847D01*
X60975622Y-164397250D01*
X60915132Y-164543285D01*
X60894500Y-164700000D01*
X59905500Y-164700000D01*
X59884868Y-164543285D01*
X59824378Y-164397250D01*
X59728153Y-164271847D01*
X59602750Y-164175622D01*
X59456715Y-164115132D01*
X59300000Y-164094500D01*
X59143285Y-164115132D01*
X58997250Y-164175622D01*
X58871847Y-164271847D01*
X58775622Y-164397250D01*
X58715132Y-164543285D01*
X58694500Y-164700000D01*
X51872968Y-164700000D01*
X51802750Y-164646120D01*
X51656715Y-164585630D01*
X51500000Y-164564998D01*
X51343285Y-164585630D01*
X51197250Y-164646120D01*
X51071847Y-164742345D01*
X50975622Y-164867748D01*
X50915132Y-165013783D01*
X50894500Y-165170498D01*
X48537737Y-165170498D01*
X48584868Y-165056715D01*
X48605500Y-164900000D01*
X48584868Y-164743285D01*
X48524378Y-164597250D01*
X48428153Y-164471847D01*
X48302750Y-164375622D01*
X48156715Y-164315132D01*
X48000000Y-164294500D01*
X47843285Y-164315132D01*
X47697250Y-164375622D01*
X47571847Y-164471847D01*
X47475622Y-164597250D01*
X47415132Y-164743285D01*
X47394500Y-164900000D01*
X46766939Y-164900000D01*
X46724378Y-164797250D01*
X46628153Y-164671847D01*
X46502750Y-164575622D01*
X46356715Y-164515132D01*
X46200000Y-164494500D01*
X46043285Y-164515132D01*
X45897250Y-164575622D01*
X45771847Y-164671847D01*
X45675622Y-164797250D01*
X45615132Y-164943285D01*
X45594500Y-165100000D01*
X45192335Y-165100000D01*
X45205500Y-165000000D01*
X45188089Y-164867748D01*
X45185946Y-164851473D01*
X45184868Y-164843285D01*
X45124378Y-164697250D01*
X45028153Y-164571847D01*
X44902750Y-164475622D01*
X44756715Y-164415132D01*
X44600000Y-164394500D01*
X44443285Y-164415132D01*
X44297250Y-164475622D01*
X44171847Y-164571847D01*
X44075622Y-164697250D01*
X44015132Y-164843285D01*
X44014054Y-164851473D01*
X44011911Y-164867748D01*
X43994500Y-165000000D01*
X43505500Y-165000000D01*
X43488089Y-164867748D01*
X43485946Y-164851473D01*
X43484868Y-164843285D01*
X43424378Y-164697250D01*
X43328153Y-164571847D01*
X43202750Y-164475622D01*
X43056715Y-164415132D01*
X42900000Y-164394500D01*
X42743285Y-164415132D01*
X42597250Y-164475622D01*
X42471847Y-164571847D01*
X42375622Y-164697250D01*
X42315132Y-164843285D01*
X42314054Y-164851473D01*
X42311911Y-164867748D01*
X42294500Y-165000000D01*
X41581561Y-165000000D01*
X41579142Y-164996847D01*
X41453739Y-164900622D01*
X41307704Y-164840132D01*
X41150989Y-164819500D01*
X40994274Y-164840132D01*
X40848239Y-164900622D01*
X40722836Y-164996847D01*
X40626611Y-165122250D01*
X40566121Y-165268285D01*
X40545489Y-165425000D01*
X34880572Y-165425000D01*
X34974378Y-165302750D01*
X35034868Y-165156715D01*
X35055500Y-165000000D01*
X35038089Y-164867748D01*
X35035946Y-164851473D01*
X35034868Y-164843285D01*
X34974378Y-164697250D01*
X34878153Y-164571847D01*
X34752750Y-164475622D01*
X34606715Y-164415132D01*
X34450000Y-164394500D01*
X34293285Y-164415132D01*
X34147250Y-164475622D01*
X34140699Y-164480649D01*
X34140694Y-164480652D01*
X34052704Y-164548169D01*
X33986484Y-164573770D01*
X33916935Y-164559505D01*
X33866139Y-164509904D01*
X33850000Y-164448207D01*
X33850000Y-161800000D01*
X39394500Y-161800000D01*
X39415132Y-161956715D01*
X39475622Y-162102750D01*
X39571847Y-162228153D01*
X39697250Y-162324378D01*
X39843285Y-162384868D01*
X40000000Y-162405500D01*
X40008188Y-162404422D01*
X40148527Y-162385946D01*
X40156715Y-162384868D01*
X40302750Y-162324378D01*
X40428153Y-162228153D01*
X40524378Y-162102750D01*
X40584868Y-161956715D01*
X40605500Y-161800000D01*
X62294500Y-161800000D01*
X62315132Y-161956715D01*
X62375622Y-162102750D01*
X62471847Y-162228153D01*
X62597250Y-162324378D01*
X62743285Y-162384868D01*
X62900000Y-162405500D01*
X62908188Y-162404422D01*
X63048527Y-162385946D01*
X63056715Y-162384868D01*
X63202750Y-162324378D01*
X63328153Y-162228153D01*
X63424378Y-162102750D01*
X63484868Y-161956715D01*
X63505500Y-161800000D01*
X63484868Y-161643285D01*
X63424378Y-161497250D01*
X63328153Y-161371847D01*
X63202750Y-161275622D01*
X63056715Y-161215132D01*
X62900000Y-161194500D01*
X62743285Y-161215132D01*
X62597250Y-161275622D01*
X62471847Y-161371847D01*
X62375622Y-161497250D01*
X62315132Y-161643285D01*
X62294500Y-161800000D01*
X40605500Y-161800000D01*
X40584868Y-161643285D01*
X40524378Y-161497250D01*
X40428153Y-161371847D01*
X40302750Y-161275622D01*
X40156715Y-161215132D01*
X40000000Y-161194500D01*
X39843285Y-161215132D01*
X39697250Y-161275622D01*
X39571847Y-161371847D01*
X39475622Y-161497250D01*
X39415132Y-161643285D01*
X39394500Y-161800000D01*
X33850000Y-161800000D01*
X33850000Y-160551793D01*
X33870002Y-160483672D01*
X33923658Y-160437179D01*
X33993932Y-160427075D01*
X34052704Y-160451831D01*
X34140694Y-160519348D01*
X34140697Y-160519350D01*
X34147250Y-160524378D01*
X34293285Y-160584868D01*
X34450000Y-160605500D01*
X34458188Y-160604422D01*
X34598527Y-160585946D01*
X34606715Y-160584868D01*
X34752750Y-160524378D01*
X34878153Y-160428153D01*
X34974378Y-160302750D01*
X35016939Y-160200000D01*
X49294500Y-160200000D01*
X49315132Y-160356715D01*
X49375622Y-160502750D01*
X49471847Y-160628153D01*
X49597250Y-160724378D01*
X49743285Y-160784868D01*
X49900000Y-160805500D01*
X49908188Y-160804422D01*
X50048527Y-160785946D01*
X50056715Y-160784868D01*
X50202750Y-160724378D01*
X50328153Y-160628153D01*
X50424378Y-160502750D01*
X50484868Y-160356715D01*
X50505500Y-160200000D01*
X58794500Y-160200000D01*
X58815132Y-160356715D01*
X58875622Y-160502750D01*
X58971847Y-160628153D01*
X59097250Y-160724378D01*
X59243285Y-160784868D01*
X59400000Y-160805500D01*
X59408188Y-160804422D01*
X59548527Y-160785946D01*
X59556715Y-160784868D01*
X59702750Y-160724378D01*
X59828153Y-160628153D01*
X59924378Y-160502750D01*
X59984868Y-160356715D01*
X60005500Y-160200000D01*
X60794500Y-160200000D01*
X60815132Y-160356715D01*
X60875622Y-160502750D01*
X60971847Y-160628153D01*
X61097250Y-160724378D01*
X61243285Y-160784868D01*
X61400000Y-160805500D01*
X61408188Y-160804422D01*
X61548527Y-160785946D01*
X61556715Y-160784868D01*
X61702750Y-160724378D01*
X61828153Y-160628153D01*
X61924378Y-160502750D01*
X61984868Y-160356715D01*
X62005500Y-160200000D01*
X61984868Y-160043285D01*
X61924378Y-159897250D01*
X61828153Y-159771847D01*
X61702750Y-159675622D01*
X61556715Y-159615132D01*
X61400000Y-159594500D01*
X61243285Y-159615132D01*
X61097250Y-159675622D01*
X60971847Y-159771847D01*
X60875622Y-159897250D01*
X60815132Y-160043285D01*
X60794500Y-160200000D01*
X60005500Y-160200000D01*
X59984868Y-160043285D01*
X59924378Y-159897250D01*
X59828153Y-159771847D01*
X59702750Y-159675622D01*
X59556715Y-159615132D01*
X59400000Y-159594500D01*
X59243285Y-159615132D01*
X59097250Y-159675622D01*
X58971847Y-159771847D01*
X58875622Y-159897250D01*
X58815132Y-160043285D01*
X58794500Y-160200000D01*
X50505500Y-160200000D01*
X50484868Y-160043285D01*
X50424378Y-159897250D01*
X50328153Y-159771847D01*
X50202750Y-159675622D01*
X50056715Y-159615132D01*
X49900000Y-159594500D01*
X49743285Y-159615132D01*
X49597250Y-159675622D01*
X49471847Y-159771847D01*
X49375622Y-159897250D01*
X49315132Y-160043285D01*
X49294500Y-160200000D01*
X35016939Y-160200000D01*
X35034868Y-160156715D01*
X35055500Y-160000000D01*
X35034868Y-159843285D01*
X34974378Y-159697250D01*
X34878153Y-159571847D01*
X34752750Y-159475622D01*
X34606715Y-159415132D01*
X34450000Y-159394500D01*
X34293285Y-159415132D01*
X34147250Y-159475622D01*
X34140699Y-159480649D01*
X34140694Y-159480652D01*
X34052704Y-159548169D01*
X33986484Y-159573770D01*
X33916935Y-159559505D01*
X33866139Y-159509904D01*
X33850000Y-159448207D01*
X33850000Y-158200000D01*
X58794500Y-158200000D01*
X58815132Y-158356715D01*
X58875622Y-158502750D01*
X58971847Y-158628153D01*
X59097250Y-158724378D01*
X59243285Y-158784868D01*
X59400000Y-158805500D01*
X59408188Y-158804422D01*
X59548527Y-158785946D01*
X59556715Y-158784868D01*
X59702750Y-158724378D01*
X59828153Y-158628153D01*
X59924378Y-158502750D01*
X59984868Y-158356715D01*
X60005500Y-158200000D01*
X60794500Y-158200000D01*
X60815132Y-158356715D01*
X60875622Y-158502750D01*
X60971847Y-158628153D01*
X61097250Y-158724378D01*
X61243285Y-158784868D01*
X61400000Y-158805500D01*
X61408188Y-158804422D01*
X61548527Y-158785946D01*
X61556715Y-158784868D01*
X61702750Y-158724378D01*
X61828153Y-158628153D01*
X61924378Y-158502750D01*
X61984868Y-158356715D01*
X62005500Y-158200000D01*
X61984868Y-158043285D01*
X61924378Y-157897250D01*
X61828153Y-157771847D01*
X61702750Y-157675622D01*
X61556715Y-157615132D01*
X61400000Y-157594500D01*
X61243285Y-157615132D01*
X61097250Y-157675622D01*
X60971847Y-157771847D01*
X60875622Y-157897250D01*
X60815132Y-158043285D01*
X60794500Y-158200000D01*
X60005500Y-158200000D01*
X59984868Y-158043285D01*
X59924378Y-157897250D01*
X59828153Y-157771847D01*
X59702750Y-157675622D01*
X59556715Y-157615132D01*
X59400000Y-157594500D01*
X59243285Y-157615132D01*
X59097250Y-157675622D01*
X58971847Y-157771847D01*
X58875622Y-157897250D01*
X58815132Y-158043285D01*
X58794500Y-158200000D01*
X33850000Y-158200000D01*
X33850000Y-157400000D01*
X47494500Y-157400000D01*
X47515132Y-157556715D01*
X47575622Y-157702750D01*
X47671847Y-157828153D01*
X47797250Y-157924378D01*
X47943285Y-157984868D01*
X48100000Y-158005500D01*
X48108188Y-158004422D01*
X48248527Y-157985946D01*
X48256715Y-157984868D01*
X48402750Y-157924378D01*
X48528153Y-157828153D01*
X48624378Y-157702750D01*
X48684868Y-157556715D01*
X48705500Y-157400000D01*
X48684868Y-157243285D01*
X48624378Y-157097250D01*
X48528153Y-156971847D01*
X48402750Y-156875622D01*
X48256715Y-156815132D01*
X48100000Y-156794500D01*
X47943285Y-156815132D01*
X47797250Y-156875622D01*
X47671847Y-156971847D01*
X47575622Y-157097250D01*
X47515132Y-157243285D01*
X47494500Y-157400000D01*
X33850000Y-157400000D01*
X33850000Y-156200000D01*
X60494500Y-156200000D01*
X60515132Y-156356715D01*
X60575622Y-156502750D01*
X60671847Y-156628153D01*
X60797250Y-156724378D01*
X60943285Y-156784868D01*
X61100000Y-156805500D01*
X61108188Y-156804422D01*
X61248527Y-156785946D01*
X61256715Y-156784868D01*
X61402750Y-156724378D01*
X61528153Y-156628153D01*
X61624378Y-156502750D01*
X61684868Y-156356715D01*
X61705500Y-156200000D01*
X61684868Y-156043285D01*
X61624378Y-155897250D01*
X61528153Y-155771847D01*
X61402750Y-155675622D01*
X61256715Y-155615132D01*
X61100000Y-155594500D01*
X60943285Y-155615132D01*
X60797250Y-155675622D01*
X60671847Y-155771847D01*
X60575622Y-155897250D01*
X60515132Y-156043285D01*
X60494500Y-156200000D01*
X33850000Y-156200000D01*
X33850000Y-155551793D01*
X33870002Y-155483672D01*
X33923658Y-155437179D01*
X33993932Y-155427075D01*
X34052704Y-155451831D01*
X34140694Y-155519348D01*
X34140697Y-155519350D01*
X34147250Y-155524378D01*
X34293285Y-155584868D01*
X34450000Y-155605500D01*
X34458188Y-155604422D01*
X34598527Y-155585946D01*
X34606715Y-155584868D01*
X34752750Y-155524378D01*
X34878153Y-155428153D01*
X34974378Y-155302750D01*
X35034868Y-155156715D01*
X35055500Y-155000000D01*
X35034868Y-154843285D01*
X35006259Y-154774216D01*
X34998670Y-154703629D01*
X35030449Y-154640142D01*
X35091507Y-154603914D01*
X35122668Y-154600000D01*
X40800000Y-154600000D01*
X40800000Y-154400000D01*
X45994500Y-154400000D01*
X46015132Y-154556715D01*
X46075622Y-154702750D01*
X46171847Y-154828153D01*
X46297250Y-154924378D01*
X46443285Y-154984868D01*
X46600000Y-155005500D01*
X46608188Y-155004422D01*
X46748527Y-154985946D01*
X46756715Y-154984868D01*
X46902750Y-154924378D01*
X47028153Y-154828153D01*
X47124378Y-154702750D01*
X47184868Y-154556715D01*
X47205500Y-154400000D01*
X47192335Y-154300000D01*
X47494500Y-154300000D01*
X47515132Y-154456715D01*
X47575622Y-154602750D01*
X47671847Y-154728153D01*
X47797250Y-154824378D01*
X47943285Y-154884868D01*
X48100000Y-154905500D01*
X48108188Y-154904422D01*
X48248527Y-154885946D01*
X48256715Y-154884868D01*
X48402750Y-154824378D01*
X48528153Y-154728153D01*
X48624378Y-154602750D01*
X48684868Y-154456715D01*
X48705500Y-154300000D01*
X48684868Y-154143285D01*
X48624378Y-153997250D01*
X48528153Y-153871847D01*
X48402750Y-153775622D01*
X48256715Y-153715132D01*
X48100000Y-153694500D01*
X47943285Y-153715132D01*
X47797250Y-153775622D01*
X47671847Y-153871847D01*
X47575622Y-153997250D01*
X47515132Y-154143285D01*
X47494500Y-154300000D01*
X47192335Y-154300000D01*
X47184868Y-154243285D01*
X47124378Y-154097250D01*
X47028153Y-153971847D01*
X46902750Y-153875622D01*
X46756715Y-153815132D01*
X46600000Y-153794500D01*
X46443285Y-153815132D01*
X46297250Y-153875622D01*
X46171847Y-153971847D01*
X46075622Y-154097250D01*
X46015132Y-154243285D01*
X45994500Y-154400000D01*
X40800000Y-154400000D01*
X40800000Y-153600000D01*
X41394500Y-153600000D01*
X41415132Y-153756715D01*
X41475622Y-153902750D01*
X41571847Y-154028153D01*
X41697250Y-154124378D01*
X41843285Y-154184868D01*
X42000000Y-154205500D01*
X42008188Y-154204422D01*
X42148527Y-154185946D01*
X42156715Y-154184868D01*
X42302750Y-154124378D01*
X42428153Y-154028153D01*
X42524378Y-153902750D01*
X42584868Y-153756715D01*
X42605500Y-153600000D01*
X42584868Y-153443285D01*
X42524378Y-153297250D01*
X42428153Y-153171847D01*
X42302750Y-153075622D01*
X42156715Y-153015132D01*
X42000000Y-152994500D01*
X41843285Y-153015132D01*
X41697250Y-153075622D01*
X41571847Y-153171847D01*
X41475622Y-153297250D01*
X41415132Y-153443285D01*
X41394500Y-153600000D01*
X40800000Y-153600000D01*
X40800000Y-152100000D01*
X43045500Y-152100000D01*
X43066132Y-152256715D01*
X43126622Y-152402750D01*
X43222847Y-152528153D01*
X43348250Y-152624378D01*
X43494285Y-152684868D01*
X43651000Y-152705500D01*
X43659188Y-152704422D01*
X43799527Y-152685946D01*
X43807715Y-152684868D01*
X43953750Y-152624378D01*
X43985520Y-152600000D01*
X53594500Y-152600000D01*
X53615132Y-152756715D01*
X53675622Y-152902750D01*
X53771847Y-153028153D01*
X53897250Y-153124378D01*
X54043285Y-153184868D01*
X54200000Y-153205500D01*
X54208188Y-153204422D01*
X54348527Y-153185946D01*
X54356715Y-153184868D01*
X54502750Y-153124378D01*
X54628153Y-153028153D01*
X54724378Y-152902750D01*
X54784868Y-152756715D01*
X54805500Y-152600000D01*
X71394500Y-152600000D01*
X71415132Y-152756715D01*
X71475622Y-152902750D01*
X71571847Y-153028153D01*
X71697250Y-153124378D01*
X71843285Y-153184868D01*
X72000000Y-153205500D01*
X72008188Y-153204422D01*
X72148527Y-153185946D01*
X72156715Y-153184868D01*
X72302750Y-153124378D01*
X72428153Y-153028153D01*
X72524378Y-152902750D01*
X72584868Y-152756715D01*
X72605500Y-152600000D01*
X72584868Y-152443285D01*
X72524378Y-152297250D01*
X72428153Y-152171847D01*
X72302750Y-152075622D01*
X72156715Y-152015132D01*
X72000000Y-151994500D01*
X71843285Y-152015132D01*
X71697250Y-152075622D01*
X71571847Y-152171847D01*
X71475622Y-152297250D01*
X71415132Y-152443285D01*
X71394500Y-152600000D01*
X54805500Y-152600000D01*
X54784868Y-152443285D01*
X54724378Y-152297250D01*
X54628153Y-152171847D01*
X54502750Y-152075622D01*
X54356715Y-152015132D01*
X54200000Y-151994500D01*
X54043285Y-152015132D01*
X53897250Y-152075622D01*
X53771847Y-152171847D01*
X53675622Y-152297250D01*
X53615132Y-152443285D01*
X53594500Y-152600000D01*
X43985520Y-152600000D01*
X44079153Y-152528153D01*
X44175378Y-152402750D01*
X44235868Y-152256715D01*
X44256500Y-152100000D01*
X44235868Y-151943285D01*
X44231658Y-151933120D01*
X44178538Y-151804880D01*
X44175378Y-151797250D01*
X44079153Y-151671847D01*
X44035043Y-151638000D01*
X49432500Y-151638000D01*
X49453132Y-151794715D01*
X49456292Y-151802344D01*
X49461737Y-151815489D01*
X49513622Y-151940750D01*
X49609847Y-152066153D01*
X49735250Y-152162378D01*
X49881285Y-152222868D01*
X50038000Y-152243500D01*
X50046188Y-152242422D01*
X50186527Y-152223946D01*
X50194715Y-152222868D01*
X50340750Y-152162378D01*
X50466153Y-152066153D01*
X50562378Y-151940750D01*
X50614263Y-151815489D01*
X50619708Y-151802344D01*
X50622868Y-151794715D01*
X50643500Y-151638000D01*
X50622868Y-151481285D01*
X50562378Y-151335250D01*
X50466153Y-151209847D01*
X50340750Y-151113622D01*
X50307864Y-151100000D01*
X53694500Y-151100000D01*
X53715132Y-151256715D01*
X53775622Y-151402750D01*
X53871847Y-151528153D01*
X53997250Y-151624378D01*
X54143285Y-151684868D01*
X54300000Y-151705500D01*
X54308188Y-151704422D01*
X54448527Y-151685946D01*
X54456715Y-151684868D01*
X54602750Y-151624378D01*
X54728153Y-151528153D01*
X54824378Y-151402750D01*
X54884868Y-151256715D01*
X54905500Y-151100000D01*
X54891692Y-150995120D01*
X54885946Y-150951473D01*
X54884868Y-150943285D01*
X54866939Y-150900000D01*
X56494500Y-150900000D01*
X56515132Y-151056715D01*
X56575622Y-151202750D01*
X56671847Y-151328153D01*
X56797250Y-151424378D01*
X56943285Y-151484868D01*
X57100000Y-151505500D01*
X57108188Y-151504422D01*
X57248527Y-151485946D01*
X57256715Y-151484868D01*
X57402750Y-151424378D01*
X57528153Y-151328153D01*
X57624378Y-151202750D01*
X57684868Y-151056715D01*
X57705500Y-150900000D01*
X57684868Y-150743285D01*
X57624378Y-150597250D01*
X57528153Y-150471847D01*
X57402750Y-150375622D01*
X57256715Y-150315132D01*
X57100000Y-150294500D01*
X56943285Y-150315132D01*
X56797250Y-150375622D01*
X56671847Y-150471847D01*
X56575622Y-150597250D01*
X56515132Y-150743285D01*
X56494500Y-150900000D01*
X54866939Y-150900000D01*
X54824378Y-150797250D01*
X54728153Y-150671847D01*
X54602750Y-150575622D01*
X54456715Y-150515132D01*
X54300000Y-150494500D01*
X54143285Y-150515132D01*
X53997250Y-150575622D01*
X53871847Y-150671847D01*
X53775622Y-150797250D01*
X53715132Y-150943285D01*
X53714054Y-150951473D01*
X53708308Y-150995120D01*
X53694500Y-151100000D01*
X50307864Y-151100000D01*
X50194715Y-151053132D01*
X50038000Y-151032500D01*
X49881285Y-151053132D01*
X49735250Y-151113622D01*
X49609847Y-151209847D01*
X49513622Y-151335250D01*
X49453132Y-151481285D01*
X49432500Y-151638000D01*
X44035043Y-151638000D01*
X43953750Y-151575622D01*
X43807715Y-151515132D01*
X43651000Y-151494500D01*
X43494285Y-151515132D01*
X43348250Y-151575622D01*
X43222847Y-151671847D01*
X43126622Y-151797250D01*
X43123462Y-151804880D01*
X43070343Y-151933120D01*
X43066132Y-151943285D01*
X43045500Y-152100000D01*
X40800000Y-152100000D01*
X40800000Y-150800000D01*
X41594500Y-150800000D01*
X41595578Y-150808188D01*
X41612360Y-150935656D01*
X41615132Y-150956715D01*
X41675622Y-151102750D01*
X41771847Y-151228153D01*
X41897250Y-151324378D01*
X42043285Y-151384868D01*
X42200000Y-151405500D01*
X42208188Y-151404422D01*
X42348527Y-151385946D01*
X42356715Y-151384868D01*
X42502750Y-151324378D01*
X42628153Y-151228153D01*
X42724378Y-151102750D01*
X42784868Y-150956715D01*
X42787641Y-150935656D01*
X42804422Y-150808188D01*
X42805500Y-150800000D01*
X42784868Y-150643285D01*
X42724378Y-150497250D01*
X42628153Y-150371847D01*
X42502750Y-150275622D01*
X42356715Y-150215132D01*
X42200000Y-150194500D01*
X42043285Y-150215132D01*
X41897250Y-150275622D01*
X41771847Y-150371847D01*
X41675622Y-150497250D01*
X41615132Y-150643285D01*
X41594500Y-150800000D01*
X40800000Y-150800000D01*
X40800000Y-149700000D01*
X59194500Y-149700000D01*
X59215132Y-149856715D01*
X59275622Y-150002750D01*
X59280649Y-150009301D01*
X59358674Y-150110985D01*
X59371847Y-150128153D01*
X59378393Y-150133176D01*
X59465528Y-150200037D01*
X59507395Y-150257375D01*
X59511617Y-150328246D01*
X59476853Y-150390149D01*
X59465528Y-150399963D01*
X59371847Y-150471847D01*
X59275622Y-150597250D01*
X59215132Y-150743285D01*
X59194500Y-150900000D01*
X59215132Y-151056715D01*
X59275622Y-151202750D01*
X59371847Y-151328153D01*
X59497250Y-151424378D01*
X59643285Y-151484868D01*
X59800000Y-151505500D01*
X59808188Y-151504422D01*
X59948527Y-151485946D01*
X59956715Y-151484868D01*
X60102750Y-151424378D01*
X60228153Y-151328153D01*
X60324378Y-151202750D01*
X60384868Y-151056715D01*
X60405500Y-150900000D01*
X60384868Y-150743285D01*
X60366939Y-150700000D01*
X61694500Y-150700000D01*
X61715132Y-150856715D01*
X61775622Y-151002750D01*
X61871847Y-151128153D01*
X61997250Y-151224378D01*
X62143285Y-151284868D01*
X62300000Y-151305500D01*
X62308188Y-151304422D01*
X62448527Y-151285946D01*
X62456715Y-151284868D01*
X62602750Y-151224378D01*
X62728153Y-151128153D01*
X62824378Y-151002750D01*
X62884868Y-150856715D01*
X62905500Y-150700000D01*
X62884868Y-150543285D01*
X62824378Y-150397250D01*
X62728153Y-150271847D01*
X62602750Y-150175622D01*
X62493443Y-150130345D01*
X62438163Y-150085798D01*
X62415742Y-150018434D01*
X62433300Y-149949643D01*
X62485262Y-149901265D01*
X62525215Y-149889015D01*
X62556715Y-149884868D01*
X62702750Y-149824378D01*
X62828153Y-149728153D01*
X62924378Y-149602750D01*
X62984868Y-149456715D01*
X63005500Y-149300000D01*
X62984868Y-149143285D01*
X62924378Y-148997250D01*
X62828153Y-148871847D01*
X62702750Y-148775622D01*
X62556715Y-148715132D01*
X62441776Y-148700000D01*
X71494500Y-148700000D01*
X71515132Y-148856715D01*
X71575622Y-149002750D01*
X71671847Y-149128153D01*
X71797250Y-149224378D01*
X71943285Y-149284868D01*
X72100000Y-149305500D01*
X72108188Y-149304422D01*
X72248527Y-149285946D01*
X72256715Y-149284868D01*
X72402750Y-149224378D01*
X72528153Y-149128153D01*
X72624378Y-149002750D01*
X72684868Y-148856715D01*
X72705500Y-148700000D01*
X72684868Y-148543285D01*
X72624378Y-148397250D01*
X72528153Y-148271847D01*
X72402750Y-148175622D01*
X72256715Y-148115132D01*
X72100000Y-148094500D01*
X71943285Y-148115132D01*
X71797250Y-148175622D01*
X71671847Y-148271847D01*
X71575622Y-148397250D01*
X71515132Y-148543285D01*
X71494500Y-148700000D01*
X62441776Y-148700000D01*
X62400000Y-148694500D01*
X62243285Y-148715132D01*
X62097250Y-148775622D01*
X61971847Y-148871847D01*
X61875622Y-148997250D01*
X61815132Y-149143285D01*
X61794500Y-149300000D01*
X61815132Y-149456715D01*
X61875622Y-149602750D01*
X61971847Y-149728153D01*
X62097250Y-149824378D01*
X62206557Y-149869655D01*
X62261837Y-149914202D01*
X62284258Y-149981566D01*
X62266700Y-150050357D01*
X62214738Y-150098735D01*
X62174785Y-150110985D01*
X62143285Y-150115132D01*
X61997250Y-150175622D01*
X61871847Y-150271847D01*
X61775622Y-150397250D01*
X61715132Y-150543285D01*
X61694500Y-150700000D01*
X60366939Y-150700000D01*
X60324378Y-150597250D01*
X60228153Y-150471847D01*
X60134472Y-150399963D01*
X60092605Y-150342625D01*
X60088383Y-150271754D01*
X60123147Y-150209851D01*
X60134472Y-150200037D01*
X60221607Y-150133176D01*
X60228153Y-150128153D01*
X60241327Y-150110985D01*
X60319351Y-150009301D01*
X60324378Y-150002750D01*
X60384868Y-149856715D01*
X60405500Y-149700000D01*
X60384868Y-149543285D01*
X60324378Y-149397250D01*
X60228153Y-149271847D01*
X60102750Y-149175622D01*
X59956715Y-149115132D01*
X59800000Y-149094500D01*
X59643285Y-149115132D01*
X59497250Y-149175622D01*
X59371847Y-149271847D01*
X59275622Y-149397250D01*
X59215132Y-149543285D01*
X59194500Y-149700000D01*
X40800000Y-149700000D01*
X40800000Y-148082000D01*
X59592500Y-148082000D01*
X59613132Y-148238715D01*
X59673622Y-148384750D01*
X59769847Y-148510153D01*
X59895250Y-148606378D01*
X60041285Y-148666868D01*
X60198000Y-148687500D01*
X60206188Y-148686422D01*
X60346527Y-148667946D01*
X60354715Y-148666868D01*
X60500750Y-148606378D01*
X60626153Y-148510153D01*
X60722378Y-148384750D01*
X60782868Y-148238715D01*
X60803500Y-148082000D01*
X60782868Y-147925285D01*
X60722378Y-147779250D01*
X60626153Y-147653847D01*
X60500750Y-147557622D01*
X60354715Y-147497132D01*
X60339433Y-147495120D01*
X60261561Y-147484868D01*
X60198000Y-147476500D01*
X60134439Y-147484868D01*
X60056568Y-147495120D01*
X60041285Y-147497132D01*
X59895250Y-147557622D01*
X59769847Y-147653847D01*
X59673622Y-147779250D01*
X59613132Y-147925285D01*
X59592500Y-148082000D01*
X40800000Y-148082000D01*
X40800000Y-147100000D01*
X41994500Y-147100000D01*
X41995578Y-147108188D01*
X42012360Y-147235656D01*
X42015132Y-147256715D01*
X42075622Y-147402750D01*
X42171847Y-147528153D01*
X42297250Y-147624378D01*
X42443285Y-147684868D01*
X42600000Y-147705500D01*
X42608188Y-147704422D01*
X42748527Y-147685946D01*
X42756715Y-147684868D01*
X42902750Y-147624378D01*
X43028153Y-147528153D01*
X43124378Y-147402750D01*
X43184868Y-147256715D01*
X43187641Y-147235656D01*
X43192335Y-147200000D01*
X44594500Y-147200000D01*
X44615132Y-147356715D01*
X44675622Y-147502750D01*
X44771847Y-147628153D01*
X44897250Y-147724378D01*
X45043285Y-147784868D01*
X45051473Y-147785946D01*
X45121642Y-147795184D01*
X45200000Y-147805500D01*
X45208188Y-147804422D01*
X45348527Y-147785946D01*
X45356715Y-147784868D01*
X45502750Y-147724378D01*
X45628153Y-147628153D01*
X45724378Y-147502750D01*
X45784868Y-147356715D01*
X45805500Y-147200000D01*
X45791110Y-147090699D01*
X45785946Y-147051473D01*
X45784868Y-147043285D01*
X45725517Y-146900000D01*
X47094500Y-146900000D01*
X47095578Y-146908188D01*
X47112360Y-147035656D01*
X47115132Y-147056715D01*
X47175622Y-147202750D01*
X47271847Y-147328153D01*
X47397250Y-147424378D01*
X47543285Y-147484868D01*
X47700000Y-147505500D01*
X47708188Y-147504422D01*
X47739559Y-147500292D01*
X47856715Y-147484868D01*
X48002750Y-147424378D01*
X48034520Y-147400000D01*
X69094500Y-147400000D01*
X69115132Y-147556715D01*
X69175622Y-147702750D01*
X69271847Y-147828153D01*
X69397250Y-147924378D01*
X69543285Y-147984868D01*
X69700000Y-148005500D01*
X69708188Y-148004422D01*
X69848527Y-147985946D01*
X69856715Y-147984868D01*
X70002750Y-147924378D01*
X70128153Y-147828153D01*
X70224378Y-147702750D01*
X70284868Y-147556715D01*
X70305500Y-147400000D01*
X70295179Y-147321607D01*
X70285946Y-147251473D01*
X70284868Y-147243285D01*
X70224378Y-147097250D01*
X70128153Y-146971847D01*
X70002750Y-146875622D01*
X69856715Y-146815132D01*
X69700000Y-146794500D01*
X69543285Y-146815132D01*
X69397250Y-146875622D01*
X69271847Y-146971847D01*
X69175622Y-147097250D01*
X69115132Y-147243285D01*
X69114054Y-147251473D01*
X69104821Y-147321607D01*
X69094500Y-147400000D01*
X48034520Y-147400000D01*
X48128153Y-147328153D01*
X48224378Y-147202750D01*
X48284868Y-147056715D01*
X48287641Y-147035656D01*
X48304422Y-146908188D01*
X48305500Y-146900000D01*
X48284868Y-146743285D01*
X48224378Y-146597250D01*
X48128153Y-146471847D01*
X48034520Y-146400000D01*
X67394500Y-146400000D01*
X67415132Y-146556715D01*
X67475622Y-146702750D01*
X67571847Y-146828153D01*
X67697250Y-146924378D01*
X67843285Y-146984868D01*
X68000000Y-147005500D01*
X68008188Y-147004422D01*
X68148527Y-146985946D01*
X68156715Y-146984868D01*
X68302750Y-146924378D01*
X68428153Y-146828153D01*
X68524378Y-146702750D01*
X68584868Y-146556715D01*
X68605500Y-146400000D01*
X68584868Y-146243285D01*
X68524378Y-146097250D01*
X68428153Y-145971847D01*
X68302750Y-145875622D01*
X68156715Y-145815132D01*
X68000000Y-145794500D01*
X67843285Y-145815132D01*
X67697250Y-145875622D01*
X67571847Y-145971847D01*
X67475622Y-146097250D01*
X67415132Y-146243285D01*
X67394500Y-146400000D01*
X48034520Y-146400000D01*
X48002750Y-146375622D01*
X47856715Y-146315132D01*
X47700000Y-146294500D01*
X47543285Y-146315132D01*
X47397250Y-146375622D01*
X47271847Y-146471847D01*
X47175622Y-146597250D01*
X47115132Y-146743285D01*
X47094500Y-146900000D01*
X45725517Y-146900000D01*
X45724378Y-146897250D01*
X45628153Y-146771847D01*
X45502750Y-146675622D01*
X45356715Y-146615132D01*
X45200000Y-146594500D01*
X45043285Y-146615132D01*
X44897250Y-146675622D01*
X44771847Y-146771847D01*
X44675622Y-146897250D01*
X44615132Y-147043285D01*
X44614054Y-147051473D01*
X44608890Y-147090699D01*
X44594500Y-147200000D01*
X43192335Y-147200000D01*
X43204422Y-147108188D01*
X43205500Y-147100000D01*
X43184868Y-146943285D01*
X43124378Y-146797250D01*
X43028153Y-146671847D01*
X42902750Y-146575622D01*
X42756715Y-146515132D01*
X42600000Y-146494500D01*
X42443285Y-146515132D01*
X42297250Y-146575622D01*
X42171847Y-146671847D01*
X42075622Y-146797250D01*
X42015132Y-146943285D01*
X41994500Y-147100000D01*
X40800000Y-147100000D01*
X40800000Y-145900000D01*
X43694500Y-145900000D01*
X43715132Y-146056715D01*
X43775622Y-146202750D01*
X43871847Y-146328153D01*
X43997250Y-146424378D01*
X44143285Y-146484868D01*
X44300000Y-146505500D01*
X44308188Y-146504422D01*
X44448527Y-146485946D01*
X44456715Y-146484868D01*
X44602750Y-146424378D01*
X44728153Y-146328153D01*
X44824378Y-146202750D01*
X44884868Y-146056715D01*
X44905500Y-145900000D01*
X44884868Y-145743285D01*
X44824378Y-145597250D01*
X44728153Y-145471847D01*
X44602750Y-145375622D01*
X44456715Y-145315132D01*
X44341776Y-145300000D01*
X50394500Y-145300000D01*
X50415132Y-145456715D01*
X50475622Y-145602750D01*
X50571847Y-145728153D01*
X50697250Y-145824378D01*
X50843285Y-145884868D01*
X51000000Y-145905500D01*
X51008188Y-145904422D01*
X51148527Y-145885946D01*
X51156715Y-145884868D01*
X51302750Y-145824378D01*
X51428153Y-145728153D01*
X51433176Y-145721607D01*
X51433180Y-145721603D01*
X51495245Y-145640719D01*
X51552583Y-145598852D01*
X51623454Y-145594630D01*
X51685357Y-145629394D01*
X51718638Y-145692107D01*
X51720127Y-145700967D01*
X51740632Y-145856715D01*
X51801122Y-146002750D01*
X51897347Y-146128153D01*
X52022750Y-146224378D01*
X52168785Y-146284868D01*
X52325500Y-146305500D01*
X52333688Y-146304422D01*
X52474027Y-146285946D01*
X52482215Y-146284868D01*
X52628250Y-146224378D01*
X52753653Y-146128153D01*
X52849878Y-146002750D01*
X52910368Y-145856715D01*
X52931000Y-145700000D01*
X52910368Y-145543285D01*
X52849878Y-145397250D01*
X52753653Y-145271847D01*
X52628250Y-145175622D01*
X52482215Y-145115132D01*
X52367276Y-145100000D01*
X64894500Y-145100000D01*
X64915132Y-145256715D01*
X64975622Y-145402750D01*
X65071847Y-145528153D01*
X65197250Y-145624378D01*
X65343285Y-145684868D01*
X65500000Y-145705500D01*
X65508188Y-145704422D01*
X65648527Y-145685946D01*
X65656715Y-145684868D01*
X65802750Y-145624378D01*
X65928153Y-145528153D01*
X66024378Y-145402750D01*
X66084868Y-145256715D01*
X66105500Y-145100000D01*
X66084868Y-144943285D01*
X66024378Y-144797250D01*
X65928153Y-144671847D01*
X65802750Y-144575622D01*
X65656715Y-144515132D01*
X65500000Y-144494500D01*
X65343285Y-144515132D01*
X65197250Y-144575622D01*
X65071847Y-144671847D01*
X64975622Y-144797250D01*
X64915132Y-144943285D01*
X64894500Y-145100000D01*
X52367276Y-145100000D01*
X52325500Y-145094500D01*
X52168785Y-145115132D01*
X52022750Y-145175622D01*
X51897347Y-145271847D01*
X51892324Y-145278393D01*
X51892320Y-145278397D01*
X51830255Y-145359281D01*
X51772917Y-145401148D01*
X51702046Y-145405370D01*
X51640143Y-145370606D01*
X51606862Y-145307893D01*
X51605371Y-145299023D01*
X51604918Y-145295578D01*
X51584868Y-145143285D01*
X51524378Y-144997250D01*
X51428153Y-144871847D01*
X51302750Y-144775622D01*
X51156715Y-144715132D01*
X51000000Y-144694500D01*
X50843285Y-144715132D01*
X50697250Y-144775622D01*
X50571847Y-144871847D01*
X50475622Y-144997250D01*
X50415132Y-145143285D01*
X50394500Y-145300000D01*
X44341776Y-145300000D01*
X44300000Y-145294500D01*
X44143285Y-145315132D01*
X43997250Y-145375622D01*
X43871847Y-145471847D01*
X43775622Y-145597250D01*
X43715132Y-145743285D01*
X43694500Y-145900000D01*
X40800000Y-145900000D01*
X40800000Y-142373056D01*
X45421444Y-142373056D01*
X45442076Y-142529771D01*
X45502566Y-142675806D01*
X45598791Y-142801209D01*
X45724194Y-142897434D01*
X45870229Y-142957924D01*
X46026944Y-142978556D01*
X46035132Y-142977478D01*
X46175471Y-142959002D01*
X46183659Y-142957924D01*
X46329694Y-142897434D01*
X46455097Y-142801209D01*
X46551322Y-142675806D01*
X46611812Y-142529771D01*
X46628897Y-142400000D01*
X51194500Y-142400000D01*
X51215132Y-142556715D01*
X51275622Y-142702750D01*
X51371847Y-142828153D01*
X51497250Y-142924378D01*
X51643285Y-142984868D01*
X51800000Y-143005500D01*
X51808188Y-143004422D01*
X51948527Y-142985946D01*
X51956715Y-142984868D01*
X52102750Y-142924378D01*
X52228153Y-142828153D01*
X52324378Y-142702750D01*
X52384868Y-142556715D01*
X52405500Y-142400000D01*
X52384868Y-142243285D01*
X52324378Y-142097250D01*
X52228153Y-141971847D01*
X52102750Y-141875622D01*
X51956715Y-141815132D01*
X51800000Y-141794500D01*
X51643285Y-141815132D01*
X51497250Y-141875622D01*
X51371847Y-141971847D01*
X51275622Y-142097250D01*
X51215132Y-142243285D01*
X51194500Y-142400000D01*
X46628897Y-142400000D01*
X46632444Y-142373056D01*
X46611812Y-142216341D01*
X46551322Y-142070306D01*
X46455097Y-141944903D01*
X46329694Y-141848678D01*
X46183659Y-141788188D01*
X46026944Y-141767556D01*
X45870229Y-141788188D01*
X45724194Y-141848678D01*
X45598791Y-141944903D01*
X45502566Y-142070306D01*
X45442076Y-142216341D01*
X45421444Y-142373056D01*
X40800000Y-142373056D01*
X40800000Y-137000000D01*
X44994500Y-137000000D01*
X45015132Y-137156715D01*
X45075622Y-137302750D01*
X45171847Y-137428153D01*
X45297250Y-137524378D01*
X45443285Y-137584868D01*
X45600000Y-137605500D01*
X45608188Y-137604422D01*
X45748527Y-137585946D01*
X45756715Y-137584868D01*
X45902750Y-137524378D01*
X46028153Y-137428153D01*
X46124378Y-137302750D01*
X46184868Y-137156715D01*
X46205500Y-137000000D01*
X46184868Y-136843285D01*
X46124378Y-136697250D01*
X46049756Y-136600000D01*
X51194500Y-136600000D01*
X51215132Y-136756715D01*
X51275622Y-136902750D01*
X51371847Y-137028153D01*
X51497250Y-137124378D01*
X51643285Y-137184868D01*
X51800000Y-137205500D01*
X51808188Y-137204422D01*
X51948527Y-137185946D01*
X51956715Y-137184868D01*
X52102750Y-137124378D01*
X52228153Y-137028153D01*
X52324378Y-136902750D01*
X52384868Y-136756715D01*
X52405500Y-136600000D01*
X52384868Y-136443285D01*
X52324378Y-136297250D01*
X52228153Y-136171847D01*
X52102750Y-136075622D01*
X51956715Y-136015132D01*
X51800000Y-135994500D01*
X51643285Y-136015132D01*
X51497250Y-136075622D01*
X51371847Y-136171847D01*
X51275622Y-136297250D01*
X51215132Y-136443285D01*
X51194500Y-136600000D01*
X46049756Y-136600000D01*
X46028153Y-136571847D01*
X45902750Y-136475622D01*
X45756715Y-136415132D01*
X45600000Y-136394500D01*
X45443285Y-136415132D01*
X45297250Y-136475622D01*
X45171847Y-136571847D01*
X45075622Y-136697250D01*
X45015132Y-136843285D01*
X44994500Y-137000000D01*
X40800000Y-137000000D01*
X40800000Y-135225500D01*
X45169000Y-135225500D01*
X45189632Y-135382215D01*
X45250122Y-135528250D01*
X45346347Y-135653653D01*
X45471750Y-135749878D01*
X45617785Y-135810368D01*
X45774500Y-135831000D01*
X45782688Y-135829922D01*
X45923027Y-135811446D01*
X45931215Y-135810368D01*
X46077250Y-135749878D01*
X46202653Y-135653653D01*
X46298878Y-135528250D01*
X46359368Y-135382215D01*
X46380000Y-135225500D01*
X46363478Y-135100000D01*
X47894500Y-135100000D01*
X47915132Y-135256715D01*
X47975622Y-135402750D01*
X48071847Y-135528153D01*
X48197250Y-135624378D01*
X48343285Y-135684868D01*
X48500000Y-135705500D01*
X48508188Y-135704422D01*
X48541776Y-135700000D01*
X52394500Y-135700000D01*
X52415132Y-135856715D01*
X52475622Y-136002750D01*
X52571847Y-136128153D01*
X52697250Y-136224378D01*
X52843285Y-136284868D01*
X53000000Y-136305500D01*
X53008188Y-136304422D01*
X53148527Y-136285946D01*
X53156715Y-136284868D01*
X53302750Y-136224378D01*
X53428153Y-136128153D01*
X53524378Y-136002750D01*
X53584868Y-135856715D01*
X53605500Y-135700000D01*
X53894500Y-135700000D01*
X53915132Y-135856715D01*
X53975622Y-136002750D01*
X54071847Y-136128153D01*
X54197250Y-136224378D01*
X54343285Y-136284868D01*
X54500000Y-136305500D01*
X54508188Y-136304422D01*
X54648527Y-136285946D01*
X54656715Y-136284868D01*
X54802750Y-136224378D01*
X54928153Y-136128153D01*
X55024378Y-136002750D01*
X55084868Y-135856715D01*
X55105500Y-135700000D01*
X55092335Y-135600000D01*
X55394500Y-135600000D01*
X55415132Y-135756715D01*
X55475622Y-135902750D01*
X55571847Y-136028153D01*
X55697250Y-136124378D01*
X55843285Y-136184868D01*
X56000000Y-136205500D01*
X56008188Y-136204422D01*
X56148527Y-136185946D01*
X56156715Y-136184868D01*
X56302750Y-136124378D01*
X56334520Y-136100000D01*
X63894500Y-136100000D01*
X63915132Y-136256715D01*
X63975622Y-136402750D01*
X64071847Y-136528153D01*
X64197250Y-136624378D01*
X64343285Y-136684868D01*
X64500000Y-136705500D01*
X64508188Y-136704422D01*
X64648527Y-136685946D01*
X64656715Y-136684868D01*
X64802750Y-136624378D01*
X64928153Y-136528153D01*
X65024378Y-136402750D01*
X65084868Y-136256715D01*
X65105500Y-136100000D01*
X65084868Y-135943285D01*
X65024378Y-135797250D01*
X64928153Y-135671847D01*
X64802750Y-135575622D01*
X64656715Y-135515132D01*
X64500000Y-135494500D01*
X64343285Y-135515132D01*
X64197250Y-135575622D01*
X64071847Y-135671847D01*
X63975622Y-135797250D01*
X63915132Y-135943285D01*
X63894500Y-136100000D01*
X56334520Y-136100000D01*
X56428153Y-136028153D01*
X56524378Y-135902750D01*
X56584868Y-135756715D01*
X56605500Y-135600000D01*
X56584868Y-135443285D01*
X56524378Y-135297250D01*
X56428153Y-135171847D01*
X56302750Y-135075622D01*
X56156715Y-135015132D01*
X56000000Y-134994500D01*
X55843285Y-135015132D01*
X55697250Y-135075622D01*
X55571847Y-135171847D01*
X55475622Y-135297250D01*
X55415132Y-135443285D01*
X55394500Y-135600000D01*
X55092335Y-135600000D01*
X55084868Y-135543285D01*
X55024378Y-135397250D01*
X54928153Y-135271847D01*
X54802750Y-135175622D01*
X54656715Y-135115132D01*
X54500000Y-135094500D01*
X54343285Y-135115132D01*
X54197250Y-135175622D01*
X54071847Y-135271847D01*
X53975622Y-135397250D01*
X53915132Y-135543285D01*
X53894500Y-135700000D01*
X53605500Y-135700000D01*
X53584868Y-135543285D01*
X53524378Y-135397250D01*
X53428153Y-135271847D01*
X53302750Y-135175622D01*
X53156715Y-135115132D01*
X53000000Y-135094500D01*
X52843285Y-135115132D01*
X52697250Y-135175622D01*
X52571847Y-135271847D01*
X52475622Y-135397250D01*
X52415132Y-135543285D01*
X52394500Y-135700000D01*
X48541776Y-135700000D01*
X48648527Y-135685946D01*
X48656715Y-135684868D01*
X48802750Y-135624378D01*
X48928153Y-135528153D01*
X49024378Y-135402750D01*
X49084868Y-135256715D01*
X49105500Y-135100000D01*
X49091611Y-134994500D01*
X49085946Y-134951473D01*
X49084868Y-134943285D01*
X49025517Y-134800000D01*
X59820000Y-134800000D01*
X59821078Y-134808188D01*
X59837860Y-134935656D01*
X59840632Y-134956715D01*
X59901122Y-135102750D01*
X59997347Y-135228153D01*
X60122750Y-135324378D01*
X60268785Y-135384868D01*
X60425500Y-135405500D01*
X60433688Y-135404422D01*
X60574027Y-135385946D01*
X60582215Y-135384868D01*
X60728250Y-135324378D01*
X60853653Y-135228153D01*
X60949878Y-135102750D01*
X61010368Y-134956715D01*
X61013141Y-134935656D01*
X61029922Y-134808188D01*
X61031000Y-134800000D01*
X61010368Y-134643285D01*
X60983591Y-134578640D01*
X60976002Y-134508051D01*
X61007781Y-134444564D01*
X61068839Y-134408336D01*
X61095810Y-134404948D01*
X61100000Y-134405500D01*
X61108188Y-134404422D01*
X61248527Y-134385946D01*
X61256715Y-134384868D01*
X61402750Y-134324378D01*
X61528153Y-134228153D01*
X61624378Y-134102750D01*
X61684868Y-133956715D01*
X61705500Y-133800000D01*
X61684868Y-133643285D01*
X61624378Y-133497250D01*
X61528153Y-133371847D01*
X61402750Y-133275622D01*
X61256715Y-133215132D01*
X61100000Y-133194500D01*
X60943285Y-133215132D01*
X60797250Y-133275622D01*
X60671847Y-133371847D01*
X60575622Y-133497250D01*
X60515132Y-133643285D01*
X60494500Y-133800000D01*
X60515132Y-133956715D01*
X60518292Y-133964344D01*
X60541909Y-134021360D01*
X60549498Y-134091949D01*
X60517719Y-134155436D01*
X60456661Y-134191664D01*
X60429690Y-134195052D01*
X60425500Y-134194500D01*
X60268785Y-134215132D01*
X60122750Y-134275622D01*
X59997347Y-134371847D01*
X59901122Y-134497250D01*
X59840632Y-134643285D01*
X59820000Y-134800000D01*
X49025517Y-134800000D01*
X49024378Y-134797250D01*
X48928153Y-134671847D01*
X48802750Y-134575622D01*
X48656715Y-134515132D01*
X48500000Y-134494500D01*
X48343285Y-134515132D01*
X48197250Y-134575622D01*
X48071847Y-134671847D01*
X47975622Y-134797250D01*
X47915132Y-134943285D01*
X47914054Y-134951473D01*
X47908389Y-134994500D01*
X47894500Y-135100000D01*
X46363478Y-135100000D01*
X46359368Y-135068785D01*
X46298878Y-134922750D01*
X46202653Y-134797347D01*
X46077250Y-134701122D01*
X45931215Y-134640632D01*
X45774500Y-134620000D01*
X45617785Y-134640632D01*
X45471750Y-134701122D01*
X45346347Y-134797347D01*
X45250122Y-134922750D01*
X45189632Y-135068785D01*
X45169000Y-135225500D01*
X40800000Y-135225500D01*
X40800000Y-133800000D01*
X49694500Y-133800000D01*
X49715132Y-133956715D01*
X49775622Y-134102750D01*
X49871847Y-134228153D01*
X49997250Y-134324378D01*
X50143285Y-134384868D01*
X50300000Y-134405500D01*
X50308188Y-134404422D01*
X50448527Y-134385946D01*
X50456715Y-134384868D01*
X50602750Y-134324378D01*
X50728153Y-134228153D01*
X50824378Y-134102750D01*
X50884868Y-133956715D01*
X50905500Y-133800000D01*
X50884868Y-133643285D01*
X50824378Y-133497250D01*
X50728153Y-133371847D01*
X50602750Y-133275622D01*
X50456715Y-133215132D01*
X50300000Y-133194500D01*
X50143285Y-133215132D01*
X49997250Y-133275622D01*
X49871847Y-133371847D01*
X49775622Y-133497250D01*
X49715132Y-133643285D01*
X49694500Y-133800000D01*
X40800000Y-133800000D01*
X40800000Y-132000000D01*
X61294500Y-132000000D01*
X61315132Y-132156715D01*
X61375622Y-132302750D01*
X61471847Y-132428153D01*
X61597250Y-132524378D01*
X61743285Y-132584868D01*
X61900000Y-132605500D01*
X61908188Y-132604422D01*
X62048527Y-132585946D01*
X62056715Y-132584868D01*
X62202750Y-132524378D01*
X62328153Y-132428153D01*
X62424378Y-132302750D01*
X62484868Y-132156715D01*
X62505500Y-132000000D01*
X62484868Y-131843285D01*
X62424378Y-131697250D01*
X62328153Y-131571847D01*
X62202750Y-131475622D01*
X62056715Y-131415132D01*
X61900000Y-131394500D01*
X61743285Y-131415132D01*
X61597250Y-131475622D01*
X61471847Y-131571847D01*
X61375622Y-131697250D01*
X61315132Y-131843285D01*
X61294500Y-132000000D01*
X40800000Y-132000000D01*
X40800000Y-130200000D01*
X45094500Y-130200000D01*
X45115132Y-130356715D01*
X45175622Y-130502750D01*
X45271847Y-130628153D01*
X45397250Y-130724378D01*
X45543285Y-130784868D01*
X45700000Y-130805500D01*
X45708188Y-130804422D01*
X45848527Y-130785946D01*
X45856715Y-130784868D01*
X46002750Y-130724378D01*
X46128153Y-130628153D01*
X46224378Y-130502750D01*
X46283591Y-130359798D01*
X46328140Y-130304517D01*
X46395503Y-130282096D01*
X46464294Y-130299654D01*
X46512672Y-130351616D01*
X46516409Y-130359798D01*
X46575622Y-130502750D01*
X46671847Y-130628153D01*
X46797250Y-130724378D01*
X46943285Y-130784868D01*
X47100000Y-130805500D01*
X47108188Y-130804422D01*
X47248527Y-130785946D01*
X47256715Y-130784868D01*
X47402750Y-130724378D01*
X47434520Y-130700000D01*
X66094500Y-130700000D01*
X66115132Y-130856715D01*
X66175622Y-131002750D01*
X66271847Y-131128153D01*
X66397250Y-131224378D01*
X66543285Y-131284868D01*
X66700000Y-131305500D01*
X66708188Y-131304422D01*
X66848527Y-131285946D01*
X66856715Y-131284868D01*
X67002750Y-131224378D01*
X67128153Y-131128153D01*
X67224378Y-131002750D01*
X67284868Y-130856715D01*
X67305500Y-130700000D01*
X67284868Y-130543285D01*
X67224378Y-130397250D01*
X67128153Y-130271847D01*
X67002750Y-130175622D01*
X66856715Y-130115132D01*
X66700000Y-130094500D01*
X66543285Y-130115132D01*
X66397250Y-130175622D01*
X66271847Y-130271847D01*
X66175622Y-130397250D01*
X66115132Y-130543285D01*
X66094500Y-130700000D01*
X47434520Y-130700000D01*
X47528153Y-130628153D01*
X47624378Y-130502750D01*
X47684868Y-130356715D01*
X47705500Y-130200000D01*
X47684868Y-130043285D01*
X47624378Y-129897250D01*
X47528153Y-129771847D01*
X47434520Y-129700000D01*
X71494500Y-129700000D01*
X71515132Y-129856715D01*
X71575622Y-130002750D01*
X71671847Y-130128153D01*
X71797250Y-130224378D01*
X71943285Y-130284868D01*
X72100000Y-130305500D01*
X72108188Y-130304422D01*
X72248527Y-130285946D01*
X72256715Y-130284868D01*
X72402750Y-130224378D01*
X72528153Y-130128153D01*
X72624378Y-130002750D01*
X72684868Y-129856715D01*
X72705500Y-129700000D01*
X72684868Y-129543285D01*
X72624378Y-129397250D01*
X72528153Y-129271847D01*
X72402750Y-129175622D01*
X72256715Y-129115132D01*
X72100000Y-129094500D01*
X71943285Y-129115132D01*
X71797250Y-129175622D01*
X71671847Y-129271847D01*
X71575622Y-129397250D01*
X71515132Y-129543285D01*
X71494500Y-129700000D01*
X47434520Y-129700000D01*
X47402750Y-129675622D01*
X47256715Y-129615132D01*
X47100000Y-129594500D01*
X46943285Y-129615132D01*
X46797250Y-129675622D01*
X46671847Y-129771847D01*
X46575622Y-129897250D01*
X46572462Y-129904880D01*
X46516409Y-130040202D01*
X46471860Y-130095483D01*
X46404497Y-130117904D01*
X46335706Y-130100346D01*
X46287328Y-130048384D01*
X46283591Y-130040202D01*
X46227538Y-129904880D01*
X46224378Y-129897250D01*
X46128153Y-129771847D01*
X46002750Y-129675622D01*
X45856715Y-129615132D01*
X45700000Y-129594500D01*
X45543285Y-129615132D01*
X45397250Y-129675622D01*
X45271847Y-129771847D01*
X45175622Y-129897250D01*
X45115132Y-130043285D01*
X45094500Y-130200000D01*
X40800000Y-130200000D01*
X40800000Y-128696540D01*
X40824064Y-128622479D01*
X40871844Y-128556715D01*
X40884780Y-128538910D01*
X40890121Y-128532068D01*
X40891473Y-128530454D01*
X40891473Y-128530453D01*
X40896047Y-128524993D01*
X40898761Y-128519667D01*
X40898832Y-128519570D01*
X40898835Y-128519565D01*
X40902161Y-128514987D01*
X40904940Y-128508487D01*
X40904944Y-128508480D01*
X40905796Y-128506487D01*
X40909382Y-128498822D01*
X40959734Y-128400000D01*
X47994500Y-128400000D01*
X47995578Y-128408188D01*
X48012360Y-128535656D01*
X48015132Y-128556715D01*
X48075622Y-128702750D01*
X48171847Y-128828153D01*
X48297250Y-128924378D01*
X48443285Y-128984868D01*
X48600000Y-129005500D01*
X48608188Y-129004422D01*
X48748527Y-128985946D01*
X48756715Y-128984868D01*
X48902750Y-128924378D01*
X49028153Y-128828153D01*
X49124378Y-128702750D01*
X49125517Y-128700000D01*
X56294500Y-128700000D01*
X56315132Y-128856715D01*
X56375622Y-129002750D01*
X56471847Y-129128153D01*
X56597250Y-129224378D01*
X56743285Y-129284868D01*
X56900000Y-129305500D01*
X56908188Y-129304422D01*
X57048527Y-129285946D01*
X57056715Y-129284868D01*
X57202750Y-129224378D01*
X57328153Y-129128153D01*
X57424378Y-129002750D01*
X57484868Y-128856715D01*
X57505500Y-128700000D01*
X57495184Y-128621642D01*
X57485946Y-128551473D01*
X57484868Y-128543285D01*
X57481602Y-128535399D01*
X57473543Y-128515945D01*
X57424378Y-128397250D01*
X57333840Y-128279258D01*
X57333176Y-128278393D01*
X57328153Y-128271847D01*
X57202750Y-128175622D01*
X57056715Y-128115132D01*
X56900000Y-128094500D01*
X56743285Y-128115132D01*
X56597250Y-128175622D01*
X56471847Y-128271847D01*
X56466824Y-128278393D01*
X56466160Y-128279258D01*
X56375622Y-128397250D01*
X56326457Y-128515945D01*
X56318399Y-128535399D01*
X56315132Y-128543285D01*
X56314054Y-128551473D01*
X56304816Y-128621642D01*
X56294500Y-128700000D01*
X49125517Y-128700000D01*
X49184868Y-128556715D01*
X49187641Y-128535656D01*
X49204422Y-128408188D01*
X49205500Y-128400000D01*
X49184868Y-128243285D01*
X49124378Y-128097250D01*
X49028153Y-127971847D01*
X48902750Y-127875622D01*
X48756715Y-127815132D01*
X48600000Y-127794500D01*
X48443285Y-127815132D01*
X48297250Y-127875622D01*
X48171847Y-127971847D01*
X48075622Y-128097250D01*
X48015132Y-128243285D01*
X47994500Y-128400000D01*
X40959734Y-128400000D01*
X41013351Y-128294770D01*
X41017561Y-128287169D01*
X41018640Y-128285370D01*
X41018641Y-128285367D01*
X41022305Y-128279258D01*
X41024153Y-128273572D01*
X41026778Y-128268419D01*
X41029042Y-128259439D01*
X41031380Y-128251327D01*
X41057005Y-128172462D01*
X41102154Y-128033507D01*
X41105120Y-128025348D01*
X41105903Y-128023407D01*
X41105904Y-128023405D01*
X41108566Y-128016799D01*
X41109501Y-128010896D01*
X41111289Y-128005393D01*
X41112118Y-127996196D01*
X41113160Y-127987794D01*
X41140507Y-127815132D01*
X41148375Y-127765454D01*
X41150511Y-127754971D01*
X41150529Y-127754837D01*
X41152256Y-127747924D01*
X41152390Y-127740803D01*
X41152470Y-127740201D01*
X41152507Y-127739367D01*
X41153613Y-127732385D01*
X41153138Y-127725328D01*
X41153141Y-127725268D01*
X41152883Y-127714601D01*
X41155243Y-127589003D01*
X41155376Y-127581936D01*
X41152651Y-127568862D01*
X41150000Y-127543152D01*
X41150000Y-126679898D01*
X41170002Y-126611777D01*
X41223658Y-126565284D01*
X41293932Y-126555180D01*
X41358512Y-126584674D01*
X41375961Y-126603192D01*
X41471847Y-126728153D01*
X41597250Y-126824378D01*
X41743285Y-126884868D01*
X41900000Y-126905500D01*
X41908188Y-126904422D01*
X42048527Y-126885946D01*
X42056715Y-126884868D01*
X42202750Y-126824378D01*
X42328153Y-126728153D01*
X42424378Y-126602750D01*
X42484868Y-126456715D01*
X42505500Y-126300000D01*
X42495184Y-126221642D01*
X42485946Y-126151473D01*
X42484868Y-126143285D01*
X42425517Y-126000000D01*
X52794500Y-126000000D01*
X52795578Y-126008188D01*
X52812360Y-126135656D01*
X52815132Y-126156715D01*
X52875622Y-126302750D01*
X52971847Y-126428153D01*
X53097250Y-126524378D01*
X53243285Y-126584868D01*
X53400000Y-126605500D01*
X53408188Y-126604422D01*
X53548527Y-126585946D01*
X53556715Y-126584868D01*
X53702750Y-126524378D01*
X53828153Y-126428153D01*
X53924378Y-126302750D01*
X53984868Y-126156715D01*
X53987641Y-126135656D01*
X54004422Y-126008188D01*
X54005500Y-126000000D01*
X64794500Y-126000000D01*
X64795578Y-126008188D01*
X64812360Y-126135656D01*
X64815132Y-126156715D01*
X64875622Y-126302750D01*
X64971847Y-126428153D01*
X65097250Y-126524378D01*
X65243285Y-126584868D01*
X65400000Y-126605500D01*
X65408188Y-126604422D01*
X65548527Y-126585946D01*
X65556715Y-126584868D01*
X65702750Y-126524378D01*
X65828153Y-126428153D01*
X65924378Y-126302750D01*
X65984868Y-126156715D01*
X65987641Y-126135656D01*
X66004422Y-126008188D01*
X66005500Y-126000000D01*
X65987562Y-125863751D01*
X65985946Y-125851473D01*
X65984868Y-125843285D01*
X65924378Y-125697250D01*
X65828153Y-125571847D01*
X65702750Y-125475622D01*
X65556715Y-125415132D01*
X65400000Y-125394500D01*
X65243285Y-125415132D01*
X65097250Y-125475622D01*
X64971847Y-125571847D01*
X64875622Y-125697250D01*
X64815132Y-125843285D01*
X64814054Y-125851473D01*
X64812438Y-125863751D01*
X64794500Y-126000000D01*
X54005500Y-126000000D01*
X53987562Y-125863751D01*
X53985946Y-125851473D01*
X53984868Y-125843285D01*
X53924378Y-125697250D01*
X53828153Y-125571847D01*
X53702750Y-125475622D01*
X53556715Y-125415132D01*
X53400000Y-125394500D01*
X53243285Y-125415132D01*
X53097250Y-125475622D01*
X52971847Y-125571847D01*
X52875622Y-125697250D01*
X52815132Y-125843285D01*
X52814054Y-125851473D01*
X52812438Y-125863751D01*
X52794500Y-126000000D01*
X42425517Y-126000000D01*
X42424378Y-125997250D01*
X42328153Y-125871847D01*
X42202750Y-125775622D01*
X42056715Y-125715132D01*
X41900000Y-125694500D01*
X41743285Y-125715132D01*
X41597250Y-125775622D01*
X41471847Y-125871847D01*
X41466824Y-125878393D01*
X41375963Y-125996806D01*
X41318625Y-126038673D01*
X41247754Y-126042895D01*
X41185851Y-126008131D01*
X41152570Y-125945418D01*
X41150000Y-125920102D01*
X41150000Y-125200000D01*
X42794500Y-125200000D01*
X42815132Y-125356715D01*
X42875622Y-125502750D01*
X42971847Y-125628153D01*
X43097250Y-125724378D01*
X43243285Y-125784868D01*
X43400000Y-125805500D01*
X43408188Y-125804422D01*
X43548527Y-125785946D01*
X43556715Y-125784868D01*
X43702750Y-125724378D01*
X43828153Y-125628153D01*
X43924378Y-125502750D01*
X43984868Y-125356715D01*
X43995257Y-125277805D01*
X48033521Y-125277805D01*
X48034599Y-125285993D01*
X48051601Y-125415132D01*
X48054153Y-125434520D01*
X48114643Y-125580555D01*
X48210868Y-125705958D01*
X48336271Y-125802183D01*
X48482306Y-125862673D01*
X48639021Y-125883305D01*
X48647209Y-125882227D01*
X48787548Y-125863751D01*
X48795736Y-125862673D01*
X48941771Y-125802183D01*
X49067174Y-125705958D01*
X49163399Y-125580555D01*
X49223889Y-125434520D01*
X49226442Y-125415132D01*
X49243443Y-125285993D01*
X49244521Y-125277805D01*
X49223889Y-125121090D01*
X49163399Y-124975055D01*
X49067174Y-124849652D01*
X48941771Y-124753427D01*
X48816510Y-124701542D01*
X48803365Y-124696097D01*
X48795736Y-124692937D01*
X48639021Y-124672305D01*
X48482306Y-124692937D01*
X48474677Y-124696097D01*
X48461532Y-124701542D01*
X48336271Y-124753427D01*
X48210868Y-124849652D01*
X48114643Y-124975055D01*
X48054153Y-125121090D01*
X48033521Y-125277805D01*
X43995257Y-125277805D01*
X44005500Y-125200000D01*
X43984868Y-125043285D01*
X43924378Y-124897250D01*
X43828153Y-124771847D01*
X43702750Y-124675622D01*
X43556715Y-124615132D01*
X43400000Y-124594500D01*
X43243285Y-124615132D01*
X43097250Y-124675622D01*
X42971847Y-124771847D01*
X42875622Y-124897250D01*
X42815132Y-125043285D01*
X42794500Y-125200000D01*
X41150000Y-125200000D01*
X41150000Y-124400000D01*
X52794500Y-124400000D01*
X52815132Y-124556715D01*
X52875622Y-124702750D01*
X52971847Y-124828153D01*
X53097250Y-124924378D01*
X53243285Y-124984868D01*
X53400000Y-125005500D01*
X53408188Y-125004422D01*
X53548527Y-124985946D01*
X53556715Y-124984868D01*
X53702750Y-124924378D01*
X53828153Y-124828153D01*
X53924378Y-124702750D01*
X53984868Y-124556715D01*
X54005500Y-124400000D01*
X53984868Y-124243285D01*
X53924378Y-124097250D01*
X53849756Y-124000000D01*
X64694500Y-124000000D01*
X64715132Y-124156715D01*
X64775622Y-124302750D01*
X64871847Y-124428153D01*
X64997250Y-124524378D01*
X65143285Y-124584868D01*
X65300000Y-124605500D01*
X65308188Y-124604422D01*
X65448527Y-124585946D01*
X65456715Y-124584868D01*
X65602750Y-124524378D01*
X65728153Y-124428153D01*
X65824378Y-124302750D01*
X65884868Y-124156715D01*
X65905500Y-124000000D01*
X65884868Y-123843285D01*
X65824378Y-123697250D01*
X65728153Y-123571847D01*
X65703791Y-123553153D01*
X65609301Y-123480649D01*
X65602750Y-123475622D01*
X65456715Y-123415132D01*
X65300000Y-123394500D01*
X65143285Y-123415132D01*
X64997250Y-123475622D01*
X64990699Y-123480649D01*
X64896210Y-123553153D01*
X64871847Y-123571847D01*
X64775622Y-123697250D01*
X64715132Y-123843285D01*
X64694500Y-124000000D01*
X53849756Y-124000000D01*
X53828153Y-123971847D01*
X53702750Y-123875622D01*
X53556715Y-123815132D01*
X53400000Y-123794500D01*
X53243285Y-123815132D01*
X53097250Y-123875622D01*
X52971847Y-123971847D01*
X52875622Y-124097250D01*
X52815132Y-124243285D01*
X52794500Y-124400000D01*
X41150000Y-124400000D01*
X41150000Y-123125000D01*
X44169500Y-123125000D01*
X44190132Y-123281715D01*
X44250622Y-123427750D01*
X44346847Y-123553153D01*
X44353393Y-123558176D01*
X44379740Y-123578393D01*
X44472250Y-123649378D01*
X44618285Y-123709868D01*
X44775000Y-123730500D01*
X44783188Y-123729422D01*
X44923527Y-123710946D01*
X44931715Y-123709868D01*
X45077750Y-123649378D01*
X45170260Y-123578393D01*
X45196607Y-123558176D01*
X45203153Y-123553153D01*
X45299378Y-123427750D01*
X45310872Y-123400000D01*
X47194500Y-123400000D01*
X47215132Y-123556715D01*
X47275622Y-123702750D01*
X47371847Y-123828153D01*
X47497250Y-123924378D01*
X47643285Y-123984868D01*
X47800000Y-124005500D01*
X47808188Y-124004422D01*
X47948527Y-123985946D01*
X47956715Y-123984868D01*
X48102750Y-123924378D01*
X48228153Y-123828153D01*
X48324378Y-123702750D01*
X48384868Y-123556715D01*
X48405500Y-123400000D01*
X48384868Y-123243285D01*
X48324378Y-123097250D01*
X48228153Y-122971847D01*
X48102750Y-122875622D01*
X47956715Y-122815132D01*
X47841776Y-122800000D01*
X49194500Y-122800000D01*
X49215132Y-122956715D01*
X49275622Y-123102750D01*
X49371847Y-123228153D01*
X49497250Y-123324378D01*
X49643285Y-123384868D01*
X49800000Y-123405500D01*
X49808188Y-123404422D01*
X49948527Y-123385946D01*
X49956715Y-123384868D01*
X50102750Y-123324378D01*
X50228153Y-123228153D01*
X50324378Y-123102750D01*
X50384868Y-122956715D01*
X50405500Y-122800000D01*
X50384868Y-122643285D01*
X50324378Y-122497250D01*
X50228153Y-122371847D01*
X50102750Y-122275622D01*
X49956715Y-122215132D01*
X49800000Y-122194500D01*
X49643285Y-122215132D01*
X49497250Y-122275622D01*
X49371847Y-122371847D01*
X49275622Y-122497250D01*
X49215132Y-122643285D01*
X49194500Y-122800000D01*
X47841776Y-122800000D01*
X47800000Y-122794500D01*
X47643285Y-122815132D01*
X47497250Y-122875622D01*
X47371847Y-122971847D01*
X47275622Y-123097250D01*
X47215132Y-123243285D01*
X47194500Y-123400000D01*
X45310872Y-123400000D01*
X45359868Y-123281715D01*
X45380500Y-123125000D01*
X45359868Y-122968285D01*
X45299378Y-122822250D01*
X45203153Y-122696847D01*
X45077750Y-122600622D01*
X44931715Y-122540132D01*
X44775000Y-122519500D01*
X44618285Y-122540132D01*
X44472250Y-122600622D01*
X44346847Y-122696847D01*
X44250622Y-122822250D01*
X44190132Y-122968285D01*
X44169500Y-123125000D01*
X41150000Y-123125000D01*
X41150000Y-121200000D01*
X49194500Y-121200000D01*
X49215132Y-121356715D01*
X49275622Y-121502750D01*
X49371847Y-121628153D01*
X49497250Y-121724378D01*
X49643285Y-121784868D01*
X49800000Y-121805500D01*
X49808188Y-121804422D01*
X49948527Y-121785946D01*
X49956715Y-121784868D01*
X50102750Y-121724378D01*
X50228153Y-121628153D01*
X50324378Y-121502750D01*
X50384868Y-121356715D01*
X50405500Y-121200000D01*
X50384868Y-121043285D01*
X50324378Y-120897250D01*
X50228153Y-120771847D01*
X50102750Y-120675622D01*
X49956715Y-120615132D01*
X49800000Y-120594500D01*
X49643285Y-120615132D01*
X49497250Y-120675622D01*
X49371847Y-120771847D01*
X49275622Y-120897250D01*
X49215132Y-121043285D01*
X49194500Y-121200000D01*
X41150000Y-121200000D01*
X41150000Y-119600000D01*
X49194500Y-119600000D01*
X49215132Y-119756715D01*
X49275622Y-119902750D01*
X49371847Y-120028153D01*
X49497250Y-120124378D01*
X49643285Y-120184868D01*
X49800000Y-120205500D01*
X49808188Y-120204422D01*
X49948527Y-120185946D01*
X49956715Y-120184868D01*
X50102750Y-120124378D01*
X50228153Y-120028153D01*
X50324378Y-119902750D01*
X50384868Y-119756715D01*
X50405500Y-119600000D01*
X50384868Y-119443285D01*
X50324378Y-119297250D01*
X50228153Y-119171847D01*
X50102750Y-119075622D01*
X49956715Y-119015132D01*
X49800000Y-118994500D01*
X49643285Y-119015132D01*
X49497250Y-119075622D01*
X49371847Y-119171847D01*
X49275622Y-119297250D01*
X49215132Y-119443285D01*
X49194500Y-119600000D01*
X41150000Y-119600000D01*
X41150000Y-118000000D01*
X49194500Y-118000000D01*
X49215132Y-118156715D01*
X49275622Y-118302750D01*
X49371847Y-118428153D01*
X49497250Y-118524378D01*
X49643285Y-118584868D01*
X49800000Y-118605500D01*
X49808188Y-118604422D01*
X49948527Y-118585946D01*
X49956715Y-118584868D01*
X50102750Y-118524378D01*
X50228153Y-118428153D01*
X50324378Y-118302750D01*
X50384868Y-118156715D01*
X50405500Y-118000000D01*
X50384868Y-117843285D01*
X50324378Y-117697250D01*
X50228153Y-117571847D01*
X50102750Y-117475622D01*
X49956715Y-117415132D01*
X49800000Y-117394500D01*
X49643285Y-117415132D01*
X49497250Y-117475622D01*
X49371847Y-117571847D01*
X49275622Y-117697250D01*
X49215132Y-117843285D01*
X49194500Y-118000000D01*
X41150000Y-118000000D01*
X41150000Y-116400000D01*
X49194500Y-116400000D01*
X49195578Y-116408188D01*
X49212360Y-116535656D01*
X49215132Y-116556715D01*
X49275622Y-116702750D01*
X49371847Y-116828153D01*
X49497250Y-116924378D01*
X49643285Y-116984868D01*
X49800000Y-117005500D01*
X49808188Y-117004422D01*
X49948527Y-116985946D01*
X49956715Y-116984868D01*
X50102750Y-116924378D01*
X50228153Y-116828153D01*
X50324378Y-116702750D01*
X50325517Y-116700000D01*
X55394500Y-116700000D01*
X55415132Y-116856715D01*
X55475622Y-117002750D01*
X55571847Y-117128153D01*
X55697250Y-117224378D01*
X55843285Y-117284868D01*
X56000000Y-117305500D01*
X56008188Y-117304422D01*
X56148527Y-117285946D01*
X56156715Y-117284868D01*
X56300041Y-117225500D01*
X61894500Y-117225500D01*
X61915132Y-117382215D01*
X61975622Y-117528250D01*
X62071847Y-117653653D01*
X62197250Y-117749878D01*
X62343285Y-117810368D01*
X62500000Y-117831000D01*
X62508188Y-117829922D01*
X62648527Y-117811446D01*
X62656715Y-117810368D01*
X62802750Y-117749878D01*
X62928153Y-117653653D01*
X62969322Y-117600000D01*
X66794500Y-117600000D01*
X66815132Y-117756715D01*
X66875622Y-117902750D01*
X66971847Y-118028153D01*
X67097250Y-118124378D01*
X67243285Y-118184868D01*
X67400000Y-118205500D01*
X67408188Y-118204422D01*
X67548527Y-118185946D01*
X67556715Y-118184868D01*
X67702750Y-118124378D01*
X67828153Y-118028153D01*
X67924378Y-117902750D01*
X67946022Y-117850498D01*
X68294500Y-117850498D01*
X68315132Y-118007213D01*
X68375622Y-118153248D01*
X68471847Y-118278651D01*
X68597250Y-118374876D01*
X68743285Y-118435366D01*
X68900000Y-118455998D01*
X68908188Y-118454920D01*
X69048527Y-118436444D01*
X69056715Y-118435366D01*
X69202750Y-118374876D01*
X69328153Y-118278651D01*
X69424378Y-118153248D01*
X69484868Y-118007213D01*
X69505500Y-117850498D01*
X69484868Y-117693783D01*
X69424378Y-117547748D01*
X69328153Y-117422345D01*
X69202750Y-117326120D01*
X69056715Y-117265630D01*
X68900000Y-117244998D01*
X68743285Y-117265630D01*
X68597250Y-117326120D01*
X68471847Y-117422345D01*
X68375622Y-117547748D01*
X68315132Y-117693783D01*
X68294500Y-117850498D01*
X67946022Y-117850498D01*
X67984868Y-117756715D01*
X68005500Y-117600000D01*
X67984868Y-117443285D01*
X67924378Y-117297250D01*
X67828153Y-117171847D01*
X67702750Y-117075622D01*
X67556715Y-117015132D01*
X67400000Y-116994500D01*
X67243285Y-117015132D01*
X67097250Y-117075622D01*
X66971847Y-117171847D01*
X66875622Y-117297250D01*
X66815132Y-117443285D01*
X66794500Y-117600000D01*
X62969322Y-117600000D01*
X63024378Y-117528250D01*
X63084868Y-117382215D01*
X63105500Y-117225500D01*
X63084868Y-117068785D01*
X63024378Y-116922750D01*
X62928153Y-116797347D01*
X62802750Y-116701122D01*
X62656715Y-116640632D01*
X62500000Y-116620000D01*
X62343285Y-116640632D01*
X62197250Y-116701122D01*
X62071847Y-116797347D01*
X61975622Y-116922750D01*
X61915132Y-117068785D01*
X61894500Y-117225500D01*
X56300041Y-117225500D01*
X56302750Y-117224378D01*
X56428153Y-117128153D01*
X56524378Y-117002750D01*
X56584868Y-116856715D01*
X56605500Y-116700000D01*
X56594968Y-116620000D01*
X56585946Y-116551473D01*
X56584868Y-116543285D01*
X56524378Y-116397250D01*
X56428153Y-116271847D01*
X56302750Y-116175622D01*
X56156715Y-116115132D01*
X56000000Y-116094500D01*
X55843285Y-116115132D01*
X55697250Y-116175622D01*
X55571847Y-116271847D01*
X55475622Y-116397250D01*
X55415132Y-116543285D01*
X55414054Y-116551473D01*
X55405032Y-116620000D01*
X55394500Y-116700000D01*
X50325517Y-116700000D01*
X50384868Y-116556715D01*
X50387641Y-116535656D01*
X50404422Y-116408188D01*
X50405500Y-116400000D01*
X50384868Y-116243285D01*
X50324378Y-116097250D01*
X50228153Y-115971847D01*
X50102750Y-115875622D01*
X49956715Y-115815132D01*
X49800000Y-115794500D01*
X49643285Y-115815132D01*
X49497250Y-115875622D01*
X49371847Y-115971847D01*
X49275622Y-116097250D01*
X49215132Y-116243285D01*
X49194500Y-116400000D01*
X41150000Y-116400000D01*
X41150000Y-114800000D01*
X49194500Y-114800000D01*
X49215132Y-114956715D01*
X49275622Y-115102750D01*
X49371847Y-115228153D01*
X49497250Y-115324378D01*
X49643285Y-115384868D01*
X49800000Y-115405500D01*
X49808188Y-115404422D01*
X49948527Y-115385946D01*
X49956715Y-115384868D01*
X50102750Y-115324378D01*
X50228153Y-115228153D01*
X50249756Y-115200000D01*
X54194500Y-115200000D01*
X54215132Y-115356715D01*
X54275622Y-115502750D01*
X54371847Y-115628153D01*
X54497250Y-115724378D01*
X54643285Y-115784868D01*
X54800000Y-115805500D01*
X54808188Y-115804422D01*
X54948527Y-115785946D01*
X54956715Y-115784868D01*
X55102750Y-115724378D01*
X55228153Y-115628153D01*
X55324378Y-115502750D01*
X55384868Y-115356715D01*
X55405500Y-115200000D01*
X55384868Y-115043285D01*
X55324378Y-114897250D01*
X55228153Y-114771847D01*
X55102750Y-114675622D01*
X54956715Y-114615132D01*
X54800000Y-114594500D01*
X54643285Y-114615132D01*
X54497250Y-114675622D01*
X54371847Y-114771847D01*
X54275622Y-114897250D01*
X54215132Y-115043285D01*
X54194500Y-115200000D01*
X50249756Y-115200000D01*
X50324378Y-115102750D01*
X50384868Y-114956715D01*
X50405500Y-114800000D01*
X50388709Y-114672462D01*
X50385946Y-114651473D01*
X50384868Y-114643285D01*
X50325517Y-114500000D01*
X52794500Y-114500000D01*
X52795578Y-114508188D01*
X52812360Y-114635656D01*
X52815132Y-114656715D01*
X52875622Y-114802750D01*
X52971847Y-114928153D01*
X53097250Y-115024378D01*
X53243285Y-115084868D01*
X53400000Y-115105500D01*
X53408188Y-115104422D01*
X53548527Y-115085946D01*
X53556715Y-115084868D01*
X53702750Y-115024378D01*
X53828153Y-114928153D01*
X53924378Y-114802750D01*
X53984868Y-114656715D01*
X53987641Y-114635656D01*
X54004422Y-114508188D01*
X54005500Y-114500000D01*
X53987967Y-114366824D01*
X53985946Y-114351473D01*
X53984868Y-114343285D01*
X53925517Y-114200000D01*
X59494500Y-114200000D01*
X59495578Y-114208188D01*
X59512360Y-114335656D01*
X59515132Y-114356715D01*
X59575622Y-114502750D01*
X59671847Y-114628153D01*
X59797250Y-114724378D01*
X59943285Y-114784868D01*
X60100000Y-114805500D01*
X60108188Y-114804422D01*
X60248527Y-114785946D01*
X60256715Y-114784868D01*
X60402750Y-114724378D01*
X60528153Y-114628153D01*
X60624378Y-114502750D01*
X60684868Y-114356715D01*
X60687641Y-114335656D01*
X60704422Y-114208188D01*
X60705500Y-114200000D01*
X60692335Y-114100000D01*
X67594500Y-114100000D01*
X67615132Y-114256715D01*
X67675622Y-114402750D01*
X67771847Y-114528153D01*
X67897250Y-114624378D01*
X68043285Y-114684868D01*
X68200000Y-114705500D01*
X68208188Y-114704422D01*
X68348527Y-114685946D01*
X68356715Y-114684868D01*
X68502750Y-114624378D01*
X68628153Y-114528153D01*
X68724378Y-114402750D01*
X68784868Y-114256715D01*
X68805500Y-114100000D01*
X68784868Y-113943285D01*
X68724378Y-113797250D01*
X68628153Y-113671847D01*
X68502750Y-113575622D01*
X68356715Y-113515132D01*
X68200000Y-113494500D01*
X68043285Y-113515132D01*
X67897250Y-113575622D01*
X67771847Y-113671847D01*
X67675622Y-113797250D01*
X67615132Y-113943285D01*
X67594500Y-114100000D01*
X60692335Y-114100000D01*
X60684868Y-114043285D01*
X60624378Y-113897250D01*
X60528153Y-113771847D01*
X60402750Y-113675622D01*
X60256715Y-113615132D01*
X60100000Y-113594500D01*
X59943285Y-113615132D01*
X59797250Y-113675622D01*
X59671847Y-113771847D01*
X59575622Y-113897250D01*
X59515132Y-114043285D01*
X59494500Y-114200000D01*
X53925517Y-114200000D01*
X53924378Y-114197250D01*
X53828153Y-114071847D01*
X53702750Y-113975622D01*
X53556715Y-113915132D01*
X53400000Y-113894500D01*
X53243285Y-113915132D01*
X53097250Y-113975622D01*
X52971847Y-114071847D01*
X52875622Y-114197250D01*
X52815132Y-114343285D01*
X52814054Y-114351473D01*
X52812033Y-114366824D01*
X52794500Y-114500000D01*
X50325517Y-114500000D01*
X50324378Y-114497250D01*
X50228153Y-114371847D01*
X50102750Y-114275622D01*
X49956715Y-114215132D01*
X49800000Y-114194500D01*
X49643285Y-114215132D01*
X49497250Y-114275622D01*
X49371847Y-114371847D01*
X49275622Y-114497250D01*
X49215132Y-114643285D01*
X49214054Y-114651473D01*
X49211291Y-114672462D01*
X49194500Y-114800000D01*
X41150000Y-114800000D01*
X41150000Y-113500000D01*
X46494500Y-113500000D01*
X46515132Y-113656715D01*
X46575622Y-113802750D01*
X46671847Y-113928153D01*
X46797250Y-114024378D01*
X46943285Y-114084868D01*
X47100000Y-114105500D01*
X47108188Y-114104422D01*
X47248527Y-114085946D01*
X47256715Y-114084868D01*
X47402750Y-114024378D01*
X47528153Y-113928153D01*
X47624378Y-113802750D01*
X47684868Y-113656715D01*
X47705500Y-113500000D01*
X47692335Y-113400000D01*
X56794500Y-113400000D01*
X56815132Y-113556715D01*
X56875622Y-113702750D01*
X56971847Y-113828153D01*
X57097250Y-113924378D01*
X57243285Y-113984868D01*
X57400000Y-114005500D01*
X57408188Y-114004422D01*
X57548527Y-113985946D01*
X57556715Y-113984868D01*
X57702750Y-113924378D01*
X57828153Y-113828153D01*
X57924378Y-113702750D01*
X57984868Y-113556715D01*
X58005500Y-113400000D01*
X57984868Y-113243285D01*
X57924378Y-113097250D01*
X57828153Y-112971847D01*
X57702750Y-112875622D01*
X57556715Y-112815132D01*
X57400000Y-112794500D01*
X57243285Y-112815132D01*
X57097250Y-112875622D01*
X56971847Y-112971847D01*
X56875622Y-113097250D01*
X56815132Y-113243285D01*
X56794500Y-113400000D01*
X47692335Y-113400000D01*
X47684868Y-113343285D01*
X47624378Y-113197250D01*
X47528153Y-113071847D01*
X47402750Y-112975622D01*
X47256715Y-112915132D01*
X47100000Y-112894500D01*
X46943285Y-112915132D01*
X46797250Y-112975622D01*
X46671847Y-113071847D01*
X46575622Y-113197250D01*
X46515132Y-113343285D01*
X46494500Y-113500000D01*
X41150000Y-113500000D01*
X41150000Y-112537701D01*
X61032201Y-112537701D01*
X61052833Y-112694416D01*
X61113323Y-112840451D01*
X61209548Y-112965854D01*
X61334951Y-113062079D01*
X61480986Y-113122569D01*
X61637701Y-113143201D01*
X61645889Y-113142123D01*
X61786228Y-113123647D01*
X61794416Y-113122569D01*
X61940451Y-113062079D01*
X62065854Y-112965854D01*
X62162079Y-112840451D01*
X62222569Y-112694416D01*
X62243201Y-112537701D01*
X62222569Y-112380986D01*
X62189023Y-112300000D01*
X64494500Y-112300000D01*
X64515132Y-112456715D01*
X64575622Y-112602750D01*
X64671847Y-112728153D01*
X64797250Y-112824378D01*
X64943285Y-112884868D01*
X65100000Y-112905500D01*
X65108188Y-112904422D01*
X65248527Y-112885946D01*
X65256715Y-112884868D01*
X65402750Y-112824378D01*
X65528153Y-112728153D01*
X65624378Y-112602750D01*
X65633591Y-112580508D01*
X65678140Y-112525227D01*
X65745503Y-112502806D01*
X65814294Y-112520364D01*
X65862673Y-112572326D01*
X65866409Y-112580508D01*
X65875622Y-112602750D01*
X65971847Y-112728153D01*
X66097250Y-112824378D01*
X66243285Y-112884868D01*
X66400000Y-112905500D01*
X66408188Y-112904422D01*
X66548527Y-112885946D01*
X66556715Y-112884868D01*
X66702750Y-112824378D01*
X66823296Y-112731880D01*
X66889516Y-112706280D01*
X66959065Y-112720545D01*
X66976705Y-112731880D01*
X67097250Y-112824378D01*
X67243285Y-112884868D01*
X67400000Y-112905500D01*
X67408188Y-112904422D01*
X67548527Y-112885946D01*
X67556715Y-112884868D01*
X67702750Y-112824378D01*
X67828153Y-112728153D01*
X67924378Y-112602750D01*
X67984868Y-112456715D01*
X68005500Y-112300000D01*
X67984868Y-112143285D01*
X67924378Y-111997250D01*
X67828153Y-111871847D01*
X67702750Y-111775622D01*
X67556715Y-111715132D01*
X67400000Y-111694500D01*
X67243285Y-111715132D01*
X67097250Y-111775622D01*
X67090699Y-111780649D01*
X66976704Y-111868120D01*
X66910484Y-111893720D01*
X66840935Y-111879455D01*
X66823296Y-111868120D01*
X66709301Y-111780649D01*
X66702750Y-111775622D01*
X66556715Y-111715132D01*
X66400000Y-111694500D01*
X66243285Y-111715132D01*
X66097250Y-111775622D01*
X65971847Y-111871847D01*
X65875622Y-111997250D01*
X65868964Y-112013323D01*
X65866409Y-112019492D01*
X65821860Y-112074773D01*
X65754497Y-112097194D01*
X65685706Y-112079636D01*
X65637327Y-112027674D01*
X65633591Y-112019492D01*
X65631036Y-112013323D01*
X65624378Y-111997250D01*
X65528153Y-111871847D01*
X65402750Y-111775622D01*
X65256715Y-111715132D01*
X65100000Y-111694500D01*
X64943285Y-111715132D01*
X64797250Y-111775622D01*
X64671847Y-111871847D01*
X64575622Y-111997250D01*
X64515132Y-112143285D01*
X64494500Y-112300000D01*
X62189023Y-112300000D01*
X62162079Y-112234951D01*
X62065854Y-112109548D01*
X61940451Y-112013323D01*
X61794416Y-111952833D01*
X61637701Y-111932201D01*
X61480986Y-111952833D01*
X61334951Y-112013323D01*
X61209548Y-112109548D01*
X61113323Y-112234951D01*
X61052833Y-112380986D01*
X61032201Y-112537701D01*
X41150000Y-112537701D01*
X41150000Y-110724020D01*
X67394426Y-110724020D01*
X67415058Y-110880735D01*
X67475548Y-111026770D01*
X67571773Y-111152173D01*
X67697176Y-111248398D01*
X67843211Y-111308888D01*
X67999926Y-111329520D01*
X68008114Y-111328442D01*
X68148453Y-111309966D01*
X68156641Y-111308888D01*
X68302676Y-111248398D01*
X68428079Y-111152173D01*
X68524304Y-111026770D01*
X68584794Y-110880735D01*
X68605426Y-110724020D01*
X68595110Y-110645663D01*
X68585872Y-110575493D01*
X68584794Y-110567305D01*
X68524304Y-110421270D01*
X68428079Y-110295867D01*
X68302676Y-110199642D01*
X68156641Y-110139152D01*
X67999926Y-110118520D01*
X67843211Y-110139152D01*
X67697176Y-110199642D01*
X67571773Y-110295867D01*
X67475548Y-110421270D01*
X67415058Y-110567305D01*
X67413980Y-110575493D01*
X67404742Y-110645663D01*
X67394426Y-110724020D01*
X41150000Y-110724020D01*
X41150000Y-107500000D01*
X65394500Y-107500000D01*
X65415132Y-107656715D01*
X65475622Y-107802750D01*
X65571847Y-107928153D01*
X65697250Y-108024378D01*
X65747374Y-108045140D01*
X65802654Y-108089689D01*
X65825075Y-108157053D01*
X65815564Y-108209767D01*
X65790825Y-108269493D01*
X65770193Y-108426208D01*
X65790825Y-108582923D01*
X65851315Y-108728958D01*
X65947540Y-108854361D01*
X66072943Y-108950586D01*
X66218978Y-109011076D01*
X66375693Y-109031708D01*
X66383881Y-109030630D01*
X66524220Y-109012154D01*
X66532408Y-109011076D01*
X66678443Y-108950586D01*
X66803846Y-108854361D01*
X66900071Y-108728958D01*
X66960561Y-108582923D01*
X66981193Y-108426208D01*
X66960561Y-108269493D01*
X66900071Y-108123458D01*
X66803846Y-107998055D01*
X66678443Y-107901830D01*
X66628319Y-107881068D01*
X66573039Y-107836519D01*
X66550618Y-107769155D01*
X66560129Y-107716441D01*
X66581708Y-107664345D01*
X66581709Y-107664342D01*
X66584868Y-107656715D01*
X66605500Y-107500000D01*
X66584868Y-107343285D01*
X66524378Y-107197250D01*
X66428153Y-107071847D01*
X66302750Y-106975622D01*
X66156715Y-106915132D01*
X66000000Y-106894500D01*
X65843285Y-106915132D01*
X65697250Y-106975622D01*
X65571847Y-107071847D01*
X65475622Y-107197250D01*
X65415132Y-107343285D01*
X65394500Y-107500000D01*
X41150000Y-107500000D01*
X41150000Y-106800000D01*
X71294500Y-106800000D01*
X71315132Y-106956715D01*
X71375622Y-107102750D01*
X71471847Y-107228153D01*
X71597250Y-107324378D01*
X71743285Y-107384868D01*
X71900000Y-107405500D01*
X71908188Y-107404422D01*
X72048527Y-107385946D01*
X72056715Y-107384868D01*
X72202750Y-107324378D01*
X72328153Y-107228153D01*
X72424378Y-107102750D01*
X72484868Y-106956715D01*
X72505500Y-106800000D01*
X72484868Y-106643285D01*
X72424378Y-106497250D01*
X72328153Y-106371847D01*
X72202750Y-106275622D01*
X72056715Y-106215132D01*
X71900000Y-106194500D01*
X71743285Y-106215132D01*
X71597250Y-106275622D01*
X71471847Y-106371847D01*
X71375622Y-106497250D01*
X71315132Y-106643285D01*
X71294500Y-106800000D01*
X41150000Y-106800000D01*
X41150000Y-104800000D01*
X48594500Y-104800000D01*
X48615132Y-104956715D01*
X48675622Y-105102750D01*
X48771847Y-105228153D01*
X48897250Y-105324378D01*
X49043285Y-105384868D01*
X49200000Y-105405500D01*
X49208188Y-105404422D01*
X49348527Y-105385946D01*
X49356715Y-105384868D01*
X49502750Y-105324378D01*
X49628153Y-105228153D01*
X49724378Y-105102750D01*
X49784868Y-104956715D01*
X49805500Y-104800000D01*
X49784868Y-104643285D01*
X49724378Y-104497250D01*
X49628153Y-104371847D01*
X49502750Y-104275622D01*
X49356715Y-104215132D01*
X49200000Y-104194500D01*
X49043285Y-104215132D01*
X48897250Y-104275622D01*
X48771847Y-104371847D01*
X48675622Y-104497250D01*
X48615132Y-104643285D01*
X48594500Y-104800000D01*
X41150000Y-104800000D01*
X41150000Y-102656942D01*
X41152696Y-102631017D01*
X41153759Y-102625959D01*
X41155379Y-102618256D01*
X41152889Y-102485748D01*
X41153157Y-102475051D01*
X41153151Y-102474922D01*
X41153643Y-102467804D01*
X41152528Y-102460762D01*
X41152501Y-102460157D01*
X41152393Y-102459335D01*
X41152260Y-102452268D01*
X41150558Y-102445402D01*
X41150550Y-102445345D01*
X41148430Y-102434891D01*
X41127066Y-102300000D01*
X48594500Y-102300000D01*
X48615132Y-102456715D01*
X48675622Y-102602750D01*
X48771847Y-102728153D01*
X48897250Y-102824378D01*
X49043285Y-102884868D01*
X49200000Y-102905500D01*
X49208188Y-102904422D01*
X49348527Y-102885946D01*
X49356715Y-102884868D01*
X49502750Y-102824378D01*
X49628153Y-102728153D01*
X49724378Y-102602750D01*
X49784868Y-102456715D01*
X49805500Y-102300000D01*
X56294500Y-102300000D01*
X56315132Y-102456715D01*
X56375622Y-102602750D01*
X56471847Y-102728153D01*
X56597250Y-102824378D01*
X56619100Y-102833429D01*
X56619492Y-102833591D01*
X56674773Y-102878140D01*
X56697194Y-102945503D01*
X56679636Y-103014294D01*
X56627674Y-103062673D01*
X56619492Y-103066409D01*
X56597250Y-103075622D01*
X56471847Y-103171847D01*
X56375622Y-103297250D01*
X56315132Y-103443285D01*
X56294500Y-103600000D01*
X56315132Y-103756715D01*
X56375622Y-103902750D01*
X56471847Y-104028153D01*
X56597250Y-104124378D01*
X56619100Y-104133429D01*
X56619492Y-104133591D01*
X56674773Y-104178140D01*
X56697194Y-104245503D01*
X56679636Y-104314294D01*
X56627674Y-104362673D01*
X56619492Y-104366409D01*
X56597250Y-104375622D01*
X56471847Y-104471847D01*
X56375622Y-104597250D01*
X56315132Y-104743285D01*
X56294500Y-104900000D01*
X56315132Y-105056715D01*
X56375622Y-105202750D01*
X56471847Y-105328153D01*
X56597250Y-105424378D01*
X56743285Y-105484868D01*
X56900000Y-105505500D01*
X56908188Y-105504422D01*
X57048527Y-105485946D01*
X57056715Y-105484868D01*
X57202750Y-105424378D01*
X57328153Y-105328153D01*
X57424378Y-105202750D01*
X57484868Y-105056715D01*
X57505500Y-104900000D01*
X61294500Y-104900000D01*
X61315132Y-105056715D01*
X61375622Y-105202750D01*
X61471847Y-105328153D01*
X61597250Y-105424378D01*
X61743285Y-105484868D01*
X61900000Y-105505500D01*
X61908188Y-105504422D01*
X62048527Y-105485946D01*
X62056715Y-105484868D01*
X62202750Y-105424378D01*
X62328153Y-105328153D01*
X62424378Y-105202750D01*
X62484868Y-105056715D01*
X62505500Y-104900000D01*
X62484868Y-104743285D01*
X62424378Y-104597250D01*
X62328153Y-104471847D01*
X62202750Y-104375622D01*
X62056715Y-104315132D01*
X61900000Y-104294500D01*
X61743285Y-104315132D01*
X61597250Y-104375622D01*
X61471847Y-104471847D01*
X61375622Y-104597250D01*
X61315132Y-104743285D01*
X61294500Y-104900000D01*
X57505500Y-104900000D01*
X57484868Y-104743285D01*
X57424378Y-104597250D01*
X57328153Y-104471847D01*
X57202750Y-104375622D01*
X57180508Y-104366409D01*
X57125227Y-104321860D01*
X57102806Y-104254497D01*
X57120364Y-104185706D01*
X57172326Y-104137327D01*
X57180508Y-104133591D01*
X57180900Y-104133429D01*
X57202750Y-104124378D01*
X57328153Y-104028153D01*
X57424378Y-103902750D01*
X57484868Y-103756715D01*
X57505500Y-103600000D01*
X57484868Y-103443285D01*
X57424378Y-103297250D01*
X57328153Y-103171847D01*
X57202750Y-103075622D01*
X57180508Y-103066409D01*
X57125227Y-103021860D01*
X57102806Y-102954497D01*
X57120364Y-102885706D01*
X57172326Y-102837327D01*
X57180508Y-102833591D01*
X57180900Y-102833429D01*
X57202750Y-102824378D01*
X57328153Y-102728153D01*
X57424378Y-102602750D01*
X57484868Y-102456715D01*
X57505500Y-102300000D01*
X57484868Y-102143285D01*
X57424378Y-101997250D01*
X57346090Y-101895223D01*
X57333176Y-101878393D01*
X57328153Y-101871847D01*
X57202750Y-101775622D01*
X57056715Y-101715132D01*
X56900000Y-101694500D01*
X56743285Y-101715132D01*
X56597250Y-101775622D01*
X56471847Y-101871847D01*
X56466824Y-101878393D01*
X56453910Y-101895223D01*
X56375622Y-101997250D01*
X56315132Y-102143285D01*
X56294500Y-102300000D01*
X49805500Y-102300000D01*
X49784868Y-102143285D01*
X49724378Y-101997250D01*
X49646090Y-101895223D01*
X49633176Y-101878393D01*
X49628153Y-101871847D01*
X49502750Y-101775622D01*
X49356715Y-101715132D01*
X49200000Y-101694500D01*
X49043285Y-101715132D01*
X48897250Y-101775622D01*
X48771847Y-101871847D01*
X48766824Y-101878393D01*
X48753910Y-101895223D01*
X48675622Y-101997250D01*
X48615132Y-102143285D01*
X48594500Y-102300000D01*
X41127066Y-102300000D01*
X41113223Y-102212599D01*
X41112162Y-102203988D01*
X41111977Y-102201900D01*
X41111976Y-102201896D01*
X41111348Y-102194790D01*
X41109501Y-102189106D01*
X41108596Y-102183391D01*
X41105963Y-102176824D01*
X41105155Y-102174809D01*
X41102271Y-102166853D01*
X41031505Y-101949056D01*
X41029108Y-101940712D01*
X41028596Y-101938665D01*
X41026866Y-101931752D01*
X41024151Y-101926423D01*
X41022364Y-101920924D01*
X41017621Y-101912984D01*
X41013534Y-101905587D01*
X40999678Y-101878393D01*
X40909557Y-101701522D01*
X40905893Y-101693674D01*
X40902274Y-101685168D01*
X40898759Y-101680330D01*
X40896134Y-101675178D01*
X40891603Y-101669749D01*
X40891600Y-101669745D01*
X40890213Y-101668083D01*
X40885010Y-101661406D01*
X40750398Y-101476128D01*
X40745538Y-101468930D01*
X40740643Y-101461111D01*
X40736417Y-101456885D01*
X40733016Y-101452204D01*
X40727477Y-101447363D01*
X40726046Y-101446113D01*
X40719863Y-101440331D01*
X40557944Y-101278412D01*
X40552018Y-101272063D01*
X40550637Y-101270477D01*
X40550632Y-101270473D01*
X40545951Y-101265097D01*
X40541117Y-101261585D01*
X40537025Y-101257493D01*
X40529182Y-101252563D01*
X40522189Y-101247833D01*
X40516263Y-101243527D01*
X40465753Y-101206830D01*
X40336914Y-101113222D01*
X40330074Y-101107884D01*
X40328456Y-101106529D01*
X40322993Y-101101953D01*
X40317667Y-101099239D01*
X40312987Y-101095839D01*
X40311025Y-101095000D01*
X64394500Y-101095000D01*
X64415132Y-101251715D01*
X64475622Y-101397750D01*
X64571847Y-101523153D01*
X64697250Y-101619378D01*
X64770548Y-101649739D01*
X64825828Y-101694288D01*
X64848249Y-101761651D01*
X64830691Y-101830443D01*
X64799032Y-101866111D01*
X64713396Y-101931821D01*
X64713393Y-101931824D01*
X64706847Y-101936847D01*
X64610622Y-102062250D01*
X64550132Y-102208285D01*
X64529500Y-102365000D01*
X64550132Y-102521715D01*
X64610622Y-102667750D01*
X64706847Y-102793153D01*
X64832250Y-102889378D01*
X64978285Y-102949868D01*
X64986473Y-102950946D01*
X65056643Y-102960184D01*
X65135000Y-102970500D01*
X65143188Y-102969422D01*
X65283527Y-102950946D01*
X65291715Y-102949868D01*
X65437750Y-102889378D01*
X65563153Y-102793153D01*
X65659378Y-102667750D01*
X65719868Y-102521715D01*
X65740500Y-102365000D01*
X65719868Y-102208285D01*
X65659378Y-102062250D01*
X65563153Y-101936847D01*
X65437750Y-101840622D01*
X65364452Y-101810261D01*
X65309172Y-101765712D01*
X65286751Y-101698349D01*
X65304309Y-101629557D01*
X65335968Y-101593889D01*
X65421604Y-101528179D01*
X65421607Y-101528176D01*
X65428153Y-101523153D01*
X65522652Y-101400000D01*
X71494500Y-101400000D01*
X71515132Y-101556715D01*
X71575622Y-101702750D01*
X71671847Y-101828153D01*
X71797250Y-101924378D01*
X71943285Y-101984868D01*
X72100000Y-102005500D01*
X72108188Y-102004422D01*
X72248527Y-101985946D01*
X72256715Y-101984868D01*
X72402750Y-101924378D01*
X72528153Y-101828153D01*
X72624378Y-101702750D01*
X72684868Y-101556715D01*
X72705500Y-101400000D01*
X72687725Y-101264984D01*
X72685946Y-101251473D01*
X72684868Y-101243285D01*
X72624378Y-101097250D01*
X72528153Y-100971847D01*
X72402750Y-100875622D01*
X72256715Y-100815132D01*
X72100000Y-100794500D01*
X71943285Y-100815132D01*
X71797250Y-100875622D01*
X71671847Y-100971847D01*
X71575622Y-101097250D01*
X71515132Y-101243285D01*
X71514054Y-101251473D01*
X71512275Y-101264984D01*
X71494500Y-101400000D01*
X65522652Y-101400000D01*
X65524378Y-101397750D01*
X65584868Y-101251715D01*
X65605500Y-101095000D01*
X65584868Y-100938285D01*
X65524378Y-100792250D01*
X65428153Y-100666847D01*
X65302750Y-100570622D01*
X65156715Y-100510132D01*
X65000000Y-100489500D01*
X64843285Y-100510132D01*
X64697250Y-100570622D01*
X64571847Y-100666847D01*
X64475622Y-100792250D01*
X64415132Y-100938285D01*
X64394500Y-101095000D01*
X40311025Y-101095000D01*
X40306487Y-101093060D01*
X40306480Y-101093056D01*
X40304487Y-101092204D01*
X40296822Y-101088618D01*
X40092770Y-100984648D01*
X40085177Y-100980443D01*
X40083370Y-100979359D01*
X40083367Y-100979357D01*
X40077259Y-100975695D01*
X40071570Y-100973846D01*
X40066419Y-100971222D01*
X40057447Y-100968960D01*
X40049328Y-100966620D01*
X40048944Y-100966495D01*
X39831513Y-100895847D01*
X39823365Y-100892886D01*
X39814799Y-100889434D01*
X39808896Y-100888499D01*
X39803393Y-100886711D01*
X39794689Y-100885927D01*
X39794196Y-100885882D01*
X39785797Y-100884840D01*
X39559584Y-100849012D01*
X39551076Y-100847362D01*
X39542076Y-100845292D01*
X39536099Y-100845292D01*
X39535981Y-100845273D01*
X39535977Y-100845273D01*
X39530385Y-100844387D01*
X39523337Y-100844861D01*
X39523332Y-100844861D01*
X39521155Y-100845008D01*
X39512696Y-100845292D01*
X39283694Y-100845292D01*
X39275014Y-100844993D01*
X39274044Y-100844926D01*
X39265804Y-100844357D01*
X39259901Y-100845292D01*
X39254116Y-100845292D01*
X39247223Y-100846864D01*
X39247217Y-100846865D01*
X39245104Y-100847347D01*
X39236796Y-100848951D01*
X39010600Y-100884777D01*
X39001988Y-100885838D01*
X38999900Y-100886023D01*
X38999896Y-100886024D01*
X38992790Y-100886652D01*
X38987106Y-100888499D01*
X38981391Y-100889404D01*
X38974827Y-100892036D01*
X38974824Y-100892037D01*
X38972809Y-100892845D01*
X38964853Y-100895729D01*
X38747056Y-100966495D01*
X38738722Y-100968889D01*
X38729752Y-100971134D01*
X38724423Y-100973849D01*
X38718924Y-100975636D01*
X38710984Y-100980379D01*
X38703588Y-100984465D01*
X38499522Y-101088443D01*
X38491674Y-101092107D01*
X38483168Y-101095726D01*
X38478330Y-101099241D01*
X38473178Y-101101866D01*
X38467749Y-101106397D01*
X38467745Y-101106400D01*
X38466083Y-101107787D01*
X38459406Y-101112990D01*
X38274128Y-101247602D01*
X38266939Y-101252456D01*
X38259111Y-101257357D01*
X38254885Y-101261583D01*
X38250204Y-101264984D01*
X38245554Y-101270305D01*
X38245553Y-101270306D01*
X38244113Y-101271954D01*
X38238331Y-101278137D01*
X38076412Y-101440056D01*
X38070063Y-101445982D01*
X38068477Y-101447363D01*
X38068473Y-101447368D01*
X38063097Y-101452049D01*
X38059585Y-101456883D01*
X38055493Y-101460975D01*
X38050563Y-101468818D01*
X38045836Y-101475806D01*
X38016193Y-101516607D01*
X37911222Y-101661086D01*
X37905885Y-101667924D01*
X37899953Y-101675007D01*
X37897239Y-101680333D01*
X37893839Y-101685013D01*
X37891060Y-101691513D01*
X37891056Y-101691520D01*
X37890204Y-101693513D01*
X37886618Y-101701178D01*
X37782648Y-101905230D01*
X37778443Y-101912823D01*
X37777359Y-101914630D01*
X37777357Y-101914633D01*
X37773695Y-101920741D01*
X37771846Y-101926430D01*
X37769222Y-101931581D01*
X37766960Y-101940553D01*
X37764621Y-101948669D01*
X37703865Y-102135656D01*
X37693848Y-102166485D01*
X37690886Y-102174635D01*
X37687434Y-102183201D01*
X37686499Y-102189104D01*
X37684711Y-102194607D01*
X37684076Y-102201655D01*
X37683882Y-102203804D01*
X37682840Y-102212206D01*
X37647626Y-102434539D01*
X37645488Y-102445033D01*
X37645470Y-102445166D01*
X37643744Y-102452076D01*
X37643610Y-102459189D01*
X37643530Y-102459792D01*
X37643492Y-102460636D01*
X37642387Y-102467615D01*
X37642862Y-102474672D01*
X37642859Y-102474731D01*
X37643117Y-102485399D01*
X37642435Y-102521715D01*
X37640624Y-102618063D01*
X37642067Y-102624984D01*
X37643349Y-102631137D01*
X37646000Y-102656847D01*
X37646000Y-126274000D01*
X37625998Y-126342121D01*
X37572342Y-126388614D01*
X37520000Y-126400000D01*
X33976000Y-126400000D01*
X33907879Y-126379998D01*
X33861386Y-126326342D01*
X33850000Y-126274000D01*
X33850000Y-125551793D01*
X33870002Y-125483672D01*
X33923658Y-125437179D01*
X33993932Y-125427075D01*
X34052704Y-125451831D01*
X34140694Y-125519348D01*
X34140697Y-125519350D01*
X34147250Y-125524378D01*
X34249723Y-125566824D01*
X34282873Y-125580555D01*
X34293285Y-125584868D01*
X34450000Y-125605500D01*
X34458188Y-125604422D01*
X34598527Y-125585946D01*
X34606715Y-125584868D01*
X34617128Y-125580555D01*
X34650277Y-125566824D01*
X34752750Y-125524378D01*
X34878153Y-125428153D01*
X34974378Y-125302750D01*
X35034868Y-125156715D01*
X35055500Y-125000000D01*
X35034868Y-124843285D01*
X34974378Y-124697250D01*
X34878153Y-124571847D01*
X34752750Y-124475622D01*
X34606715Y-124415132D01*
X34450000Y-124394500D01*
X34293285Y-124415132D01*
X34147250Y-124475622D01*
X34140699Y-124480649D01*
X34140694Y-124480652D01*
X34052704Y-124548169D01*
X33986484Y-124573770D01*
X33916935Y-124559505D01*
X33866139Y-124509904D01*
X33850000Y-124448207D01*
X33850000Y-120551793D01*
X33870002Y-120483672D01*
X33923658Y-120437179D01*
X33993932Y-120427075D01*
X34052704Y-120451831D01*
X34140694Y-120519348D01*
X34140697Y-120519350D01*
X34147250Y-120524378D01*
X34293285Y-120584868D01*
X34450000Y-120605500D01*
X34458188Y-120604422D01*
X34598527Y-120585946D01*
X34606715Y-120584868D01*
X34752750Y-120524378D01*
X34878153Y-120428153D01*
X34974378Y-120302750D01*
X35034868Y-120156715D01*
X35055500Y-120000000D01*
X35034868Y-119843285D01*
X34974378Y-119697250D01*
X34878153Y-119571847D01*
X34752750Y-119475622D01*
X34606715Y-119415132D01*
X34450000Y-119394500D01*
X34293285Y-119415132D01*
X34147250Y-119475622D01*
X34140699Y-119480649D01*
X34140694Y-119480652D01*
X34052704Y-119548169D01*
X33986484Y-119573770D01*
X33916935Y-119559505D01*
X33866139Y-119509904D01*
X33850000Y-119448207D01*
X33850000Y-115551793D01*
X33870002Y-115483672D01*
X33923658Y-115437179D01*
X33993932Y-115427075D01*
X34052704Y-115451831D01*
X34140694Y-115519348D01*
X34140697Y-115519350D01*
X34147250Y-115524378D01*
X34293285Y-115584868D01*
X34450000Y-115605500D01*
X34458188Y-115604422D01*
X34598527Y-115585946D01*
X34606715Y-115584868D01*
X34752750Y-115524378D01*
X34878153Y-115428153D01*
X34974378Y-115302750D01*
X35034868Y-115156715D01*
X35055500Y-115000000D01*
X35034868Y-114843285D01*
X34974378Y-114697250D01*
X34878153Y-114571847D01*
X34752750Y-114475622D01*
X34606715Y-114415132D01*
X34450000Y-114394500D01*
X34293285Y-114415132D01*
X34147250Y-114475622D01*
X34140699Y-114480649D01*
X34140694Y-114480652D01*
X34052704Y-114548169D01*
X33986484Y-114573770D01*
X33916935Y-114559505D01*
X33866139Y-114509904D01*
X33850000Y-114448207D01*
X33850000Y-110551793D01*
X33870002Y-110483672D01*
X33923658Y-110437179D01*
X33993932Y-110427075D01*
X34052704Y-110451831D01*
X34140694Y-110519348D01*
X34140697Y-110519350D01*
X34147250Y-110524378D01*
X34293285Y-110584868D01*
X34450000Y-110605500D01*
X34458188Y-110604422D01*
X34598527Y-110585946D01*
X34606715Y-110584868D01*
X34752750Y-110524378D01*
X34878153Y-110428153D01*
X34974378Y-110302750D01*
X35034868Y-110156715D01*
X35039897Y-110118520D01*
X35054422Y-110008188D01*
X35055500Y-110000000D01*
X35034868Y-109843285D01*
X34974378Y-109697250D01*
X34878153Y-109571847D01*
X34752750Y-109475622D01*
X34606715Y-109415132D01*
X34450000Y-109394500D01*
X34293285Y-109415132D01*
X34147250Y-109475622D01*
X34140699Y-109480649D01*
X34140694Y-109480652D01*
X34052704Y-109548169D01*
X33986484Y-109573770D01*
X33916935Y-109559505D01*
X33866139Y-109509904D01*
X33850000Y-109448207D01*
X33850000Y-105551793D01*
X33870002Y-105483672D01*
X33923658Y-105437179D01*
X33993932Y-105427075D01*
X34052704Y-105451831D01*
X34140694Y-105519348D01*
X34140697Y-105519350D01*
X34147250Y-105524378D01*
X34293285Y-105584868D01*
X34450000Y-105605500D01*
X34458188Y-105604422D01*
X34598527Y-105585946D01*
X34606715Y-105584868D01*
X34752750Y-105524378D01*
X34878153Y-105428153D01*
X34974378Y-105302750D01*
X35034868Y-105156715D01*
X35055500Y-105000000D01*
X35034868Y-104843285D01*
X34974378Y-104697250D01*
X34878153Y-104571847D01*
X34752750Y-104475622D01*
X34606715Y-104415132D01*
X34450000Y-104394500D01*
X34293285Y-104415132D01*
X34147250Y-104475622D01*
X34140699Y-104480649D01*
X34140694Y-104480652D01*
X34052704Y-104548169D01*
X33986484Y-104573770D01*
X33916935Y-104559505D01*
X33866139Y-104509904D01*
X33850000Y-104448207D01*
X33850000Y-100551793D01*
X33870002Y-100483672D01*
X33923658Y-100437179D01*
X33993932Y-100427075D01*
X34052704Y-100451831D01*
X34140694Y-100519348D01*
X34140697Y-100519350D01*
X34147250Y-100524378D01*
X34293285Y-100584868D01*
X34450000Y-100605500D01*
X34458188Y-100604422D01*
X34598527Y-100585946D01*
X34606715Y-100584868D01*
X34752750Y-100524378D01*
X34878153Y-100428153D01*
X34974378Y-100302750D01*
X35034868Y-100156715D01*
X35042335Y-100100000D01*
X52094500Y-100100000D01*
X52115132Y-100256715D01*
X52175622Y-100402750D01*
X52271847Y-100528153D01*
X52397250Y-100624378D01*
X52543285Y-100684868D01*
X52700000Y-100705500D01*
X52708188Y-100704422D01*
X52848527Y-100685946D01*
X52856715Y-100684868D01*
X53002750Y-100624378D01*
X53128153Y-100528153D01*
X53224378Y-100402750D01*
X53284868Y-100256715D01*
X53305500Y-100100000D01*
X53284868Y-99943285D01*
X53224378Y-99797250D01*
X53128153Y-99671847D01*
X53002750Y-99575622D01*
X52856715Y-99515132D01*
X52741776Y-99500000D01*
X60294500Y-99500000D01*
X60315132Y-99656715D01*
X60375622Y-99802750D01*
X60471847Y-99928153D01*
X60597250Y-100024378D01*
X60743285Y-100084868D01*
X60900000Y-100105500D01*
X60908188Y-100104422D01*
X61048527Y-100085946D01*
X61056715Y-100084868D01*
X61202750Y-100024378D01*
X61328153Y-99928153D01*
X61424378Y-99802750D01*
X61484868Y-99656715D01*
X61505500Y-99500000D01*
X61484868Y-99343285D01*
X61424378Y-99197250D01*
X61328153Y-99071847D01*
X61202750Y-98975622D01*
X61056715Y-98915132D01*
X60900000Y-98894500D01*
X60743285Y-98915132D01*
X60597250Y-98975622D01*
X60471847Y-99071847D01*
X60375622Y-99197250D01*
X60315132Y-99343285D01*
X60294500Y-99500000D01*
X52741776Y-99500000D01*
X52700000Y-99494500D01*
X52543285Y-99515132D01*
X52397250Y-99575622D01*
X52271847Y-99671847D01*
X52175622Y-99797250D01*
X52115132Y-99943285D01*
X52094500Y-100100000D01*
X35042335Y-100100000D01*
X35055500Y-100000000D01*
X35034868Y-99843285D01*
X34974378Y-99697250D01*
X34878153Y-99571847D01*
X34752750Y-99475622D01*
X34606715Y-99415132D01*
X34450000Y-99394500D01*
X34293285Y-99415132D01*
X34147250Y-99475622D01*
X34140699Y-99480649D01*
X34140694Y-99480652D01*
X34052704Y-99548169D01*
X33986484Y-99573770D01*
X33916935Y-99559505D01*
X33866139Y-99509904D01*
X33850000Y-99448207D01*
X33850000Y-95551793D01*
X33870002Y-95483672D01*
X33923658Y-95437179D01*
X33993932Y-95427075D01*
X34052704Y-95451831D01*
X34140694Y-95519348D01*
X34140697Y-95519350D01*
X34147250Y-95524378D01*
X34293285Y-95584868D01*
X34450000Y-95605500D01*
X34458188Y-95604422D01*
X34598527Y-95585946D01*
X34606715Y-95584868D01*
X34752750Y-95524378D01*
X34878153Y-95428153D01*
X34974378Y-95302750D01*
X35034868Y-95156715D01*
X35055500Y-95000000D01*
X35034868Y-94843285D01*
X34974378Y-94697250D01*
X34878153Y-94571847D01*
X34752750Y-94475622D01*
X34606715Y-94415132D01*
X34450000Y-94394500D01*
X34293285Y-94415132D01*
X34147250Y-94475622D01*
X34140699Y-94480649D01*
X34140694Y-94480652D01*
X34052704Y-94548169D01*
X33986484Y-94573770D01*
X33916935Y-94559505D01*
X33866139Y-94509904D01*
X33850000Y-94448207D01*
X33850000Y-90551793D01*
X33870002Y-90483672D01*
X33923658Y-90437179D01*
X33993932Y-90427075D01*
X34052704Y-90451831D01*
X34140694Y-90519348D01*
X34140697Y-90519350D01*
X34147250Y-90524378D01*
X34293285Y-90584868D01*
X34450000Y-90605500D01*
X34458188Y-90604422D01*
X34598527Y-90585946D01*
X34606715Y-90584868D01*
X34752750Y-90524378D01*
X34878153Y-90428153D01*
X34974378Y-90302750D01*
X35034868Y-90156715D01*
X35055500Y-90000000D01*
X35034868Y-89843285D01*
X34974378Y-89697250D01*
X34878153Y-89571847D01*
X34752750Y-89475622D01*
X34606715Y-89415132D01*
X34450000Y-89394500D01*
X34293285Y-89415132D01*
X34147250Y-89475622D01*
X34140699Y-89480649D01*
X34140694Y-89480652D01*
X34052704Y-89548169D01*
X33986484Y-89573770D01*
X33916935Y-89559505D01*
X33866139Y-89509904D01*
X33850000Y-89448207D01*
X33850000Y-88900000D01*
X37494500Y-88900000D01*
X37515132Y-89056715D01*
X37575622Y-89202750D01*
X37671847Y-89328153D01*
X37797250Y-89424378D01*
X37943285Y-89484868D01*
X38100000Y-89505500D01*
X38108188Y-89504422D01*
X38248527Y-89485946D01*
X38256715Y-89484868D01*
X38402750Y-89424378D01*
X38528153Y-89328153D01*
X38624378Y-89202750D01*
X38684868Y-89056715D01*
X38705500Y-88900000D01*
X50194500Y-88900000D01*
X50215132Y-89056715D01*
X50275622Y-89202750D01*
X50371847Y-89328153D01*
X50497250Y-89424378D01*
X50643285Y-89484868D01*
X50800000Y-89505500D01*
X50808188Y-89504422D01*
X50948527Y-89485946D01*
X50956715Y-89484868D01*
X51102750Y-89424378D01*
X51228153Y-89328153D01*
X51324378Y-89202750D01*
X51384868Y-89056715D01*
X51405500Y-88900000D01*
X62894500Y-88900000D01*
X62915132Y-89056715D01*
X62975622Y-89202750D01*
X63071847Y-89328153D01*
X63197250Y-89424378D01*
X63343285Y-89484868D01*
X63500000Y-89505500D01*
X63508188Y-89504422D01*
X63648527Y-89485946D01*
X63656715Y-89484868D01*
X63802750Y-89424378D01*
X63928153Y-89328153D01*
X64024378Y-89202750D01*
X64084868Y-89056715D01*
X64105500Y-88900000D01*
X64084868Y-88743285D01*
X64024378Y-88597250D01*
X63928153Y-88471847D01*
X63802750Y-88375622D01*
X63656715Y-88315132D01*
X63500000Y-88294500D01*
X63343285Y-88315132D01*
X63197250Y-88375622D01*
X63071847Y-88471847D01*
X62975622Y-88597250D01*
X62915132Y-88743285D01*
X62894500Y-88900000D01*
X51405500Y-88900000D01*
X51384868Y-88743285D01*
X51324378Y-88597250D01*
X51228153Y-88471847D01*
X51102750Y-88375622D01*
X50956715Y-88315132D01*
X50800000Y-88294500D01*
X50643285Y-88315132D01*
X50497250Y-88375622D01*
X50371847Y-88471847D01*
X50275622Y-88597250D01*
X50215132Y-88743285D01*
X50194500Y-88900000D01*
X38705500Y-88900000D01*
X38684868Y-88743285D01*
X38624378Y-88597250D01*
X38528153Y-88471847D01*
X38402750Y-88375622D01*
X38256715Y-88315132D01*
X38100000Y-88294500D01*
X37943285Y-88315132D01*
X37797250Y-88375622D01*
X37671847Y-88471847D01*
X37575622Y-88597250D01*
X37515132Y-88743285D01*
X37494500Y-88900000D01*
X33850000Y-88900000D01*
X33850000Y-85551793D01*
X33870002Y-85483672D01*
X33923658Y-85437179D01*
X33993932Y-85427075D01*
X34052704Y-85451831D01*
X34140694Y-85519348D01*
X34140697Y-85519350D01*
X34147250Y-85524378D01*
X34293285Y-85584868D01*
X34450000Y-85605500D01*
X34458188Y-85604422D01*
X34598527Y-85585946D01*
X34606715Y-85584868D01*
X34752750Y-85524378D01*
X34878153Y-85428153D01*
X34974378Y-85302750D01*
X35034868Y-85156715D01*
X35055500Y-85000000D01*
X35034868Y-84843285D01*
X34974378Y-84697250D01*
X34878153Y-84571847D01*
X34752750Y-84475622D01*
X34606715Y-84415132D01*
X34450000Y-84394500D01*
X34293285Y-84415132D01*
X34147250Y-84475622D01*
X34140699Y-84480649D01*
X34140694Y-84480652D01*
X34052704Y-84548169D01*
X33986484Y-84573770D01*
X33916935Y-84559505D01*
X33866139Y-84509904D01*
X33850000Y-84448207D01*
X33850000Y-80551793D01*
X33870002Y-80483672D01*
X33923658Y-80437179D01*
X33993932Y-80427075D01*
X34052704Y-80451831D01*
X34140694Y-80519348D01*
X34140696Y-80519349D01*
X34147250Y-80524378D01*
X34293285Y-80584868D01*
X34450000Y-80605500D01*
X34458188Y-80604422D01*
X34598527Y-80585946D01*
X34606715Y-80584868D01*
X34752750Y-80524378D01*
X34878153Y-80428153D01*
X34974378Y-80302750D01*
X35034868Y-80156715D01*
X35055500Y-80000000D01*
X35034868Y-79843285D01*
X34974378Y-79697250D01*
X34878153Y-79571847D01*
X34752750Y-79475622D01*
X34606715Y-79415132D01*
X34450000Y-79394500D01*
X34293285Y-79415132D01*
X34147250Y-79475622D01*
X34140699Y-79480649D01*
X34140694Y-79480652D01*
X34052704Y-79548169D01*
X33986484Y-79573770D01*
X33916935Y-79559505D01*
X33866139Y-79509904D01*
X33850000Y-79448207D01*
X33850000Y-76200000D01*
X37494500Y-76200000D01*
X37515132Y-76356715D01*
X37575622Y-76502750D01*
X37671847Y-76628153D01*
X37797250Y-76724378D01*
X37943285Y-76784868D01*
X38100000Y-76805500D01*
X38108188Y-76804422D01*
X38248527Y-76785946D01*
X38256715Y-76784868D01*
X38402750Y-76724378D01*
X38528153Y-76628153D01*
X38624378Y-76502750D01*
X38684868Y-76356715D01*
X38705500Y-76200000D01*
X50194500Y-76200000D01*
X50215132Y-76356715D01*
X50275622Y-76502750D01*
X50371847Y-76628153D01*
X50497250Y-76724378D01*
X50643285Y-76784868D01*
X50800000Y-76805500D01*
X50808188Y-76804422D01*
X50948527Y-76785946D01*
X50956715Y-76784868D01*
X51102750Y-76724378D01*
X51228153Y-76628153D01*
X51324378Y-76502750D01*
X51384868Y-76356715D01*
X51405500Y-76200000D01*
X62894500Y-76200000D01*
X62915132Y-76356715D01*
X62975622Y-76502750D01*
X63071847Y-76628153D01*
X63197250Y-76724378D01*
X63343285Y-76784868D01*
X63500000Y-76805500D01*
X63508188Y-76804422D01*
X63648527Y-76785946D01*
X63656715Y-76784868D01*
X63802750Y-76724378D01*
X63928153Y-76628153D01*
X64024378Y-76502750D01*
X64084868Y-76356715D01*
X64105500Y-76200000D01*
X75594500Y-76200000D01*
X75615132Y-76356715D01*
X75675622Y-76502750D01*
X75771847Y-76628153D01*
X75897250Y-76724378D01*
X76043285Y-76784868D01*
X76200000Y-76805500D01*
X76208188Y-76804422D01*
X76348527Y-76785946D01*
X76356715Y-76784868D01*
X76502750Y-76724378D01*
X76628153Y-76628153D01*
X76724378Y-76502750D01*
X76784868Y-76356715D01*
X76805500Y-76200000D01*
X88294500Y-76200000D01*
X88315132Y-76356715D01*
X88375622Y-76502750D01*
X88471847Y-76628153D01*
X88597250Y-76724378D01*
X88743285Y-76784868D01*
X88900000Y-76805500D01*
X88908188Y-76804422D01*
X89048527Y-76785946D01*
X89056715Y-76784868D01*
X89202750Y-76724378D01*
X89328153Y-76628153D01*
X89424378Y-76502750D01*
X89484868Y-76356715D01*
X89505500Y-76200000D01*
X98594500Y-76200000D01*
X98615132Y-76356715D01*
X98675622Y-76502750D01*
X98771847Y-76628153D01*
X98897250Y-76724378D01*
X99043285Y-76784868D01*
X99200000Y-76805500D01*
X99208188Y-76804422D01*
X99348527Y-76785946D01*
X99356715Y-76784868D01*
X99502750Y-76724378D01*
X99628153Y-76628153D01*
X99724378Y-76502750D01*
X99784868Y-76356715D01*
X99805500Y-76200000D01*
X100994500Y-76200000D01*
X101015132Y-76356715D01*
X101075622Y-76502750D01*
X101171847Y-76628153D01*
X101297250Y-76724378D01*
X101443285Y-76784868D01*
X101600000Y-76805500D01*
X101608188Y-76804422D01*
X101748527Y-76785946D01*
X101756715Y-76784868D01*
X101902750Y-76724378D01*
X102028153Y-76628153D01*
X102124378Y-76502750D01*
X102184868Y-76356715D01*
X102205500Y-76200000D01*
X113694500Y-76200000D01*
X113715132Y-76356715D01*
X113775622Y-76502750D01*
X113871847Y-76628153D01*
X113997250Y-76724378D01*
X114143285Y-76784868D01*
X114300000Y-76805500D01*
X114308188Y-76804422D01*
X114448527Y-76785946D01*
X114456715Y-76784868D01*
X114602750Y-76724378D01*
X114728153Y-76628153D01*
X114824378Y-76502750D01*
X114884868Y-76356715D01*
X114905500Y-76200000D01*
X126394500Y-76200000D01*
X126415132Y-76356715D01*
X126475622Y-76502750D01*
X126571847Y-76628153D01*
X126697250Y-76724378D01*
X126843285Y-76784868D01*
X127000000Y-76805500D01*
X127008188Y-76804422D01*
X127148527Y-76785946D01*
X127156715Y-76784868D01*
X127302750Y-76724378D01*
X127428153Y-76628153D01*
X127524378Y-76502750D01*
X127584868Y-76356715D01*
X127605500Y-76200000D01*
X139094500Y-76200000D01*
X139115132Y-76356715D01*
X139175622Y-76502750D01*
X139271847Y-76628153D01*
X139397250Y-76724378D01*
X139543285Y-76784868D01*
X139700000Y-76805500D01*
X139708188Y-76804422D01*
X139848527Y-76785946D01*
X139856715Y-76784868D01*
X140002750Y-76724378D01*
X140128153Y-76628153D01*
X140224378Y-76502750D01*
X140284868Y-76356715D01*
X140305500Y-76200000D01*
X140284868Y-76043285D01*
X140224378Y-75897250D01*
X140128153Y-75771847D01*
X140002750Y-75675622D01*
X139856715Y-75615132D01*
X139700000Y-75594500D01*
X139543285Y-75615132D01*
X139397250Y-75675622D01*
X139271847Y-75771847D01*
X139175622Y-75897250D01*
X139115132Y-76043285D01*
X139094500Y-76200000D01*
X127605500Y-76200000D01*
X127584868Y-76043285D01*
X127524378Y-75897250D01*
X127428153Y-75771847D01*
X127302750Y-75675622D01*
X127156715Y-75615132D01*
X127000000Y-75594500D01*
X126843285Y-75615132D01*
X126697250Y-75675622D01*
X126571847Y-75771847D01*
X126475622Y-75897250D01*
X126415132Y-76043285D01*
X126394500Y-76200000D01*
X114905500Y-76200000D01*
X114884868Y-76043285D01*
X114824378Y-75897250D01*
X114728153Y-75771847D01*
X114602750Y-75675622D01*
X114456715Y-75615132D01*
X114300000Y-75594500D01*
X114143285Y-75615132D01*
X113997250Y-75675622D01*
X113871847Y-75771847D01*
X113775622Y-75897250D01*
X113715132Y-76043285D01*
X113694500Y-76200000D01*
X102205500Y-76200000D01*
X102184868Y-76043285D01*
X102124378Y-75897250D01*
X102028153Y-75771847D01*
X101902750Y-75675622D01*
X101756715Y-75615132D01*
X101600000Y-75594500D01*
X101443285Y-75615132D01*
X101297250Y-75675622D01*
X101171847Y-75771847D01*
X101075622Y-75897250D01*
X101015132Y-76043285D01*
X100994500Y-76200000D01*
X99805500Y-76200000D01*
X99784868Y-76043285D01*
X99724378Y-75897250D01*
X99628153Y-75771847D01*
X99502750Y-75675622D01*
X99356715Y-75615132D01*
X99200000Y-75594500D01*
X99043285Y-75615132D01*
X98897250Y-75675622D01*
X98771847Y-75771847D01*
X98675622Y-75897250D01*
X98615132Y-76043285D01*
X98594500Y-76200000D01*
X89505500Y-76200000D01*
X89484868Y-76043285D01*
X89424378Y-75897250D01*
X89328153Y-75771847D01*
X89202750Y-75675622D01*
X89056715Y-75615132D01*
X88900000Y-75594500D01*
X88743285Y-75615132D01*
X88597250Y-75675622D01*
X88471847Y-75771847D01*
X88375622Y-75897250D01*
X88315132Y-76043285D01*
X88294500Y-76200000D01*
X76805500Y-76200000D01*
X76784868Y-76043285D01*
X76724378Y-75897250D01*
X76628153Y-75771847D01*
X76502750Y-75675622D01*
X76356715Y-75615132D01*
X76200000Y-75594500D01*
X76043285Y-75615132D01*
X75897250Y-75675622D01*
X75771847Y-75771847D01*
X75675622Y-75897250D01*
X75615132Y-76043285D01*
X75594500Y-76200000D01*
X64105500Y-76200000D01*
X64084868Y-76043285D01*
X64024378Y-75897250D01*
X63928153Y-75771847D01*
X63802750Y-75675622D01*
X63656715Y-75615132D01*
X63500000Y-75594500D01*
X63343285Y-75615132D01*
X63197250Y-75675622D01*
X63071847Y-75771847D01*
X62975622Y-75897250D01*
X62915132Y-76043285D01*
X62894500Y-76200000D01*
X51405500Y-76200000D01*
X51384868Y-76043285D01*
X51324378Y-75897250D01*
X51228153Y-75771847D01*
X51102750Y-75675622D01*
X50956715Y-75615132D01*
X50800000Y-75594500D01*
X50643285Y-75615132D01*
X50497250Y-75675622D01*
X50371847Y-75771847D01*
X50275622Y-75897250D01*
X50215132Y-76043285D01*
X50194500Y-76200000D01*
X38705500Y-76200000D01*
X38684868Y-76043285D01*
X38624378Y-75897250D01*
X38528153Y-75771847D01*
X38402750Y-75675622D01*
X38256715Y-75615132D01*
X38100000Y-75594500D01*
X37943285Y-75615132D01*
X37797250Y-75675622D01*
X37671847Y-75771847D01*
X37575622Y-75897250D01*
X37515132Y-76043285D01*
X37494500Y-76200000D01*
X33850000Y-76200000D01*
X33850000Y-75551793D01*
X33870002Y-75483672D01*
X33923658Y-75437179D01*
X33993932Y-75427075D01*
X34052704Y-75451831D01*
X34140694Y-75519348D01*
X34140696Y-75519349D01*
X34147250Y-75524378D01*
X34293285Y-75584868D01*
X34450000Y-75605500D01*
X34458188Y-75604422D01*
X34598527Y-75585946D01*
X34606715Y-75584868D01*
X34752750Y-75524378D01*
X34878153Y-75428153D01*
X34974378Y-75302750D01*
X35034868Y-75156715D01*
X35055500Y-75000000D01*
X35034868Y-74843285D01*
X34974378Y-74697250D01*
X34878153Y-74571847D01*
X34752750Y-74475622D01*
X34606715Y-74415132D01*
X34450000Y-74394500D01*
X34293285Y-74415132D01*
X34147250Y-74475622D01*
X34140699Y-74480649D01*
X34140694Y-74480652D01*
X34052704Y-74548169D01*
X33986484Y-74573770D01*
X33916935Y-74559505D01*
X33866139Y-74509904D01*
X33850000Y-74448207D01*
X33850000Y-70551793D01*
X33870002Y-70483672D01*
X33923658Y-70437179D01*
X33993932Y-70427075D01*
X34052704Y-70451831D01*
X34140694Y-70519348D01*
X34140696Y-70519349D01*
X34147250Y-70524378D01*
X34293285Y-70584868D01*
X34450000Y-70605500D01*
X34458188Y-70604422D01*
X34598527Y-70585946D01*
X34606715Y-70584868D01*
X34752750Y-70524378D01*
X34878153Y-70428153D01*
X34974378Y-70302750D01*
X35034868Y-70156715D01*
X35055500Y-70000000D01*
X35034868Y-69843285D01*
X34974378Y-69697250D01*
X34878153Y-69571847D01*
X34752750Y-69475622D01*
X34606715Y-69415132D01*
X34450000Y-69394500D01*
X34293285Y-69415132D01*
X34147250Y-69475622D01*
X34140699Y-69480649D01*
X34140694Y-69480652D01*
X34052704Y-69548169D01*
X33986484Y-69573770D01*
X33916935Y-69559505D01*
X33866139Y-69509904D01*
X33850000Y-69448207D01*
X33850000Y-68200000D01*
X96794500Y-68200000D01*
X96815132Y-68356715D01*
X96875622Y-68502750D01*
X96971847Y-68628153D01*
X97097250Y-68724378D01*
X97243285Y-68784868D01*
X97400000Y-68805500D01*
X97408188Y-68804422D01*
X97548527Y-68785946D01*
X97556715Y-68784868D01*
X97702750Y-68724378D01*
X97828153Y-68628153D01*
X97924378Y-68502750D01*
X97984868Y-68356715D01*
X98005500Y-68200000D01*
X97984868Y-68043285D01*
X97924378Y-67897250D01*
X97828153Y-67771847D01*
X97702750Y-67675622D01*
X97556715Y-67615132D01*
X97400000Y-67594500D01*
X97243285Y-67615132D01*
X97097250Y-67675622D01*
X96971847Y-67771847D01*
X96875622Y-67897250D01*
X96815132Y-68043285D01*
X96794500Y-68200000D01*
X33850000Y-68200000D01*
X33850000Y-65551793D01*
X33870002Y-65483672D01*
X33923658Y-65437179D01*
X33993932Y-65427075D01*
X34052704Y-65451831D01*
X34140694Y-65519348D01*
X34140696Y-65519349D01*
X34147250Y-65524378D01*
X34293285Y-65584868D01*
X34450000Y-65605500D01*
X34458188Y-65604422D01*
X34598527Y-65585946D01*
X34606715Y-65584868D01*
X34752750Y-65524378D01*
X34878153Y-65428153D01*
X34974378Y-65302750D01*
X35034868Y-65156715D01*
X35055500Y-65000000D01*
X35034868Y-64843285D01*
X34974378Y-64697250D01*
X34878153Y-64571847D01*
X34752750Y-64475622D01*
X34606715Y-64415132D01*
X34450000Y-64394500D01*
X34293285Y-64415132D01*
X34147250Y-64475622D01*
X34140699Y-64480649D01*
X34140694Y-64480652D01*
X34052704Y-64548169D01*
X33986484Y-64573770D01*
X33916935Y-64559505D01*
X33866139Y-64509904D01*
X33850000Y-64448207D01*
X33850000Y-63500000D01*
X37494500Y-63500000D01*
X37515132Y-63656715D01*
X37575622Y-63802750D01*
X37671847Y-63928153D01*
X37797250Y-64024378D01*
X37943285Y-64084868D01*
X38100000Y-64105500D01*
X38108188Y-64104422D01*
X38248527Y-64085946D01*
X38256715Y-64084868D01*
X38402750Y-64024378D01*
X38528153Y-63928153D01*
X38624378Y-63802750D01*
X38684868Y-63656715D01*
X38705500Y-63500000D01*
X50194500Y-63500000D01*
X50215132Y-63656715D01*
X50275622Y-63802750D01*
X50371847Y-63928153D01*
X50497250Y-64024378D01*
X50643285Y-64084868D01*
X50800000Y-64105500D01*
X50808188Y-64104422D01*
X50948527Y-64085946D01*
X50956715Y-64084868D01*
X51102750Y-64024378D01*
X51228153Y-63928153D01*
X51324378Y-63802750D01*
X51384868Y-63656715D01*
X51405500Y-63500000D01*
X62894500Y-63500000D01*
X62915132Y-63656715D01*
X62975622Y-63802750D01*
X63071847Y-63928153D01*
X63197250Y-64024378D01*
X63343285Y-64084868D01*
X63500000Y-64105500D01*
X63508188Y-64104422D01*
X63648527Y-64085946D01*
X63656715Y-64084868D01*
X63802750Y-64024378D01*
X63928153Y-63928153D01*
X64024378Y-63802750D01*
X64084868Y-63656715D01*
X64105500Y-63500000D01*
X88294500Y-63500000D01*
X88315132Y-63656715D01*
X88375622Y-63802750D01*
X88471847Y-63928153D01*
X88597250Y-64024378D01*
X88743285Y-64084868D01*
X88900000Y-64105500D01*
X88908188Y-64104422D01*
X89048527Y-64085946D01*
X89056715Y-64084868D01*
X89202750Y-64024378D01*
X89328153Y-63928153D01*
X89424378Y-63802750D01*
X89484868Y-63656715D01*
X89505500Y-63500000D01*
X100994500Y-63500000D01*
X101015132Y-63656715D01*
X101075622Y-63802750D01*
X101171847Y-63928153D01*
X101297250Y-64024378D01*
X101443285Y-64084868D01*
X101600000Y-64105500D01*
X101608188Y-64104422D01*
X101748527Y-64085946D01*
X101756715Y-64084868D01*
X101902750Y-64024378D01*
X102028153Y-63928153D01*
X102124378Y-63802750D01*
X102184868Y-63656715D01*
X102205500Y-63500000D01*
X113694500Y-63500000D01*
X113715132Y-63656715D01*
X113775622Y-63802750D01*
X113871847Y-63928153D01*
X113997250Y-64024378D01*
X114143285Y-64084868D01*
X114300000Y-64105500D01*
X114308188Y-64104422D01*
X114448527Y-64085946D01*
X114456715Y-64084868D01*
X114602750Y-64024378D01*
X114728153Y-63928153D01*
X114824378Y-63802750D01*
X114884868Y-63656715D01*
X114905500Y-63500000D01*
X126394500Y-63500000D01*
X126415132Y-63656715D01*
X126475622Y-63802750D01*
X126571847Y-63928153D01*
X126697250Y-64024378D01*
X126843285Y-64084868D01*
X127000000Y-64105500D01*
X127008188Y-64104422D01*
X127148527Y-64085946D01*
X127156715Y-64084868D01*
X127302750Y-64024378D01*
X127428153Y-63928153D01*
X127524378Y-63802750D01*
X127584868Y-63656715D01*
X127605500Y-63500000D01*
X139094500Y-63500000D01*
X139115132Y-63656715D01*
X139175622Y-63802750D01*
X139271847Y-63928153D01*
X139397250Y-64024378D01*
X139543285Y-64084868D01*
X139700000Y-64105500D01*
X139708188Y-64104422D01*
X139848527Y-64085946D01*
X139856715Y-64084868D01*
X140002750Y-64024378D01*
X140128153Y-63928153D01*
X140224378Y-63802750D01*
X140284868Y-63656715D01*
X140305500Y-63500000D01*
X140284868Y-63343285D01*
X140224378Y-63197250D01*
X140128153Y-63071847D01*
X140002750Y-62975622D01*
X139856715Y-62915132D01*
X139700000Y-62894500D01*
X139543285Y-62915132D01*
X139397250Y-62975622D01*
X139271847Y-63071847D01*
X139175622Y-63197250D01*
X139115132Y-63343285D01*
X139094500Y-63500000D01*
X127605500Y-63500000D01*
X127584868Y-63343285D01*
X127524378Y-63197250D01*
X127428153Y-63071847D01*
X127302750Y-62975622D01*
X127156715Y-62915132D01*
X127000000Y-62894500D01*
X126843285Y-62915132D01*
X126697250Y-62975622D01*
X126571847Y-63071847D01*
X126475622Y-63197250D01*
X126415132Y-63343285D01*
X126394500Y-63500000D01*
X114905500Y-63500000D01*
X114884868Y-63343285D01*
X114824378Y-63197250D01*
X114728153Y-63071847D01*
X114602750Y-62975622D01*
X114456715Y-62915132D01*
X114300000Y-62894500D01*
X114143285Y-62915132D01*
X113997250Y-62975622D01*
X113871847Y-63071847D01*
X113775622Y-63197250D01*
X113715132Y-63343285D01*
X113694500Y-63500000D01*
X102205500Y-63500000D01*
X102184868Y-63343285D01*
X102124378Y-63197250D01*
X102028153Y-63071847D01*
X101902750Y-62975622D01*
X101756715Y-62915132D01*
X101600000Y-62894500D01*
X101443285Y-62915132D01*
X101297250Y-62975622D01*
X101171847Y-63071847D01*
X101075622Y-63197250D01*
X101015132Y-63343285D01*
X100994500Y-63500000D01*
X89505500Y-63500000D01*
X89484868Y-63343285D01*
X89424378Y-63197250D01*
X89328153Y-63071847D01*
X89202750Y-62975622D01*
X89056715Y-62915132D01*
X88900000Y-62894500D01*
X88743285Y-62915132D01*
X88597250Y-62975622D01*
X88471847Y-63071847D01*
X88375622Y-63197250D01*
X88315132Y-63343285D01*
X88294500Y-63500000D01*
X64105500Y-63500000D01*
X64084868Y-63343285D01*
X64024378Y-63197250D01*
X63928153Y-63071847D01*
X63802750Y-62975622D01*
X63656715Y-62915132D01*
X63500000Y-62894500D01*
X63343285Y-62915132D01*
X63197250Y-62975622D01*
X63071847Y-63071847D01*
X62975622Y-63197250D01*
X62915132Y-63343285D01*
X62894500Y-63500000D01*
X51405500Y-63500000D01*
X51384868Y-63343285D01*
X51324378Y-63197250D01*
X51228153Y-63071847D01*
X51102750Y-62975622D01*
X50956715Y-62915132D01*
X50800000Y-62894500D01*
X50643285Y-62915132D01*
X50497250Y-62975622D01*
X50371847Y-63071847D01*
X50275622Y-63197250D01*
X50215132Y-63343285D01*
X50194500Y-63500000D01*
X38705500Y-63500000D01*
X38684868Y-63343285D01*
X38624378Y-63197250D01*
X38528153Y-63071847D01*
X38402750Y-62975622D01*
X38256715Y-62915132D01*
X38100000Y-62894500D01*
X37943285Y-62915132D01*
X37797250Y-62975622D01*
X37671847Y-63071847D01*
X37575622Y-63197250D01*
X37515132Y-63343285D01*
X37494500Y-63500000D01*
X33850000Y-63500000D01*
X33850000Y-62600000D01*
X76094500Y-62600000D01*
X76115132Y-62756715D01*
X76175622Y-62902750D01*
X76271847Y-63028153D01*
X76397250Y-63124378D01*
X76543285Y-63184868D01*
X76700000Y-63205500D01*
X76708188Y-63204422D01*
X76848527Y-63185946D01*
X76856715Y-63184868D01*
X77002750Y-63124378D01*
X77128153Y-63028153D01*
X77224378Y-62902750D01*
X77266939Y-62800000D01*
X86894500Y-62800000D01*
X86915132Y-62956715D01*
X86975622Y-63102750D01*
X87071847Y-63228153D01*
X87197250Y-63324378D01*
X87343285Y-63384868D01*
X87500000Y-63405500D01*
X87508188Y-63404422D01*
X87648527Y-63385946D01*
X87656715Y-63384868D01*
X87802750Y-63324378D01*
X87928153Y-63228153D01*
X88024378Y-63102750D01*
X88084868Y-62956715D01*
X88105500Y-62800000D01*
X88092335Y-62700000D01*
X90894500Y-62700000D01*
X90915132Y-62856715D01*
X90975622Y-63002750D01*
X91071847Y-63128153D01*
X91197250Y-63224378D01*
X91343285Y-63284868D01*
X91500000Y-63305500D01*
X91508188Y-63304422D01*
X91648527Y-63285946D01*
X91656715Y-63284868D01*
X91802750Y-63224378D01*
X91928153Y-63128153D01*
X92024378Y-63002750D01*
X92084868Y-62856715D01*
X92105500Y-62700000D01*
X92084868Y-62543285D01*
X92024378Y-62397250D01*
X91928153Y-62271847D01*
X91802750Y-62175622D01*
X91656715Y-62115132D01*
X91500000Y-62094500D01*
X91343285Y-62115132D01*
X91197250Y-62175622D01*
X91071847Y-62271847D01*
X90975622Y-62397250D01*
X90915132Y-62543285D01*
X90894500Y-62700000D01*
X88092335Y-62700000D01*
X88084868Y-62643285D01*
X88024378Y-62497250D01*
X87928153Y-62371847D01*
X87802750Y-62275622D01*
X87656715Y-62215132D01*
X87500000Y-62194500D01*
X87343285Y-62215132D01*
X87197250Y-62275622D01*
X87071847Y-62371847D01*
X86975622Y-62497250D01*
X86915132Y-62643285D01*
X86894500Y-62800000D01*
X77266939Y-62800000D01*
X77284868Y-62756715D01*
X77305500Y-62600000D01*
X77284868Y-62443285D01*
X77224378Y-62297250D01*
X77128153Y-62171847D01*
X77002750Y-62075622D01*
X76856715Y-62015132D01*
X76700000Y-61994500D01*
X76543285Y-62015132D01*
X76397250Y-62075622D01*
X76271847Y-62171847D01*
X76175622Y-62297250D01*
X76115132Y-62443285D01*
X76094500Y-62600000D01*
X33850000Y-62600000D01*
X33850000Y-60551793D01*
X33870002Y-60483672D01*
X33923658Y-60437179D01*
X33993932Y-60427075D01*
X34052704Y-60451831D01*
X34140694Y-60519348D01*
X34140696Y-60519349D01*
X34147250Y-60524378D01*
X34293285Y-60584868D01*
X34450000Y-60605500D01*
X34458188Y-60604422D01*
X34598527Y-60585946D01*
X34606715Y-60584868D01*
X34752750Y-60524378D01*
X34878153Y-60428153D01*
X34899756Y-60400000D01*
X76094500Y-60400000D01*
X76115132Y-60556715D01*
X76175622Y-60702750D01*
X76271847Y-60828153D01*
X76397250Y-60924378D01*
X76543285Y-60984868D01*
X76700000Y-61005500D01*
X76708188Y-61004422D01*
X76848527Y-60985946D01*
X76856715Y-60984868D01*
X77002750Y-60924378D01*
X77128153Y-60828153D01*
X77224378Y-60702750D01*
X77284868Y-60556715D01*
X77305500Y-60400000D01*
X77284868Y-60243285D01*
X77224378Y-60097250D01*
X77128153Y-59971847D01*
X77034520Y-59900000D01*
X80494500Y-59900000D01*
X80515132Y-60056715D01*
X80575622Y-60202750D01*
X80671847Y-60328153D01*
X80797250Y-60424378D01*
X80943285Y-60484868D01*
X81100000Y-60505500D01*
X81108188Y-60504422D01*
X81141776Y-60500000D01*
X97894500Y-60500000D01*
X97915132Y-60656715D01*
X97975622Y-60802750D01*
X98071847Y-60928153D01*
X98197250Y-61024378D01*
X98343285Y-61084868D01*
X98500000Y-61105500D01*
X98508188Y-61104422D01*
X98648527Y-61085946D01*
X98656715Y-61084868D01*
X98802750Y-61024378D01*
X98928153Y-60928153D01*
X99024378Y-60802750D01*
X99084868Y-60656715D01*
X99105500Y-60500000D01*
X99084868Y-60343285D01*
X99024378Y-60197250D01*
X98928153Y-60071847D01*
X98802750Y-59975622D01*
X98656715Y-59915132D01*
X98500000Y-59894500D01*
X98343285Y-59915132D01*
X98197250Y-59975622D01*
X98071847Y-60071847D01*
X97975622Y-60197250D01*
X97915132Y-60343285D01*
X97894500Y-60500000D01*
X81141776Y-60500000D01*
X81248527Y-60485946D01*
X81256715Y-60484868D01*
X81402750Y-60424378D01*
X81528153Y-60328153D01*
X81624378Y-60202750D01*
X81684868Y-60056715D01*
X81705500Y-59900000D01*
X81684868Y-59743285D01*
X81624378Y-59597250D01*
X81528153Y-59471847D01*
X81402750Y-59375622D01*
X81256715Y-59315132D01*
X81100000Y-59294500D01*
X80943285Y-59315132D01*
X80797250Y-59375622D01*
X80671847Y-59471847D01*
X80575622Y-59597250D01*
X80515132Y-59743285D01*
X80494500Y-59900000D01*
X77034520Y-59900000D01*
X77002750Y-59875622D01*
X76856715Y-59815132D01*
X76700000Y-59794500D01*
X76543285Y-59815132D01*
X76397250Y-59875622D01*
X76271847Y-59971847D01*
X76175622Y-60097250D01*
X76115132Y-60243285D01*
X76094500Y-60400000D01*
X34899756Y-60400000D01*
X34974378Y-60302750D01*
X35034868Y-60156715D01*
X35055500Y-60000000D01*
X35034868Y-59843285D01*
X34974378Y-59697250D01*
X34878153Y-59571847D01*
X34752750Y-59475622D01*
X34606715Y-59415132D01*
X34450000Y-59394500D01*
X34293285Y-59415132D01*
X34147250Y-59475622D01*
X34140699Y-59480649D01*
X34140694Y-59480652D01*
X34052704Y-59548169D01*
X33986484Y-59573770D01*
X33916935Y-59559505D01*
X33866139Y-59509904D01*
X33850000Y-59448207D01*
X33850000Y-59000000D01*
X85994500Y-59000000D01*
X86015132Y-59156715D01*
X86075622Y-59302750D01*
X86171847Y-59428153D01*
X86297250Y-59524378D01*
X86443285Y-59584868D01*
X86600000Y-59605500D01*
X86608188Y-59604422D01*
X86748527Y-59585946D01*
X86756715Y-59584868D01*
X86902750Y-59524378D01*
X87028153Y-59428153D01*
X87124378Y-59302750D01*
X87184868Y-59156715D01*
X87205500Y-59000000D01*
X91794500Y-59000000D01*
X91815132Y-59156715D01*
X91875622Y-59302750D01*
X91971847Y-59428153D01*
X92097250Y-59524378D01*
X92243285Y-59584868D01*
X92400000Y-59605500D01*
X92408188Y-59604422D01*
X92548527Y-59585946D01*
X92556715Y-59584868D01*
X92702750Y-59524378D01*
X92828153Y-59428153D01*
X92924378Y-59302750D01*
X92984868Y-59156715D01*
X93005500Y-59000000D01*
X92984868Y-58843285D01*
X92924378Y-58697250D01*
X92828153Y-58571847D01*
X92702750Y-58475622D01*
X92556715Y-58415132D01*
X92400000Y-58394500D01*
X92243285Y-58415132D01*
X92097250Y-58475622D01*
X91971847Y-58571847D01*
X91875622Y-58697250D01*
X91815132Y-58843285D01*
X91794500Y-59000000D01*
X87205500Y-59000000D01*
X87184868Y-58843285D01*
X87124378Y-58697250D01*
X87028153Y-58571847D01*
X86902750Y-58475622D01*
X86756715Y-58415132D01*
X86600000Y-58394500D01*
X86443285Y-58415132D01*
X86297250Y-58475622D01*
X86171847Y-58571847D01*
X86075622Y-58697250D01*
X86015132Y-58843285D01*
X85994500Y-59000000D01*
X33850000Y-59000000D01*
X33850000Y-56600000D01*
X88794500Y-56600000D01*
X88815132Y-56756715D01*
X88875622Y-56902750D01*
X88971847Y-57028153D01*
X89097250Y-57124378D01*
X89243285Y-57184868D01*
X89400000Y-57205500D01*
X89408188Y-57204422D01*
X89548527Y-57185946D01*
X89556715Y-57184868D01*
X89702750Y-57124378D01*
X89828153Y-57028153D01*
X89924378Y-56902750D01*
X89984868Y-56756715D01*
X90005500Y-56600000D01*
X89984868Y-56443285D01*
X89924378Y-56297250D01*
X89849756Y-56200000D01*
X95394500Y-56200000D01*
X95415132Y-56356715D01*
X95475622Y-56502750D01*
X95571847Y-56628153D01*
X95697250Y-56724378D01*
X95843285Y-56784868D01*
X96000000Y-56805500D01*
X96008188Y-56804422D01*
X96148527Y-56785946D01*
X96156715Y-56784868D01*
X96302750Y-56724378D01*
X96428153Y-56628153D01*
X96524378Y-56502750D01*
X96584868Y-56356715D01*
X96605500Y-56200000D01*
X96584868Y-56043285D01*
X96524378Y-55897250D01*
X96428153Y-55771847D01*
X96302750Y-55675622D01*
X96156715Y-55615132D01*
X96000000Y-55594500D01*
X95843285Y-55615132D01*
X95697250Y-55675622D01*
X95571847Y-55771847D01*
X95475622Y-55897250D01*
X95415132Y-56043285D01*
X95394500Y-56200000D01*
X89849756Y-56200000D01*
X89828153Y-56171847D01*
X89702750Y-56075622D01*
X89556715Y-56015132D01*
X89400000Y-55994500D01*
X89243285Y-56015132D01*
X89097250Y-56075622D01*
X88971847Y-56171847D01*
X88875622Y-56297250D01*
X88815132Y-56443285D01*
X88794500Y-56600000D01*
X33850000Y-56600000D01*
X33850000Y-55551793D01*
X33870002Y-55483672D01*
X33923658Y-55437179D01*
X33993932Y-55427075D01*
X34052704Y-55451831D01*
X34140694Y-55519348D01*
X34140696Y-55519349D01*
X34147250Y-55524378D01*
X34293285Y-55584868D01*
X34450000Y-55605500D01*
X34458188Y-55604422D01*
X34598527Y-55585946D01*
X34606715Y-55584868D01*
X34752750Y-55524378D01*
X34878153Y-55428153D01*
X34974378Y-55302750D01*
X35016939Y-55200000D01*
X80394500Y-55200000D01*
X80415132Y-55356715D01*
X80475622Y-55502750D01*
X80571847Y-55628153D01*
X80697250Y-55724378D01*
X80843285Y-55784868D01*
X81000000Y-55805500D01*
X81008188Y-55804422D01*
X81148527Y-55785946D01*
X81156715Y-55784868D01*
X81302750Y-55724378D01*
X81428153Y-55628153D01*
X81524378Y-55502750D01*
X81584868Y-55356715D01*
X81605500Y-55200000D01*
X81592335Y-55100000D01*
X96794500Y-55100000D01*
X96815132Y-55256715D01*
X96875622Y-55402750D01*
X96971847Y-55528153D01*
X97097250Y-55624378D01*
X97243285Y-55684868D01*
X97400000Y-55705500D01*
X97408188Y-55704422D01*
X97548527Y-55685946D01*
X97556715Y-55684868D01*
X97702750Y-55624378D01*
X97828153Y-55528153D01*
X97924378Y-55402750D01*
X97984868Y-55256715D01*
X98005500Y-55100000D01*
X97984868Y-54943285D01*
X97924378Y-54797250D01*
X97828153Y-54671847D01*
X97702750Y-54575622D01*
X97556715Y-54515132D01*
X97400000Y-54494500D01*
X97243285Y-54515132D01*
X97097250Y-54575622D01*
X96971847Y-54671847D01*
X96875622Y-54797250D01*
X96815132Y-54943285D01*
X96794500Y-55100000D01*
X81592335Y-55100000D01*
X81584868Y-55043285D01*
X81524378Y-54897250D01*
X81428153Y-54771847D01*
X81302750Y-54675622D01*
X81156715Y-54615132D01*
X81000000Y-54594500D01*
X80843285Y-54615132D01*
X80697250Y-54675622D01*
X80571847Y-54771847D01*
X80475622Y-54897250D01*
X80415132Y-55043285D01*
X80394500Y-55200000D01*
X35016939Y-55200000D01*
X35034868Y-55156715D01*
X35055500Y-55000000D01*
X35034868Y-54843285D01*
X34974378Y-54697250D01*
X34878153Y-54571847D01*
X34752750Y-54475622D01*
X34606715Y-54415132D01*
X34450000Y-54394500D01*
X34293285Y-54415132D01*
X34147250Y-54475622D01*
X34140699Y-54480649D01*
X34140694Y-54480652D01*
X34052704Y-54548169D01*
X33986484Y-54573770D01*
X33916935Y-54559505D01*
X33866139Y-54509904D01*
X33850000Y-54448207D01*
X33850000Y-52400000D01*
X77694500Y-52400000D01*
X77715132Y-52556715D01*
X77775622Y-52702750D01*
X77871847Y-52828153D01*
X77997250Y-52924378D01*
X78143285Y-52984868D01*
X78300000Y-53005500D01*
X78308188Y-53004422D01*
X78448527Y-52985946D01*
X78456715Y-52984868D01*
X78602750Y-52924378D01*
X78728153Y-52828153D01*
X78824378Y-52702750D01*
X78866939Y-52600000D01*
X85994500Y-52600000D01*
X86015132Y-52756715D01*
X86075622Y-52902750D01*
X86171847Y-53028153D01*
X86297250Y-53124378D01*
X86443285Y-53184868D01*
X86600000Y-53205500D01*
X86608188Y-53204422D01*
X86748527Y-53185946D01*
X86756715Y-53184868D01*
X86902750Y-53124378D01*
X87028153Y-53028153D01*
X87124378Y-52902750D01*
X87184868Y-52756715D01*
X87205500Y-52600000D01*
X91794500Y-52600000D01*
X91815132Y-52756715D01*
X91875622Y-52902750D01*
X91971847Y-53028153D01*
X92097250Y-53124378D01*
X92243285Y-53184868D01*
X92400000Y-53205500D01*
X92408188Y-53204422D01*
X92548527Y-53185946D01*
X92556715Y-53184868D01*
X92702750Y-53124378D01*
X92828153Y-53028153D01*
X92924378Y-52902750D01*
X92984868Y-52756715D01*
X93005500Y-52600000D01*
X92984868Y-52443285D01*
X92924378Y-52297250D01*
X92849756Y-52200000D01*
X95494500Y-52200000D01*
X95515132Y-52356715D01*
X95575622Y-52502750D01*
X95671847Y-52628153D01*
X95797250Y-52724378D01*
X95943285Y-52784868D01*
X96100000Y-52805500D01*
X96108188Y-52804422D01*
X96248527Y-52785946D01*
X96256715Y-52784868D01*
X96402750Y-52724378D01*
X96528153Y-52628153D01*
X96624378Y-52502750D01*
X96684868Y-52356715D01*
X96705500Y-52200000D01*
X96684868Y-52043285D01*
X96624378Y-51897250D01*
X96528153Y-51771847D01*
X96402750Y-51675622D01*
X96256715Y-51615132D01*
X96100000Y-51594500D01*
X95943285Y-51615132D01*
X95797250Y-51675622D01*
X95671847Y-51771847D01*
X95575622Y-51897250D01*
X95515132Y-52043285D01*
X95494500Y-52200000D01*
X92849756Y-52200000D01*
X92828153Y-52171847D01*
X92702750Y-52075622D01*
X92556715Y-52015132D01*
X92400000Y-51994500D01*
X92243285Y-52015132D01*
X92097250Y-52075622D01*
X91971847Y-52171847D01*
X91875622Y-52297250D01*
X91815132Y-52443285D01*
X91794500Y-52600000D01*
X87205500Y-52600000D01*
X87184868Y-52443285D01*
X87124378Y-52297250D01*
X87028153Y-52171847D01*
X86902750Y-52075622D01*
X86756715Y-52015132D01*
X86600000Y-51994500D01*
X86443285Y-52015132D01*
X86297250Y-52075622D01*
X86171847Y-52171847D01*
X86075622Y-52297250D01*
X86015132Y-52443285D01*
X85994500Y-52600000D01*
X78866939Y-52600000D01*
X78884868Y-52556715D01*
X78905500Y-52400000D01*
X78884868Y-52243285D01*
X78824378Y-52097250D01*
X78728153Y-51971847D01*
X78602750Y-51875622D01*
X78456715Y-51815132D01*
X78300000Y-51794500D01*
X78143285Y-51815132D01*
X77997250Y-51875622D01*
X77871847Y-51971847D01*
X77775622Y-52097250D01*
X77715132Y-52243285D01*
X77694500Y-52400000D01*
X33850000Y-52400000D01*
X33850000Y-50800000D01*
X37494500Y-50800000D01*
X37515132Y-50956715D01*
X37575622Y-51102750D01*
X37671847Y-51228153D01*
X37797250Y-51324378D01*
X37943285Y-51384868D01*
X38100000Y-51405500D01*
X38108188Y-51404422D01*
X38248527Y-51385946D01*
X38256715Y-51384868D01*
X38402750Y-51324378D01*
X38528153Y-51228153D01*
X38624378Y-51102750D01*
X38684868Y-50956715D01*
X38705500Y-50800000D01*
X50194500Y-50800000D01*
X50215132Y-50956715D01*
X50275622Y-51102750D01*
X50371847Y-51228153D01*
X50497250Y-51324378D01*
X50643285Y-51384868D01*
X50800000Y-51405500D01*
X50808188Y-51404422D01*
X50948527Y-51385946D01*
X50956715Y-51384868D01*
X51102750Y-51324378D01*
X51228153Y-51228153D01*
X51324378Y-51102750D01*
X51384868Y-50956715D01*
X51405500Y-50800000D01*
X62894500Y-50800000D01*
X62915132Y-50956715D01*
X62975622Y-51102750D01*
X63071847Y-51228153D01*
X63197250Y-51324378D01*
X63343285Y-51384868D01*
X63500000Y-51405500D01*
X63508188Y-51404422D01*
X63648527Y-51385946D01*
X63656715Y-51384868D01*
X63802750Y-51324378D01*
X63928153Y-51228153D01*
X64024378Y-51102750D01*
X64084868Y-50956715D01*
X64105500Y-50800000D01*
X64084868Y-50643285D01*
X64024378Y-50497250D01*
X63928153Y-50371847D01*
X63802750Y-50275622D01*
X63656715Y-50215132D01*
X63500000Y-50194500D01*
X63343285Y-50215132D01*
X63197250Y-50275622D01*
X63071847Y-50371847D01*
X62975622Y-50497250D01*
X62915132Y-50643285D01*
X62894500Y-50800000D01*
X51405500Y-50800000D01*
X51384868Y-50643285D01*
X51324378Y-50497250D01*
X51228153Y-50371847D01*
X51102750Y-50275622D01*
X50956715Y-50215132D01*
X50800000Y-50194500D01*
X50643285Y-50215132D01*
X50497250Y-50275622D01*
X50371847Y-50371847D01*
X50275622Y-50497250D01*
X50215132Y-50643285D01*
X50194500Y-50800000D01*
X38705500Y-50800000D01*
X38684868Y-50643285D01*
X38624378Y-50497250D01*
X38528153Y-50371847D01*
X38402750Y-50275622D01*
X38256715Y-50215132D01*
X38100000Y-50194500D01*
X37943285Y-50215132D01*
X37797250Y-50275622D01*
X37671847Y-50371847D01*
X37575622Y-50497250D01*
X37515132Y-50643285D01*
X37494500Y-50800000D01*
X33850000Y-50800000D01*
X33850000Y-50551793D01*
X33870002Y-50483672D01*
X33923658Y-50437179D01*
X33993932Y-50427075D01*
X34052704Y-50451831D01*
X34140694Y-50519348D01*
X34140696Y-50519349D01*
X34147250Y-50524378D01*
X34293285Y-50584868D01*
X34450000Y-50605500D01*
X34458188Y-50604422D01*
X34598527Y-50585946D01*
X34606715Y-50584868D01*
X34752750Y-50524378D01*
X34878153Y-50428153D01*
X34974378Y-50302750D01*
X35034868Y-50156715D01*
X35055500Y-50000000D01*
X35034868Y-49843285D01*
X34974378Y-49697250D01*
X34878153Y-49571847D01*
X34752750Y-49475622D01*
X34606715Y-49415132D01*
X34450000Y-49394500D01*
X34293285Y-49415132D01*
X34147250Y-49475622D01*
X34140699Y-49480649D01*
X34140694Y-49480652D01*
X34052704Y-49548169D01*
X33986484Y-49573770D01*
X33916935Y-49559505D01*
X33866139Y-49509904D01*
X33850000Y-49448207D01*
X33850000Y-47326000D01*
X33870002Y-47257879D01*
X33923658Y-47211386D01*
X33976000Y-47200000D01*
X34429023Y-47200000D01*
X34497144Y-47220002D01*
G37*
%TD.AperFunction*%
%TD*%
M02*
